<svg width="827" height="604" viewBox="0 0 827 604" fill="none" xmlns="http://www.w3.org/2000/svg">
<path d="M516.276 411.807C520.002 412.233 523.623 414.473 526.03 417.245C528.891 420.539 529.697 424.204 528.747 428.379C528.192 430.821 527.249 433.095 525.987 435.244C523.309 439.803 520.157 443.999 516.616 447.954C514.482 450.337 512.485 452.828 510.721 455.514C506.89 461.351 507.656 466.712 512.418 471.219C516.455 475.04 520.667 477.834 525.767 480.093C535.4 484.358 545.453 487.146 555.885 488.602C568.042 490.299 580.275 490.84 592.529 490.998C612.478 491.254 632.416 490.733 652.345 489.922C682.764 488.684 713.194 488.327 743.633 488.498C747.237 488.518 750.841 488.549 754.445 488.614C755.536 488.634 756.691 488.49 757.707 489.375C757.197 490.235 756.286 490.313 755.495 490.525C752.241 491.399 748.91 491.812 745.553 491.94C728.983 492.574 712.401 492.655 695.824 492.923C680.286 493.174 664.758 493.616 649.23 494.229C630.183 494.982 611.125 495.614 592.058 495.248C580.128 495.02 568.208 494.455 556.363 492.91C545.203 491.455 534.413 488.598 524.101 484.045C518.479 481.562 513.853 478.413 509.35 474.254C508.17 473.164 507.157 471.931 506.327 470.546C502.997 464.987 503.163 459.861 506.463 454.242C508.256 451.187 510.467 448.453 512.84 445.851C516.359 441.993 519.628 437.976 522.346 433.531C523.519 431.614 524.493 429.613 525.068 427.425C525.876 424.354 525.355 421.58 523.377 419.076C521.861 417.157 519.185 415.209 516.884 414.385C515.106 413.749 513.437 411.669 516.276 411.807Z" fill="#0C0A0A"/>
<path d="M237.348 389.263C224.364 392.632 184.027 401.414 192.924 413.445C199.709 422.62 228.271 420.904 237.168 418.979C246.064 417.055 259.642 411.741 260.251 403.82C260.973 394.436 229.954 387.94 192.924 394.436C172.758 397.974 146.757 406.949 157.337 428.364C161.626 437.045 192.916 443.159 208.794 442.079C230.55 440.642 266.122 429.883 291.518 414.659C321.439 396.83 342.839 345.697 368.976 349.964" stroke="black" stroke-width="8" stroke-linecap="round"/>
<path d="M229.469 389.449C236.551 387.458 243.685 385.636 250.592 383.077C253.972 381.825 257.258 380.369 260.318 378.422C264.634 375.674 266.738 371.826 267.095 366.68C267.515 360.637 265.028 331.626 264.315 323.085C263.455 312.78 263.082 302.452 262.624 292.128C262.571 290.933 262.203 290.002 261.365 289.14C259.343 287.061 257.112 285.296 254.644 283.75C244.033 277.102 232.31 273.495 220.199 270.896C212.927 269.335 205.701 267.573 198.364 266.304C193.699 265.497 188.983 265.238 184.302 264.621C170.657 262.823 156.92 261.737 143.359 259.287C138.236 258.362 133.285 256.702 128.174 255.751C117.83 253.827 108.969 248.791 100.68 242.634C90.1371 234.804 81.563 225.173 74.7712 213.911C69.7116 205.521 67.2358 196.295 65.5161 186.795C62.7682 171.614 62.9822 156.333 64.1407 141.038C64.4673 136.73 65.1122 132.444 65.682 128.156C66.0182 125.626 67.1002 124.561 69.0421 124.502C69.7928 124.479 70.1549 124.727 70.4536 125.454C71.0667 126.945 70.9138 128.445 70.7484 129.953C70.2766 134.251 69.5788 138.534 69.3129 142.843C68.5627 154.999 67.9572 167.158 69.7938 179.294C70.5122 184.042 71.2101 188.777 72.2459 193.478C74.3384 202.975 78.6343 211.353 84.4008 219.088C93.2755 230.991 104.334 240.238 117.595 246.91C122.311 249.283 127.446 250.135 132.445 251.523C143.435 254.574 154.682 256.092 165.975 257.373C175.676 258.474 185.388 259.49 195.068 260.754C202.526 261.727 209.849 263.478 217.173 265.186C223.169 266.584 229.153 268.02 235.054 269.795C244.34 272.588 252.837 276.944 260.677 282.619C261.066 282.9 261.447 283.191 261.84 283.467C261.882 283.496 261.978 283.447 262.049 283.435C262.429 283.3 262.434 282.962 262.434 282.654C262.448 268.394 263.078 254.131 262.187 239.877C261.777 233.321 261.077 226.784 260.925 220.21C260.89 218.684 260.928 217.168 261.151 215.656C261.269 214.849 261.52 214.094 262.012 213.453C262.348 213.015 262.767 212.506 263.397 212.713C263.893 212.875 263.969 213.404 264.028 213.91C264.36 216.768 264.793 219.616 265.058 222.479C265.677 229.173 266.329 235.864 266.692 242.583C267.206 252.117 266.968 261.649 266.919 271.182C266.881 278.875 266.747 286.573 267.093 294.256C267.446 302.096 267.556 309.954 268.387 317.767C268.563 319.428 268.281 321.135 268.843 322.739C269.632 322.889 269.598 322.253 269.74 321.858C274.361 309.055 282.859 299.348 293.618 291.283C303.789 283.659 314.825 277.528 326.065 271.731C340.501 264.286 354.91 256.819 368.717 248.216C380.364 240.959 389.704 231.495 397.229 220.115C405.187 208.08 411.328 195.27 415.056 181.239C418.007 170.132 420.475 158.961 421.471 147.534C422.383 137.069 422.396 126.563 420.614 116.143C420.427 115.049 420.108 113.935 419.618 112.946C419.033 111.763 419.378 110.94 420.261 110.215C421.155 109.479 422.088 109.77 422.926 110.335C423.988 111.052 424.43 112.182 424.681 113.379C425.405 116.831 425.863 120.327 426.083 123.84C427.399 144.87 424.236 165.295 418.363 185.474C413.225 203.129 404.587 218.789 393.054 232.921C386.781 240.608 379.144 246.782 370.728 252.081C356.551 261.007 341.578 268.438 326.742 276.141C315.801 281.822 305.069 287.84 295.142 295.249C284.942 302.862 277.19 312.241 272.581 324.154C271.861 326.015 271.086 327.857 270.258 329.672C269.644 331.016 269.269 332.386 269.504 333.851C270.013 337.026 272.755 361.953 270.911 370.911C270.189 374.419 268.465 377.292 265.792 379.65C263.302 381.848 260.458 383.449 257.463 384.829C252.499 387.115 247.286 388.665 242.039 390.118C241.902 390.156 230.156 393.266 228.454 393.216C224.506 393.099 226.708 390.226 229.469 389.449Z" fill="#0C0A0A"/>
<path d="M332.014 450.128C328.406 453.172 315.764 463.254 313.166 465.389C312.427 465.996 311.672 466.608 310.706 466.831C309.457 467.119 308.66 466.357 308.916 465.106C309.084 464.289 309.622 463.711 310.223 463.153C320.969 453.173 332.458 444.085 344.24 435.395C349.862 431.249 354.995 428.055 361.044 424.566C362.717 423.602 363.204 424.914 363.458 426.032C363.738 427.262 364.391 427.823 363.089 428.559C350.035 435.933 339.114 444.135 332.014 450.128Z" fill="#0C0A0A"/>
<path d="M398.284 451.048C398.855 453.43 396.936 454.082 396.194 454.352C389.574 456.763 384.012 459.185 377.73 462.358C364.807 468.887 351.955 475.55 339.726 483.339C334.395 486.735 329.106 490.196 323.794 493.622C322.518 494.445 321.27 495.337 319.819 495.831C318.617 496.239 317.717 495.446 318.016 494.229C318.308 493.041 318.92 492.004 319.917 491.247C321.701 489.891 323.428 488.445 325.296 487.217C336.195 480.054 347.072 472.86 358.761 466.992C362.615 465.057 366.297 462.781 370.063 460.67C378.378 456.009 385.793 452.496 394.989 449.834C395.694 449.63 397.692 448.576 398.284 451.048Z" fill="#0C0A0A"/>
<path d="M311.813 485.284C311.541 484.524 311.188 483.815 310.715 483.162C310.161 482.399 309.423 482.261 308.589 482.57C307.768 482.874 307.592 483.542 307.732 484.328C307.843 484.955 307.966 485.582 308.119 486.201C308.697 488.552 308.979 490.933 308.603 493.336C308.387 494.715 308.174 496.144 306.98 497.334C306.435 495.425 306.038 493.635 305.418 491.925C303.268 485.991 301.025 480.091 298.847 474.167C295.536 465.159 292.314 456.111 286.799 448.123C286.997 447.866 287.194 447.609 287.392 447.352C288.257 447.656 288.841 448.339 289.457 448.952C291.282 450.765 292.809 452.812 294.12 455.028C296.156 458.468 298.2 461.904 300.298 465.306C300.683 465.929 300.849 466.85 301.809 466.98C303.524 465.028 303.317 462.95 302.357 460.784C301.483 458.811 300.754 456.768 299.791 454.841C298.066 451.391 295.993 448.167 293.106 445.537C288.534 441.373 283.106 439.785 277.004 439.967C273.738 440.064 272.357 440.879 271.336 443.989C270.604 446.218 270.376 448.528 270.536 450.861C271.023 457.954 272.796 464.746 275.58 471.26C277.529 475.821 279.472 480.383 281.3 484.995C283.072 489.467 285.131 493.794 287.826 497.797C289.904 500.883 292.391 503.569 295.505 505.636C296.911 506.569 298.395 507.348 300.05 507.751C301.77 508.17 303.602 508.11 304.839 506.929C306.34 505.494 308.087 504.392 309.568 502.962C310.385 502.172 310.903 501.189 311.408 500.178C313.861 495.267 313.61 490.302 311.813 485.284ZM303.368 501.912C303.134 503.685 302.467 504.141 300.778 503.653C299.844 503.383 299.027 502.88 298.22 502.354C295.214 500.394 292.889 497.783 290.925 494.81C288.397 490.981 286.53 486.827 284.797 482.6C283.097 478.454 281.4 474.306 279.603 470.202C277.153 464.604 275.427 458.802 274.437 452.78C274.321 452.074 274.367 451.342 274.338 450.622C274.207 448.851 274.344 447.097 274.911 445.408C275.439 443.836 275.932 443.655 277.372 444.558C279.156 445.675 280.589 447.195 281.902 448.821C285.61 453.414 288.266 458.608 290.496 464.035C295.125 475.298 298.937 486.857 302.828 498.385C303.206 499.505 303.53 500.683 303.368 501.912Z" fill="#0C0A0A"/>
<path d="M394.225 550.585C394.308 548.618 395.081 547.302 395.821 545.974C397.349 543.23 399.508 540.963 401.405 538.494C405.696 532.912 409.94 527.29 414.037 521.565C421.742 510.798 430.293 500.747 439.388 491.148C441.259 489.173 443.259 487.319 445.238 485.449C445.873 484.849 446.585 484.293 447.35 483.88C447.837 483.616 448.451 482.932 449.049 483.621C449.519 484.163 449.771 484.841 449.448 485.622C449.137 486.378 448.693 487.007 448.117 487.587C439.929 495.839 432.592 504.809 425.559 514.053C419.075 522.576 412.431 530.977 405.841 539.419C403.132 542.89 400.549 546.45 398.122 550.122C397.857 550.523 397.599 550.928 397.318 551.318C396.811 552.019 396.164 552.473 395.27 552.148C394.373 551.823 394.14 551.086 394.225 550.585Z" fill="#0C0A0A"/>
<path d="M382.758 514.791C382.686 513.969 383.082 513.24 383.341 512.497C385.347 506.749 388.111 501.35 391.067 496.049C395.472 488.15 400.341 480.55 405.679 473.241C410.235 467.004 416.072 462.198 422.31 457.803C423.23 457.155 424.246 456.633 425.419 456.712C426.564 456.789 426.864 457.408 426.364 458.476C425.88 459.51 425.098 460.31 424.35 461.145C422.046 463.715 419.343 465.862 416.889 468.274C409.751 475.287 404.388 483.635 399.017 491.978C394.611 498.822 390.902 506.077 386.655 513.015C386.073 513.967 385.519 514.95 384.69 515.72C384.355 516.031 384.002 516.423 383.439 516.182C382.818 515.916 382.688 515.409 382.758 514.791Z" fill="#0C0A0A"/>
<path d="M389.56 554.269C389.069 553.43 388.358 552.943 387.389 553.144C386.503 553.328 386.501 554.19 386.379 554.876C386.297 555.342 386.399 555.837 386.354 556.313C386.04 559.676 384.573 562.492 382.412 565.218C382.18 564.771 382.052 564.642 382.055 564.515C382.175 558.684 380.742 553.132 379.15 547.586C377.582 542.126 375.67 536.774 374.121 531.315C372.736 526.439 370.983 521.749 368.445 517.358C367.736 516.132 367.067 514.883 366.379 513.644C366.535 513.25 366.87 513.143 367.248 513.108C368.41 514.07 369.47 515.128 370.433 516.299C372.487 518.797 374.058 521.567 375.231 524.566C376.309 527.322 377.327 530.101 378.407 532.856C378.725 533.669 379.043 534.495 379.686 535.145C380.274 535.74 380.953 535.805 381.675 535.551C382.35 535.313 382.645 534.765 382.676 534.06C382.712 533.253 382.649 532.469 382.354 531.701C380.981 528.118 379.79 524.46 378.111 521.003C375.541 515.712 371.965 511.321 366.862 508.202C364.491 506.752 361.982 506.267 359.322 506.273C358.14 506.276 356.609 506.277 356.018 507.342C354.918 509.325 353.51 511.243 353.446 513.686C353.405 515.286 353.28 516.881 353.417 518.485C353.785 522.788 354.066 527.099 354.487 531.396C354.844 535.051 355.255 538.705 355.811 542.334C356.591 547.43 358.888 552.057 360.587 556.865C361.518 559.501 362.915 561.943 364.33 564.362C365.924 567.087 368.255 569.058 371.012 570.393C373.784 571.735 376.829 572.417 379.828 571.156C385.572 568.74 388.94 564.287 390.163 558.235C390.428 556.923 390.288 555.513 389.56 554.269ZM378.049 566.527C377.479 568.05 376.679 568.484 375.07 568.257C371.965 567.819 369.485 566.204 367.713 563.734C365.48 560.621 363.481 557.33 362.658 553.492C361.835 549.662 360.13 546.076 359.528 542.186C358.981 538.644 358.351 535.119 358.118 531.525C357.82 526.905 357.081 522.32 356.899 517.685C356.831 515.992 356.863 514.32 357.364 512.697C357.933 510.854 358.62 510.645 360.01 511.947C361.477 513.319 362.697 514.913 363.688 516.661C366.102 520.915 368.234 525.312 369.54 530.037C371.503 537.138 374.177 544.006 376.246 551.071C377.326 554.757 378.478 558.419 378.705 562.287C378.793 563.749 378.556 565.17 378.049 566.527Z" fill="#0C0A0A"/>
<path d="M400.268 429.965C397.715 430.405 395.176 430.865 392.628 431.279C385.269 432.477 377.866 432.948 370.408 432.596C367.857 432.475 365.376 432.058 362.98 431.189C360.671 430.352 358.623 429.242 358.341 426.604C358.012 424.722 358.76 421.188 361.909 419.539C364.87 417.989 367.981 416.725 371.056 415.396C376.942 412.852 383.197 411.749 389.473 410.695C391.318 410.385 393.148 409.955 395.005 409.757C396.503 409.598 397.221 410.182 397.566 411.426C397.757 412.115 397.699 412.538 396.839 412.867C394.924 413.599 392.91 413.863 390.943 414.343C383.413 416.182 376.148 418.803 368.929 421.556C367.788 421.991 366.647 422.423 365.521 422.892C364.999 423.109 364.463 423.346 364.022 423.685C362.804 424.62 362.834 425.255 364.146 426.049C365.553 426.899 367.11 427.362 368.748 427.576C375.285 428.433 381.781 427.867 388.286 427.139C393.825 426.519 399.212 425.29 404.524 423.684C404.758 423.614 404.992 423.524 405.233 423.499C406.374 423.383 407.596 423.159 408.369 424.272C409.174 425.431 408.794 426.592 408.022 427.615C406.022 430.267 404.418 433.141 403.01 436.121C401.309 439.725 400.432 443.531 400.352 447.498C400.302 449.947 401.451 451.328 403.936 451.902C407.301 452.678 410.603 452.141 413.856 451.285C415.587 450.83 417.309 450.282 418.956 449.593C424.586 447.237 430.183 444.805 435.789 442.393C437.963 441.458 439.948 440.192 441.941 438.944C442.696 438.471 443.402 437.919 444.176 437.479C445.091 436.958 446.062 436.364 447.143 437.032C448.275 437.731 448.265 438.832 448.2 440.015C447.857 446.249 447.565 452.485 447.277 458.722C447.16 461.247 447.677 463.652 448.802 465.934C449.494 467.338 450.511 468.445 451.766 469.39C454.458 471.415 457.273 471.6 460.243 470.052C463.344 468.436 465.716 466.02 467.828 463.341C470.49 459.961 472.351 456.112 474.323 452.34C477.05 447.123 479.49 441.792 480.005 435.833C480.032 435.521 480.133 435.202 480.26 434.912C480.729 433.841 481.8 433.146 482.754 433.377C483.912 433.658 484.524 434.397 484.573 435.621C484.68 438.288 484.338 440.917 483.664 443.473C479.275 460.1 469.671 473.049 454.922 482.33C454.236 482.762 453.539 483.172 452.686 483.245C451.869 483.315 451.202 483.067 450.818 482.371C450.415 481.64 450.703 480.923 451.239 480.391C451.689 479.943 452.301 479.655 452.821 479.27C454.031 478.377 455.45 477.733 456.508 476.472C455.451 475.841 454.342 476.054 453.35 475.747C447.578 473.961 443.382 468.783 442.849 462.848C442.359 457.395 442.758 451.967 443.138 446.535C443.177 445.99 443.459 445.442 443.143 444.895C442.618 444.63 442.211 444.961 441.789 445.163C435.338 448.267 428.742 451.052 422.083 453.691C416.675 455.834 411.106 457.333 405.194 457.251C401.417 457.199 398.047 456.36 395.994 452.875C395.392 451.853 394.012 450.104 394.436 446.564C395.075 441.244 397.283 436.415 399.713 431.684C399.966 431.19 400.354 430.748 400.268 429.965Z" fill="#0C0A0A"/>
<path d="M410.232 403.005C409.351 406.543 408.172 410.077 406.382 413.383C405.849 414.368 404.923 414.591 403.912 414.267C402.873 413.933 402.706 413.008 402.851 412.121C403.03 411.03 403.376 409.963 403.703 408.902C404.36 406.774 405.052 404.657 405.733 402.536C406.03 401.611 406.439 400.78 407.342 400.261C408.832 399.406 409.797 399.797 410.118 401.462C410.207 401.926 410.191 402.41 410.232 403.005Z" fill="#0C0A0A"/>
<path d="M420.149 326.982C420.312 326.122 420.629 325.443 421.62 325.372C422.507 325.308 423.217 325.64 423.565 326.474C423.809 327.058 423.99 327.688 424.074 328.315C424.244 329.584 424.4 330.864 424.433 332.142C424.546 336.383 424.685 340.623 424.708 344.869C424.749 352.099 424.013 359.252 423.113 366.404C422.893 368.15 422.823 369.914 422.338 371.618C422.186 372.153 422.04 372.703 421.792 373.197C421.428 373.924 420.775 374.191 419.98 374.034C419.126 373.865 418.782 373.242 418.809 372.457C418.836 371.66 418.921 370.85 419.112 370.078C419.577 368.192 419.775 366.3 419.571 364.362C419.512 363.81 419.588 363.242 419.618 362.682C420.058 354.44 419.961 346.187 420.156 337.939C420.168 337.459 420.116 336.977 420.134 336.498C420.167 335.579 419.823 328.693 420.149 326.982Z" fill="#0C0A0A"/>
<path d="M427.112 308.864C425.477 308.977 423.958 308.47 422.418 308.025C413.798 305.531 405.03 303.75 396.129 302.622C395.818 302.582 395.488 302.506 395.219 302.89C397.52 310.55 396.768 318.286 395.183 326.295C403.918 327.179 411.252 329.249 419.549 332.35C420.388 332.665 422.172 333.214 421.96 334.339C421.63 336.091 419.449 334.987 418.839 334.855C411.974 333.362 406.269 331.677 399.32 330.578C396.489 330.13 393.618 329.936 390.532 329.601C391.261 331.277 392.47 332.303 393.541 333.409C395.714 335.652 397.937 337.842 399.972 340.22C404.914 345.993 406.25 352.661 404.94 359.985C404.487 362.518 403.697 364.94 402.093 367.029C401.814 367.393 401.536 367.759 401.252 368.12C400.885 368.588 400.51 369.05 400.12 369.5C399.727 369.955 399.32 370.4 398.881 370.811C398.528 371.142 398.149 371.471 397.716 371.693C397.624 371.739 397.545 371.781 397.461 371.838C397.386 371.889 397.38 371.979 397.349 372.06C397.31 372.16 397.271 372.259 397.233 372.359C397.155 372.557 397.075 372.756 396.994 372.953C396.832 373.349 396.662 373.741 396.48 374.128C396.311 374.49 396.131 374.847 395.939 375.198C395.678 375.674 396.428 376.129 396.761 376.558C397.466 377.466 397.729 378.423 397.041 379.428C396.307 380.502 395.287 380.284 394.236 379.97C393.604 379.781 393.073 379.458 392.555 379.074C392.197 378.807 391.788 378.817 391.449 379.088C391.029 379.422 391.301 379.787 391.484 380.132C391.748 380.625 392.065 381.099 392.262 381.618C392.664 382.683 392.139 383.505 391.371 384.143C390.53 384.842 389.493 384.547 389.019 383.844C387.791 382.021 385.716 380.781 383.503 381.646C383.284 381.732 383.063 381.818 382.83 381.852C382.385 381.918 381.913 381.781 381.573 381.485C381.078 381.054 381.154 380.427 380.765 379.951C380.422 379.532 379.969 379.229 379.501 378.965C378.613 378.463 377.585 378.084 376.99 377.203C376.354 376.261 375.991 375.187 375.78 374.09C375.567 372.977 375.384 371.973 374.352 371.199C373.421 370.5 373.248 369.287 373.165 368.148C373.117 367.484 373.085 366.956 372.185 366.81C370.988 366.616 370.65 365.553 370.347 364.531C369.564 361.881 369.858 359.205 370.788 356.74C371.626 354.516 371.151 353.212 369.227 352.028C368.08 351.322 353.483 338.052 350.941 335.498C347.611 332.151 345.136 328.274 344.082 323.601C342.295 315.685 346.922 305.606 353.404 301.419C356.901 299.16 360.766 298.576 364.583 297.629C367.777 296.836 371.06 296.717 374.362 296.952C380.511 297.39 386.677 297.629 392.818 298.153C404.092 299.116 415.114 301.444 425.942 304.702C426.624 304.907 427.257 305.275 427.913 305.567C428.732 307.579 428.711 307.663 427.112 308.864ZM379.965 374.889C380.139 374.819 380.238 374.812 380.276 374.76C380.552 374.379 380.815 373.989 381.086 373.604C383.773 369.787 387.374 367.275 391.902 366.157C392.822 365.93 393.744 365.908 394.664 366.139C395.53 366.357 396.337 366.673 397.205 366.234C397.568 366.05 397.876 365.772 398.162 365.481C399.02 364.608 399.997 363.436 400.294 362.238C400.675 360.698 400.865 359.013 400.969 357.432C401.337 351.885 400.181 346.781 396.228 342.568C391.304 337.319 386.342 332.101 381.958 326.372C381.181 325.358 380.272 324.445 379.452 323.462C378.994 322.912 378.409 322.285 378.958 321.55C379.47 320.866 380.307 321.088 380.961 321.322C381.622 321.558 382.239 321.972 382.804 322.402C383.567 322.982 384.331 323.59 384.97 324.298C385.997 325.435 387.093 325.723 388.692 325.702C391.1 325.671 391.136 325.853 391.656 323.049C392.844 316.637 393.08 310.18 392.239 303.687C392.062 302.313 391.43 302.019 390.218 301.964C386.7 301.807 383.189 301.458 379.671 301.355C373.42 301.172 367.179 301.381 361.003 302.468C354.059 303.689 350.015 308.1 348.402 314.696C346.7 321.659 349.061 327.703 353.783 332.754C359.311 338.666 365.512 343.883 371.699 349.095C372.09 349.424 372.437 349.957 373.169 349.688C373.422 348.305 373.652 346.901 373.957 345.513C374.015 345.254 374.336 344.947 374.599 344.866C374.908 344.77 375.145 345.078 375.319 345.362C375.914 346.333 376.254 347.385 376.345 348.517C376.508 350.539 376.296 352.474 375.454 354.376C374.209 357.191 373.505 360.15 373.547 363.28C374.135 363.243 374.22 362.912 374.358 362.633C375.221 360.889 376.468 359.427 377.804 358.043C378.283 357.546 378.834 356.887 379.637 357.549C380.261 358.063 380.055 358.67 379.731 359.278C379.206 360.264 378.676 361.249 378.204 362.261C377.61 363.538 376.756 364.733 376.721 366.471C377.605 365.888 378.11 365.143 378.955 364.875C379.78 364.612 380.548 364.551 381.165 365.235C381.73 365.863 381.563 366.566 381.197 367.244C380.856 367.877 380.482 368.497 380.184 369.15C379.329 371.026 379.086 372.928 379.965 374.889ZM389.808 373.535C389.833 372.355 390.886 371.464 392.647 371.97C393.746 372.285 393.937 371.795 394.076 371.024C394.287 369.86 393.545 369.168 392.104 369.438C387.803 370.246 384.765 372.824 382.701 376.584C382.102 377.674 382.411 378.513 383.3 378.763C384.306 379.045 384.822 378.772 385.039 377.567C385.29 376.175 386.299 375.738 387.54 376.104C389.912 376.804 389.912 376.804 389.806 374.298C389.803 374.218 389.806 374.138 389.808 373.535Z" fill="#0C0A0A"/>
<path d="M405.862 374.947C405.862 374.947 400.689 376.79 399.097 379.298C397.486 381.836 398.548 388.303 398.548 388.303L411.102 393.323L420.254 386.954L405.862 374.947Z" fill="white"/>
<path d="M411.504 378.496C414.343 376.739 417.268 375.77 420.426 375.445C422.444 375.237 424.374 375.381 426.35 375.903C430.808 377.082 434.877 378.987 438.673 381.611C440.293 382.732 442.197 383.459 444.01 384.281C454.369 388.977 464.987 392.93 476.097 395.485C479.052 396.165 481.969 397.001 485.2 397.064C485.341 396.148 485.224 395.326 485.064 394.476C483.828 387.938 481.902 381.586 479.708 375.325C478.334 371.406 477.26 367.371 475.432 363.612C475.158 363.049 475.018 362.394 474.942 361.767C474.849 360.993 475.157 360.32 475.913 360.007C476.577 359.733 477.157 360.017 477.664 360.476C478.34 361.087 478.661 361.921 479.052 362.704C482.063 368.739 484.375 375.035 486.082 381.556C486.263 382.246 486.47 382.928 486.747 383.905C491.129 381.03 495.606 378.863 500.947 379.673C505.942 380.43 510.766 381.619 514.84 384.838C515.42 383.853 515.101 383.14 515.002 382.452C513.297 370.523 509.582 359.248 503.898 348.626C501.655 344.434 498.677 340.766 495.585 337.179C490.793 331.622 485.406 326.766 479.137 322.918C478.865 322.751 478.595 322.572 478.353 322.366C477.635 321.754 477.153 321.024 477.576 320.055C477.997 319.09 478.857 318.967 479.796 319.028C481.297 319.126 482.543 319.859 483.759 320.627C487.431 322.944 490.81 325.678 493.88 328.709C497.236 332.023 500.377 335.57 503.238 339.346C508.683 346.53 512.091 354.707 514.929 363.164C518.58 374.045 520.182 385.251 520.087 396.705C520.036 402.753 518.938 408.646 517.138 414.412C517.021 414.789 516.073 417.487 515.647 418.571C513.893 423.03 510.497 426.075 506.984 429.211C502.278 433.413 496.845 433.864 491.082 433.747C477.588 433.471 465.092 429.639 453.325 423.186C450.1 421.418 446.699 420.01 443.442 418.289C437.991 415.409 432.674 412.317 427.487 408.998C426.322 408.253 425.183 407.959 423.871 408.354C422.443 408.785 420.996 408.632 419.584 408.373C417.556 408.001 416.015 406.96 415.536 404.794C415.177 403.175 414.649 401.837 412.706 401.426C411.687 401.211 411.08 400.178 410.86 399.087C410.685 398.224 410.509 397.36 410.391 396.489C410.259 395.521 409.891 394.931 408.811 394.706C407.193 394.369 405.904 393.38 404.944 392.038C404.426 391.312 403.902 391.097 402.953 391.174C397.9 391.585 394.911 388.452 395.435 383.43C395.897 379.002 400.01 374.353 404.306 373.406C406.505 372.92 408.423 373.689 409.707 375.609C410.282 376.469 410.803 377.365 411.504 378.496ZM488.086 388.665C488.588 390.608 489.153 392.269 489.48 394.003C489.702 395.179 489.111 396.671 489.928 397.45C490.83 398.311 492.372 397.793 493.627 397.947C495.277 398.149 496.086 398.79 496.158 399.979C496.236 401.27 495.396 402.024 493.63 402.247C493.472 402.266 493.31 402.264 493.151 402.277C489.535 402.562 485.935 402.307 482.409 401.564C473.882 399.766 465.431 397.668 457.275 394.53C448.833 391.283 440.62 387.613 432.965 382.697C426.393 378.477 419.527 377.925 412.667 382.286C410.514 383.655 408.79 385.392 407.892 387.817C407.425 389.078 407.924 390.127 409.145 390.828C410.262 391.468 411.109 391.204 411.75 390.111C411.869 389.909 412.06 389.746 412.229 389.576C414.201 387.603 416.556 386.298 419.253 385.628C420.778 385.249 421.862 385.711 422.249 386.806C422.613 387.836 422.142 388.755 420.84 389.483C420.353 389.755 419.834 389.972 419.326 390.205C418.23 390.709 417.147 391.27 416.282 392.101C414.965 393.367 413.97 394.896 413.493 396.669C413.283 397.446 413.43 398.315 414.396 398.648C415.265 398.947 415.724 398.363 416.134 397.739C417.343 395.898 418.914 394.434 420.805 393.322C421.771 392.755 422.773 392.24 423.935 392.213C424.705 392.195 425.353 392.43 425.727 393.164C426.095 393.887 425.993 394.609 425.496 395.186C424.979 395.786 424.359 396.308 423.737 396.805C422.483 397.807 421.243 398.813 420.266 400.106C419.677 400.885 419.228 401.715 419.098 402.699C418.97 403.67 419.328 404.232 420.348 404.327C421.559 404.439 422.737 404.332 423.896 403.948C425.11 403.546 426.318 403.103 427.562 402.822C429.464 402.391 430.686 403.458 430.186 405.264C429.92 406.224 430.144 406.523 430.867 406.922C434.363 408.853 437.711 411.032 441.25 412.906C446.552 415.714 452.015 418.169 457.423 420.742C464.072 423.906 470.932 426.583 478.177 428.045C483.849 429.189 489.63 429.322 495.398 429.279C496.893 429.267 498.424 428.938 499.871 428.521C502.344 427.806 504.757 426.713 506.55 424.901C509.198 422.224 511.432 419.143 512.719 415.545C515.506 407.758 516.698 399.738 515.935 391.464C515.873 390.799 515.818 390.177 515.159 389.835C513.178 388.805 511.334 387.359 509.104 387.007C502.042 385.894 495.089 386.527 488.086 388.665ZM399.319 383.527C399.106 385.539 399.65 386.265 401.639 386.638C402.029 386.711 402.45 386.728 402.8 386.891C403.717 387.319 404.09 386.845 404.395 386.081C405.145 384.199 406.289 382.564 407.831 381.271C408.778 380.477 408.948 379.84 407.994 378.977C407.524 378.552 407.137 378.035 406.709 377.562C406.17 376.967 405.56 376.865 404.773 377.098C402.267 377.84 399.592 380.945 399.319 383.527Z" fill="#0C0A0A"/>
<path d="M427.741 304.79C429.48 303.804 429.511 303.724 428.955 301.624C429.628 301.26 429.899 300.56 430.304 299.98C431.437 298.355 431.367 298.389 430.175 296.676C428.61 294.426 428.679 291.997 429.925 289.668C431.652 286.439 434.381 284.092 437.227 281.886C437.856 281.399 438.543 280.989 439.202 280.542C439.618 280.759 440.047 280.953 440.448 281.196C444.525 283.67 448.988 284.927 453.698 285.39C455.638 285.581 456.158 285.114 456.352 283.103C459.041 281.783 461.94 281.29 464.879 280.981C470.639 280.376 476.021 281.087 480.267 285.564C480.879 286.21 481.453 286.155 482.185 285.796C483.633 285.085 484.865 284.079 486.115 283.092C486.874 282.492 487.612 281.869 488.688 282.139C489.429 282.656 489.377 283.444 489.494 284.226C489.755 285.982 489.332 287.844 490.288 289.493C488.276 290.281 486.323 291.193 484.468 292.303C483.353 292.971 482.586 293.807 483.1 295.238C482.911 296.324 482.908 297.458 482.379 298.462C481.36 300.396 481.09 302.508 480.869 304.634C480.915 304.759 480.878 304.852 480.758 304.909C480.436 305.542 479.706 305.949 479.724 306.771C477.154 311.232 474.04 315.257 470.232 318.739C469.213 319.671 468.073 320.392 466.836 320.964C464.343 322.118 462.026 321.775 459.862 320.105C458.069 318.721 457.983 318.658 456.374 320.206C454.154 322.343 451.571 323.917 448.906 325.379C445.857 327.052 442.629 328.107 439.096 328.189C434.39 328.298 430.976 326.197 428.628 322.249C426.99 319.493 426.543 316.429 426.415 313.264C426.296 310.331 426.836 307.542 427.741 304.79ZM455.797 299.653C457.729 299.745 459.608 299.549 461.394 298.727C464.743 297.186 467.879 295.301 470.711 292.939C471.439 292.331 472.117 291.633 472.689 290.878C473.521 289.777 473.448 288.631 472.619 287.849C471.697 286.98 470.737 287.143 469.804 287.823C468.838 288.527 467.903 289.275 466.941 289.984C463.454 292.556 459.786 294.768 455.48 295.705C455.017 295.806 454.534 295.925 454.127 296.155C452.841 296.883 452.804 298.156 454.018 299.016C454.547 299.391 455.137 299.625 455.797 299.653Z" fill="#FDD433"/>
<path d="M490.288 289.481C489.332 287.833 489.755 285.97 489.494 284.215C489.377 283.432 489.429 282.645 488.687 282.128C489.17 280.972 488.627 279.913 488.293 278.873C486.527 273.37 484.359 268.052 480.877 263.367C481.252 262.316 481.965 261.451 482.43 260.432C484.049 256.885 484.266 253.068 484.813 249.309C488.88 249.533 492.957 249.641 497.012 250.006C503.723 250.611 510.319 251.856 516.559 254.507C521.244 256.497 525.061 259.6 527.642 264.041C529.92 267.961 529.534 271.402 526.703 274.909C524.554 277.571 521.804 279.488 518.988 281.323C516.644 282.85 514.23 284.268 511.866 285.765C511.406 286.057 511.037 286.491 510.627 286.859C503.741 286.907 496.914 287.42 490.288 289.481Z" fill="#ABC264"/>
<path d="M490.284 289.486C496.911 287.425 503.736 286.911 510.622 286.863C517.949 286.613 525.155 287.438 532.207 289.445C534.676 290.148 536.98 291.292 539.056 292.82C541.203 294.402 541.368 296.334 539.617 298.348C538.981 299.079 538.255 299.719 537.403 300.167C527.832 305.206 518.137 309.871 507.162 311.057C499.225 311.915 491.534 310.973 484.047 308.261C483.081 307.911 482.188 307.355 481.261 306.894C480.815 306.3 480.521 305.667 480.755 304.9C480.875 304.842 480.912 304.751 480.866 304.625C482.717 303.984 484.491 304.499 486.28 304.953C495.17 307.211 504.101 307.822 513.104 305.615C520.7 303.752 527.666 300.334 534.642 296.938C535.13 296.7 535.665 296.464 535.971 295.751C533.785 294.25 531.29 293.455 528.725 292.95C518.892 291.015 509.004 291.187 499.102 292.332C494.875 292.821 490.777 293.854 486.757 295.231C485.554 295.642 484.316 296.117 483.097 295.23C482.583 293.8 483.35 292.963 484.465 292.296C486.32 291.185 488.273 290.273 490.284 289.486Z" fill="#0C0A0A"/>
<path d="M456.358 283.1C456.165 285.111 455.644 285.578 453.704 285.388C448.994 284.924 444.532 283.667 440.454 281.193C440.054 280.95 439.624 280.756 439.208 280.539C436.942 278.428 434.505 276.496 432.56 274.049C431.659 272.916 430.838 271.745 430.204 270.447C429.78 269.578 429.497 268.66 429.48 267.687C429.41 263.679 432.809 261.34 436.489 262.92C438.322 263.707 440.017 264.777 441.674 265.893C442.259 266.287 442.749 266.842 443.614 267.02C449.114 257.842 456.439 251.45 467.955 251.823C469.942 252.898 469.942 252.898 469.119 254.283C467.477 254.604 465.824 254.879 464.193 255.25C456.435 257.016 451.417 262.123 447.687 268.81C447.307 269.49 447.472 269.798 448.073 270.112C451.489 271.901 454.894 273.717 458.976 272.821C459.285 272.754 459.602 272.694 459.917 272.686C460.462 272.672 460.839 273.001 461.025 273.463C461.254 274.033 460.818 274.351 460.406 274.597C459.021 275.421 457.573 276.046 455.914 276.086C453.794 276.135 451.801 275.631 449.841 274.874C446.461 273.568 443.361 271.764 440.403 269.691C438.697 268.495 436.903 267.432 435.014 266.559C433.986 266.085 433.491 266.563 433.69 267.67C433.821 268.401 434.201 269.012 434.611 269.605C438.88 275.771 444.384 280.093 451.99 281.328C453.561 281.584 455.144 281.915 456.358 283.1Z" fill="#0C0A0A"/>
<path d="M469.119 254.278C469.941 252.892 469.942 252.892 467.955 251.817C467.519 250.041 467.049 248.272 466.656 246.487C466.21 244.461 465.755 242.418 466.149 240.326C466.722 237.29 469.324 236.194 471.903 237.872C473.146 238.68 473.964 239.835 474.662 241.118C475.696 243.017 476.158 245.142 477.01 247.1C477.836 246.937 477.96 246.206 478.347 245.732C480.171 243.501 482.905 243.875 484.016 246.563C484.379 247.44 484.557 248.393 484.819 249.311C484.273 253.07 484.056 256.886 482.437 260.434C481.971 261.453 481.258 262.318 480.884 263.369C479.071 263.493 477.509 262.566 475.825 262.15C474.774 261.891 473.972 261.244 473.324 260.394C471.824 258.423 470.211 256.529 469.119 254.278Z" fill="#FDD433"/>
<path d="M455.798 299.652C455.138 299.624 454.548 299.389 454.019 299.015C452.804 298.154 452.843 296.881 454.129 296.153C454.535 295.923 455.018 295.804 455.481 295.703C459.787 294.766 463.455 292.554 466.942 289.982C467.904 289.273 468.839 288.526 469.805 287.821C470.738 287.142 471.697 286.979 472.62 287.848C473.449 288.629 473.522 289.775 472.689 290.876C472.118 291.631 471.439 292.33 470.712 292.937C467.88 295.3 464.744 297.185 461.395 298.725C459.609 299.547 457.73 299.743 455.798 299.652Z" fill="#0C0A0A"/>
<path d="M471.758 278.144C469.662 277.815 468.711 275.863 469.792 274.07C470.601 272.728 471.854 271.845 473.228 271.23C474.798 270.527 476.596 271.633 476.806 273.269C477.111 275.638 474.131 278.516 471.758 278.144Z" fill="#0C0A0A"/>
<path d="M462.98 264.528C462.803 266.357 459.674 268.727 457.867 268.402C455.922 268.053 455.002 265.962 456.185 264.388C457.227 263.002 458.699 262.184 460.435 262.049C461.949 261.932 463.113 263.148 462.98 264.528Z" fill="#0C0A0A"/>
<path d="M516.791 296.671C517.504 296.765 518.227 296.813 518.927 296.968C519.506 297.095 519.927 297.493 519.996 298.117C520.074 298.837 519.721 299.403 519.075 299.64C518.411 299.884 517.692 300.018 516.985 300.097C512.52 300.598 508.044 300.214 503.572 300.212C501.096 300.212 498.62 300.157 496.144 300.107C495.425 300.092 494.707 300.015 493.991 299.95C493.226 299.88 492.469 299.637 492.456 298.757C492.443 297.928 493.141 297.591 493.886 297.396C495.589 296.949 497.325 296.76 499.075 296.589C504.986 296.011 510.89 296.459 516.791 296.671Z" fill="#0C0A0A"/>
<path d="M629.943 408.771C633.338 409.192 636.7 409.132 640.057 409.186C640.942 409.2 641.83 409.174 642.542 409.842C643.098 410.363 643.378 410.982 643.367 411.759C643.26 418.862 644.003 425.93 644.282 433.017C644.587 440.774 645.3 448.525 644.8 456.301C644.642 458.751 644.19 459.252 641.82 459.351C631.981 459.765 622.143 460.26 612.3 460.522C608.955 460.612 605.588 460.177 602.243 459.863C590.289 458.739 578.302 457.952 566.382 456.477C565.905 456.417 565.419 456.403 564.952 456.303C562.95 455.875 562.437 455.181 562.663 453.093C563.484 445.534 564.341 437.98 565.153 430.42C565.708 425.245 566.247 420.068 566.716 414.884C566.883 413.041 567.354 411.446 568.922 410.307C569.885 409.607 569.965 407.946 571.558 407.904C572.757 407.873 573.954 407.757 575.153 407.728C577.231 407.676 577.253 407.69 577.057 405.591C576.804 402.885 576.747 400.164 576.146 397.487C575.693 395.472 576.249 393.507 576.939 391.613C577.424 390.282 578.413 389.571 579.848 389.484C581.845 389.363 583.839 389.099 585.844 389.247C586.812 389.318 587.47 389.292 587.641 388.011C587.929 385.858 589.481 384.908 591.516 384.773C597.193 384.395 602.871 384.137 608.546 384.855C611.368 385.212 613.584 386.439 614.664 389.175C615.084 390.239 615.763 390.338 616.72 390.299C620.478 390.146 624.25 390.183 627.997 389.891C632.274 389.557 633.951 393.428 633.382 396.361C632.713 399.811 631.758 403.199 630.421 406.46C630.148 407.127 629.774 407.744 629.943 408.771ZM567.284 452.426C580.786 453.434 594.154 454.431 607.701 455.442C607.549 452.719 607.374 450.262 607.283 447.803C606.991 439.881 606.786 431.957 607.107 424.031C607.13 423.469 607.152 422.901 607.442 422.4C607.876 421.648 608.519 421.21 609.412 421.294C610.299 421.377 610.905 421.872 611.112 422.742C611.242 423.283 611.293 423.85 611.315 424.408C611.442 427.687 611.659 430.969 611.641 434.248C611.604 441.05 612.374 447.849 611.697 454.652C611.611 455.512 611.59 456.199 612.865 456.137C621.737 455.707 630.611 455.346 639.483 454.936C641.522 454.842 641.501 454.798 641.307 452.636C640.594 444.664 640.158 436.672 639.729 428.68C639.497 424.364 639.18 420.052 638.945 415.736C638.889 414.704 638.649 414.14 637.432 414.14C634.952 414.139 632.467 414.045 629.995 413.852C628.737 413.754 628.273 414.296 628.071 415.396C627.737 417.205 627.431 419.025 626.967 420.802C626.622 422.125 626.75 423.184 627.583 424.336C628.769 425.978 629.113 427.844 628.093 429.762C627.223 431.396 624.841 432.402 623.161 431.852C621.85 431.422 620.96 429.736 621.072 427.882C621.117 427.152 621.376 426.506 621.709 425.847C622.312 424.65 623.071 423.491 623.1 422.075C623.147 419.827 623.485 417.613 623.842 415.398C624.103 413.784 624.074 413.753 622.497 413.704C617.056 413.534 611.615 413.387 606.174 413.221C595.135 412.884 584.093 412.644 573.074 411.824C572.373 411.772 571.656 411.465 571.225 411.709C570.289 425.362 568.812 438.788 567.284 452.426ZM604.478 408.226C607.796 408.192 612.194 408.337 616.592 408.584C618.987 408.719 621.393 408.672 623.793 408.72C624.555 408.736 625.233 408.696 625.433 407.744C626.289 403.673 627.518 399.683 628.11 395.556C628.327 394.042 628.234 393.934 626.623 393.933C623.422 393.931 620.219 394.053 617.02 393.989C615.692 393.963 614.825 394.168 614.232 395.544C613.462 397.332 611.94 398.368 609.971 398.663C604.141 399.536 598.309 399.004 592.486 398.61C590.747 398.492 589.321 397.666 588.507 395.938C587.999 394.861 588.465 393.144 587.387 392.726C586.324 392.314 584.899 392.834 583.633 392.94C583.234 392.973 582.833 392.974 582.435 393.019C580.615 393.222 580.067 393.739 580.454 395.488C581.222 398.953 581.431 402.448 581.487 405.975C581.514 407.692 581.594 407.704 583.232 407.742C589.952 407.9 596.673 408.049 604.478 408.226ZM605.944 388.579C601.688 388.579 597.787 388.565 593.887 388.583C591.507 388.595 591.507 388.618 591.414 390.949C591.408 391.109 591.406 391.268 591.404 391.428C591.379 394.023 591.585 394.451 594.192 395.028C596.913 395.63 599.711 395.751 602.502 395.738C603.651 395.733 604.825 395.845 606.118 395.46C605.008 393.169 604.899 391.01 605.944 388.579ZM609.022 391.881C609.072 392.656 609.228 393.502 609.597 394.304C609.726 394.585 609.761 394.931 610.15 394.972C610.536 395.013 610.685 394.703 610.846 394.439C611.061 394.084 611.09 393.818 610.758 393.425C609.559 392.004 609.564 391.953 610.958 390.674C611.335 390.329 611.41 390.062 611.145 389.704C610.873 389.339 610.483 389.293 610.103 389.542C609.299 390.068 609.041 390.872 609.022 391.881Z" fill="#0C0A0A"/>
<path d="M177.419 316.818C178.336 315.45 179.1 314.255 179.922 313.102C180.525 312.257 181.144 311.409 181.86 310.663C183.159 309.309 184.727 309.499 185.605 311.147C189.064 317.64 186.194 325.941 178.693 327.441C177.19 327.742 176.782 328.401 176.885 329.617C177.172 333.007 176.211 336.3 176.158 339.645C176.088 343.977 175.198 348.239 175.106 352.537C175.019 356.64 174.18 360.646 174.046 364.711C173.912 368.795 173.463 372.835 172.983 376.879C172.927 377.357 172.872 377.834 172.802 378.31C172.706 378.968 172.58 379.626 171.681 379.539C170.864 379.461 170.669 378.811 170.598 378.168C170.537 377.62 170.604 377.052 170.659 376.498C170.82 374.904 170.97 373.309 171.184 371.722C171.933 366.174 172.219 360.574 172.616 355.006C173.027 349.254 173.841 343.561 174.35 337.831C174.618 334.809 174.443 331.757 175 328.755C175.15 327.948 174.822 327.383 174.022 327.059C173.283 326.76 172.548 326.423 171.871 326.005C168.48 323.913 167.189 320.754 167.221 316.885C167.25 313.569 168.85 310.927 170.702 308.388C171.647 307.093 172.523 307.088 173.601 308.356C174.971 309.969 175.8 311.872 176.295 313.919C176.515 314.828 176.713 315.74 177.419 316.818Z" fill="#E6A7E6"/>
<path d="M179.701 352.945C177.249 352.621 176.445 350.8 177.865 348.93C179.135 347.259 180.87 346.018 182.66 345.025C185.506 343.445 188.498 342.116 191.779 341.607C192.755 341.455 193.686 341.449 194.576 341.889C196.146 342.664 196.448 344.14 195.196 345.367C194.289 346.256 193.271 347.052 192.217 347.764C188.962 349.962 185.438 351.618 181.647 352.659C180.974 352.843 180.268 353.116 179.701 352.945Z" fill="#E6A7E6"/>
<path d="M167.686 349.544C167.763 349.557 167.326 349.579 166.985 349.409C163.215 347.523 159.361 345.749 156.623 342.352C156.228 341.861 155.852 341.322 155.61 340.746C154.815 338.851 155.7 337.57 157.755 337.658C159.939 337.751 161.96 338.398 163.845 339.535C166.621 341.21 168.931 343.359 170.733 346.051C171.15 346.674 171.963 347.21 171.357 348.142C170.772 349.042 170.088 349.798 168.871 349.688C168.633 349.667 168.397 349.631 167.686 349.544Z" fill="#E6A7E6"/>
<path d="M193.145 329.001C194.91 329.148 195.566 330.354 194.771 331.894C194.043 333.303 192.71 334.127 191.473 334.964C187.933 337.363 184.091 338.978 179.721 339.123C178.971 339.148 178.505 338.978 178.122 338.392C177.708 337.76 177.843 337.184 178.267 336.627C178.46 336.374 178.624 336.091 178.849 335.871C182.669 332.125 187.192 329.789 192.52 329.073C192.756 329.042 192.993 329.018 193.145 329.001Z" fill="#E6A7E6"/>
<path d="M162.008 325.153C162.151 325.197 162.394 325.235 162.601 325.344C166.611 327.453 169.968 330.269 172.294 334.228C172.859 335.191 172.751 335.996 172.126 336.87C171.163 338.217 170.69 338.399 169.154 337.692C164.658 335.622 162.127 331.855 160.48 327.402C159.941 325.945 160.65 325.02 162.008 325.153Z" fill="#E6A7E6"/>
<g filter="url(#filter0_d_1_1373)">
<path d="M426.037 42.4697C393.174 42.4697 366.534 69.1102 366.534 101.973C366.534 134.834 393.174 161.474 426.037 161.474C458.899 161.474 485.539 134.834 485.539 101.971C485.539 69.1091 458.899 42.4697 426.037 42.4697Z" fill="white"/>
<path d="M444.651 86.9042C444.691 87.0029 444.691 87.1016 444.651 87.2004C444.597 87.2256 444.502 87.2417 444.496 87.2762C444.473 87.3887 444.576 87.3829 444.651 87.3967C444.698 87.5942 444.698 87.7928 444.649 87.9903C444.576 88.0236 444.575 88.0569 444.649 88.0913C444.66 88.2544 444.679 88.4186 444.679 88.5816C444.682 96.6887 444.684 104.796 444.68 112.903C444.68 113.245 444.745 113.595 444.602 113.927C444.554 113.966 444.477 113.995 444.461 114.044C443.921 115.693 442.466 116.49 440.916 116.49C430.908 116.485 420.901 116.492 410.894 116.482C409.832 116.48 408.933 116.086 408.204 115.265C407.959 114.989 407.895 114.56 407.499 114.418C407.227 113.912 407.285 113.37 407.321 112.829C407.513 112.656 407.428 112.426 407.429 112.223C407.433 106.472 407.432 100.722 407.433 94.9711C407.433 94.3752 407.482 94.3269 408.082 94.3235C409.346 94.3155 410.605 94.3258 411.866 94.1432C413.262 93.94 414.646 93.7081 415.997 93.2993C416.537 93.1363 416.536 93.1248 416.536 93.6725C416.537 98.0561 416.536 102.439 416.539 106.822C416.539 107.012 416.468 107.222 416.636 107.386C416.786 107.486 416.956 107.448 417.117 107.449C423.003 107.451 428.891 107.445 434.778 107.462C435.25 107.463 435.341 107.314 435.339 106.877C435.325 101.782 435.33 96.6864 435.331 91.5909C435.331 90.5645 435.331 90.5645 434.351 90.4818C434.261 90.3521 434.124 90.3681 433.993 90.3681C432.91 90.367 431.825 90.367 430.741 90.3681C430.611 90.3681 430.473 90.3509 430.384 90.4818C429.132 90.5243 427.88 90.5243 426.628 90.4818C426.491 90.305 426.295 90.3727 426.123 90.3716C425.301 90.3647 424.478 90.3739 423.656 90.3647C423.505 90.3635 423.28 90.4623 423.223 90.2579C423.181 90.1109 423.378 90.0329 423.501 89.9502C423.854 89.7137 424.214 89.4841 424.551 89.2257C426.013 88.1074 427.331 86.8307 428.647 85.5459C430.188 84.0407 431.404 82.3093 432.457 80.4447C432.569 80.2472 432.59 80.0578 432.4 79.9866C431.986 79.8327 431.805 79.4286 431.48 79.207C430.875 78.7948 431.059 78.1151 430.839 77.5778C430.838 77.5743 430.946 77.5261 431.003 77.4985C431.341 78.0439 431.75 78.525 432.272 78.905C432.3 78.9326 432.327 78.959 432.356 78.9865C432.372 79.0072 432.378 79.0302 432.375 79.0566C432.516 79.5112 432.97 79.6639 433.257 79.9785C434.129 80.9407 435.09 81.811 436.011 82.7215C436.772 83.4735 437.694 84.0223 438.436 84.7916C438.66 85.0235 438.944 85.2038 439.168 85.4449C439.502 85.8042 439.931 85.5987 440.315 85.6619C440.602 85.7089 440.777 85.6619 440.858 85.4081C440.935 85.1659 441.09 85.1211 441.307 85.1222C442.13 85.1268 442.954 85.1291 443.777 85.1211C444.016 85.1188 444.106 85.1946 444.158 85.446C444.259 85.9466 444.238 86.5023 444.651 86.9042Z" fill="#00A051"/>
<path d="M431.004 77.4949C430.947 77.5225 430.839 77.5707 430.841 77.5742C431.06 78.1115 430.875 78.7912 431.481 79.2034C431.807 79.425 431.988 79.828 432.401 79.983C432.592 80.0541 432.57 80.2436 432.458 80.4411C431.405 82.3045 430.19 84.0371 428.648 85.5423C427.332 86.8271 426.014 88.1038 424.552 89.2221C424.215 89.4804 423.855 89.7101 423.502 89.9466C423.379 90.0293 423.182 90.1062 423.224 90.2543C423.281 90.4587 423.506 90.3599 423.657 90.3611C424.479 90.3703 425.302 90.3622 426.124 90.368C426.296 90.3691 426.491 90.3014 426.629 90.4782C426.449 90.4874 426.269 90.5046 426.088 90.5046C423.123 90.5057 420.157 90.5161 417.191 90.4931C416.723 90.4897 416.628 90.6332 416.629 91.0729C416.643 96.5106 416.637 101.947 416.636 107.385C416.469 107.22 416.54 107.01 416.539 106.821C416.535 102.437 416.536 98.0548 416.536 93.6712C416.536 93.1235 416.537 93.135 415.997 93.298C414.647 93.7056 413.262 93.9387 411.866 94.1419C410.604 94.3256 409.346 94.3142 408.082 94.3222C407.481 94.3268 407.433 94.3739 407.433 94.9697C407.432 100.721 407.433 106.471 407.429 112.222C407.429 112.425 407.514 112.655 407.321 112.828C407.31 112.681 407.292 112.534 407.292 112.386C407.294 97.9492 407.299 83.5124 407.297 69.0756C407.297 68.4154 407.434 67.8023 407.75 67.2259C407.876 67.196 407.93 67.1191 407.899 66.9894C407.913 66.9676 407.927 66.9457 407.941 66.9239C408.069 66.9067 408.127 66.8332 408.114 66.7046C408.144 66.6679 408.174 66.63 408.204 66.5933C408.27 66.5967 408.301 66.5657 408.296 66.498L408.304 66.4899C408.371 66.4957 408.401 66.4658 408.394 66.3981L408.401 66.39C408.612 66.3969 408.734 66.2936 408.773 66.0881L408.793 66.0732C408.858 66.0961 408.891 66.0709 408.897 66.0043C408.963 65.9664 409.027 65.9273 409.092 65.8894C409.157 65.9113 409.193 65.8837 409.213 65.824C409.238 65.8114 409.262 65.7976 409.288 65.7827C409.35 65.8091 409.387 65.7838 409.413 65.7276C409.439 65.7172 409.467 65.7069 409.493 65.6977C410.662 65.4371 411.848 65.537 413.027 65.5312C415.548 65.5186 418.07 65.5209 420.591 65.5209C423.953 65.522 427.315 65.5278 430.676 65.5324C430.689 65.5553 430.699 65.5794 430.71 65.6036C430.701 65.7666 430.684 65.9308 430.683 66.0938C430.682 69.2019 430.691 72.311 430.675 75.4191C430.674 76.1367 430.732 76.829 431.004 77.4949Z" fill="#00A55A"/>
<path d="M431.004 77.495C430.731 76.8291 430.674 76.1368 430.678 75.4215C430.694 72.3134 430.683 69.2043 430.686 66.0962C430.686 65.9332 430.703 65.769 430.712 65.606C430.901 65.6151 430.989 65.7724 431.101 65.8838C435.5 70.2583 439.897 74.6338 444.292 79.0129C444.427 79.1472 444.619 79.2448 444.641 79.4687C441.833 79.4653 439.023 79.4607 436.215 79.4595C434.921 79.4584 433.618 79.5422 432.376 79.0519C432.379 79.0267 432.373 79.0025 432.357 78.983C432.33 78.9555 432.302 78.9291 432.273 78.9015C431.751 78.5226 431.342 78.0404 431.004 77.495Z" fill="#72D1AA"/>
<path d="M444.651 86.904C444.238 86.5021 444.26 85.9464 444.159 85.4436C444.109 85.191 444.018 85.1163 443.778 85.1186C442.955 85.1267 442.131 85.1244 441.308 85.1198C441.091 85.1186 440.936 85.1634 440.859 85.4057C440.778 85.6594 440.602 85.7065 440.316 85.6594C439.932 85.5963 439.503 85.8018 439.169 85.4424C438.945 85.2013 438.659 85.021 438.437 84.7891C437.695 84.0199 436.773 83.471 436.012 82.719C435.091 81.8085 434.13 80.9371 433.259 79.9761C434.553 80.2172 435.857 80.2953 437.174 80.2792C439.183 80.2551 441.193 80.2769 443.203 80.27C443.696 80.2677 444.187 80.2608 444.649 80.4698C444.7 82.6145 444.698 84.7593 444.651 86.904Z" fill="#009250"/>
<path d="M394.052 130.061C394.695 130.061 395.339 130.081 395.981 130.053C396.349 130.035 396.457 130.171 396.488 130.525C396.778 133.832 394.108 136.186 390.748 135.571C388.658 135.187 386.956 133.499 386.583 131.439C386.21 129.381 387.193 127.251 389.019 126.162C390.895 125.042 393.186 125.181 394.865 126.495C395.163 126.728 395.23 126.879 394.918 127.172C394.289 127.764 394.307 127.782 393.553 127.342C392.234 126.573 390.576 126.709 389.389 127.685C388.203 128.661 387.766 130.362 388.314 131.867C388.837 133.297 390.163 134.217 391.704 134.219C393.331 134.222 394.566 133.372 394.923 132.036C395.03 131.635 394.98 131.465 394.514 131.483C393.707 131.514 392.899 131.482 392.091 131.496C391.8 131.501 391.691 131.419 391.685 131.108C391.666 130.063 391.653 130.063 392.717 130.063C393.161 130.061 393.606 130.061 394.052 130.061Z" fill="#747474"/>
<path d="M417.715 132.852C417.652 133.798 417.834 134.972 417.624 136.133C417.381 137.473 416.512 138.354 415.281 138.548C413.772 138.785 412.469 138.201 411.812 137.018C411.649 136.724 411.688 136.572 412.006 136.475C412.148 136.433 412.287 136.374 412.415 136.302C412.744 136.118 412.946 136.17 413.174 136.511C413.664 137.242 414.504 137.458 415.315 137.141C415.942 136.897 416.376 136.099 416.328 135.31C416.312 135.054 416.243 135.042 416.033 135.162C414.582 135.987 413.096 135.707 412.086 134.427C411.111 133.192 411.163 131.341 412.18 130.183C413.302 128.906 415.01 128.737 416.039 129.535C416.112 129.591 416.22 129.749 416.304 129.563C416.362 129.433 416.336 129.26 416.551 129.264C416.896 129.271 417.244 129.249 417.585 129.291C417.78 129.315 417.712 129.531 417.713 129.667C417.717 130.655 417.715 131.644 417.715 132.852ZM414.67 134.316C415.664 134.314 416.413 133.49 416.423 132.382C416.435 131.276 415.654 130.381 414.671 130.374C413.664 130.366 412.851 131.267 412.858 132.381C412.866 133.487 413.645 134.317 414.67 134.316Z" fill="#747474"/>
<path d="M433.088 135.664C431.662 135.691 430.357 134.823 429.897 133.642C429.779 133.339 429.789 133.141 430.141 133.057C430.221 133.039 430.303 133.012 430.372 132.97C430.695 132.771 430.86 132.839 431.024 133.206C431.446 134.149 432.256 134.605 433.194 134.505C433.958 134.424 434.532 133.978 434.654 133.373C434.796 132.662 434.494 132.056 433.744 131.686C433.303 131.469 432.827 131.321 432.361 131.157C431.892 130.992 431.432 130.814 431.031 130.513C429.772 129.57 429.771 127.833 431.025 126.88C432.388 125.845 434.558 126.24 435.424 127.666C435.635 128.013 435.617 128.183 435.205 128.349C434.794 128.514 434.564 128.571 434.264 128.108C433.716 127.258 432.277 127.219 431.606 127.956C431.157 128.45 431.199 129.103 431.715 129.524C432.106 129.844 432.575 130.004 433.046 130.16C433.625 130.353 434.2 130.554 434.718 130.89C435.61 131.467 435.996 132.294 435.892 133.334C435.789 134.373 435.183 135.045 434.23 135.418C433.829 135.577 433.409 135.666 433.088 135.664Z" fill="#757575"/>
<path d="M403.585 132.372C403.582 134.23 402.155 135.659 400.296 135.666C398.415 135.673 396.96 134.233 396.959 132.363C396.959 130.485 398.402 129.047 400.283 129.05C402.183 129.054 403.587 130.467 403.585 132.372ZM400.272 134.316C401.325 134.318 402.122 133.47 402.117 132.35C402.113 131.246 401.339 130.411 400.309 130.399C399.249 130.387 398.439 131.224 398.432 132.337C398.424 133.449 399.227 134.312 400.272 134.316Z" fill="#747474"/>
<path d="M424.083 135.666C422.169 135.646 420.737 134.127 420.814 132.196C420.887 130.325 422.331 128.954 424.118 129.057C425.373 129.13 426.527 130.094 426.85 131.306C426.935 131.623 426.705 131.635 426.544 131.703C425.389 132.187 424.228 132.659 423.072 133.139C422.498 133.377 422.484 133.48 422.954 133.91C423.591 134.495 424.699 134.499 425.338 133.836C425.684 133.475 425.906 133.496 426.273 133.764C426.941 134.25 426.96 134.251 426.341 134.807C425.698 135.382 424.946 135.673 424.083 135.666ZM422.293 132.223C423.147 131.871 423.953 131.543 424.755 131.209C424.889 131.154 425.094 131.131 425.11 130.977C425.131 130.781 424.94 130.665 424.788 130.575C424.239 130.254 423.683 130.278 423.151 130.611C422.581 130.967 422.296 131.487 422.293 132.223Z" fill="#747474"/>
<path d="M404.17 132.348C404.171 130.473 405.62 129.04 407.506 129.05C409.398 129.061 410.803 130.486 410.797 132.388C410.792 134.232 409.347 135.664 407.49 135.666C405.612 135.669 404.169 134.225 404.17 132.348ZM407.468 134.316C408.523 134.32 409.315 133.49 409.324 132.371C409.333 131.264 408.533 130.388 407.502 130.375C406.477 130.363 405.654 131.231 405.643 132.336C405.632 133.452 406.423 134.31 407.468 134.316Z" fill="#747474"/>
<path d="M453.362 132.621C452.67 132.621 451.978 132.63 451.287 132.618C451.011 132.613 450.945 132.712 451.003 132.971C451.188 133.784 451.658 134.321 452.474 134.53C453.201 134.716 453.909 134.45 454.385 133.822C454.584 133.557 454.975 133.581 455.401 133.893C455.709 134.119 455.436 134.31 455.328 134.468C454.647 135.471 453.322 135.899 452.029 135.558C450.817 135.239 449.924 134.181 449.803 132.884C449.685 131.612 449.98 130.467 451.062 129.689C452.091 128.947 453.228 128.922 454.328 129.52C455.41 130.108 455.758 131.134 455.796 132.304C455.805 132.582 455.674 132.63 455.437 132.627C454.745 132.614 454.053 132.62 453.362 132.621ZM452.744 131.639C453.219 131.639 453.696 131.626 454.17 131.644C454.517 131.657 454.558 131.531 454.437 131.237C454.169 130.585 453.549 130.202 452.74 130.213C452.025 130.224 451.371 130.689 451.142 131.321C451.053 131.569 451.115 131.646 451.367 131.642C451.825 131.632 452.285 131.639 452.744 131.639Z" fill="#757575"/>
<path d="M446.739 132.621C446.08 132.621 445.421 132.642 444.763 132.613C444.374 132.596 444.32 132.743 444.411 133.072C444.628 133.859 445.116 134.379 445.914 134.54C446.668 134.691 447.308 134.467 447.773 133.815C448.148 133.289 448.491 133.792 448.792 133.91C449.147 134.05 448.816 134.305 448.715 134.455C447.543 136.191 444.686 136.038 443.616 134.192C442.546 132.348 443.388 129.839 445.272 129.258C447.31 128.63 449.235 130.113 449.178 132.251C449.168 132.575 449.043 132.63 448.765 132.623C448.089 132.611 447.414 132.62 446.739 132.621ZM446.163 131.639C446.622 131.639 447.081 131.628 447.54 131.643C447.862 131.654 447.954 131.564 447.823 131.246C447.548 130.582 446.9 130.185 446.08 130.213C445.367 130.237 444.719 130.725 444.509 131.363C444.426 131.618 444.539 131.643 444.737 131.641C445.212 131.637 445.687 131.639 446.163 131.639Z" fill="#757575"/>
<path d="M436.898 130.964C436.898 129.646 436.93 128.328 436.883 127.011C436.864 126.452 437.154 126.515 437.517 126.493C437.94 126.467 438.103 126.582 438.082 127.035C438.043 127.857 438.065 128.682 438.062 129.505C438.062 129.616 438.02 129.755 438.122 129.828C438.248 129.916 438.328 129.777 438.41 129.71C439.221 129.063 440.118 128.951 441.056 129.35C442.001 129.752 442.286 130.603 442.322 131.528C442.368 132.712 442.329 133.899 442.34 135.085C442.343 135.365 442.237 135.45 441.965 135.46C441.158 135.49 441.168 135.501 441.156 134.693C441.138 133.624 441.23 132.552 441.102 131.485C441.014 130.763 440.693 130.4 440.077 130.257C439.401 130.1 438.77 130.345 438.403 130.919C438.176 131.275 438.069 131.665 438.073 132.091C438.08 133.062 438.046 134.035 438.084 135.006C438.106 135.571 437.748 135.442 437.439 135.457C437.123 135.472 436.879 135.487 436.89 135.016C436.92 133.666 436.898 132.316 436.898 130.964Z" fill="#747474"/>
<path d="M463.027 129.133C463.915 129.144 464.673 129.419 465.199 130.185C465.384 130.455 465.346 130.598 465.029 130.74C464.634 130.914 464.356 130.993 464.024 130.568C463.679 130.126 462.753 130.077 462.222 130.353C461.97 130.484 461.804 130.671 461.815 130.974C461.826 131.262 462.001 131.442 462.247 131.518C462.75 131.672 463.263 131.792 463.774 131.921C464.895 132.203 465.536 132.897 465.494 133.787C465.45 134.708 464.734 135.422 463.649 135.622C462.405 135.851 461.21 135.356 460.613 134.346C460.521 134.191 460.28 134.012 460.579 133.806C461.017 133.504 461.396 133.48 461.594 133.757C462.125 134.501 462.841 134.775 463.6 134.519C463.965 134.396 464.252 134.196 464.253 133.756C464.254 133.332 463.97 133.136 463.626 133.029C463.202 132.897 462.766 132.809 462.334 132.703C461.946 132.608 461.578 132.466 461.256 132.226C460.303 131.516 460.364 130.224 461.377 129.573C461.822 129.285 462.397 129.132 463.027 129.133Z" fill="#757575"/>
<path d="M457.144 132.241C457.144 131.78 457.124 131.317 457.149 130.858C457.169 130.504 457.031 130.403 456.693 130.412C456.158 130.426 455.893 129.983 456.117 129.489C456.231 129.239 456.467 129.34 456.641 129.351C457.017 129.377 457.195 129.268 457.149 128.859C457.118 128.582 457.175 128.295 457.137 128.021C457.071 127.542 457.282 127.438 457.716 127.461C458.341 127.494 458.342 127.47 458.343 128.109C458.344 129.29 458.344 129.311 459.483 129.333C459.914 129.341 459.868 129.59 459.853 129.852C459.838 130.1 459.986 130.466 459.496 130.42C459.48 130.419 459.463 130.42 459.447 130.42C458.343 130.452 458.343 130.452 458.343 131.547C458.343 132.19 458.331 132.833 458.348 133.474C458.37 134.29 458.653 134.519 459.457 134.463C460.012 134.424 459.875 134.958 460.008 135.231C460.159 135.54 459.79 135.492 459.64 135.521C458.137 135.823 457.162 135.019 457.145 133.479C457.14 133.064 457.144 132.653 457.144 132.241Z" fill="#747474"/>
<path d="M418.692 130.587C418.692 129.138 418.704 127.69 418.684 126.241C418.679 125.876 418.779 125.753 419.154 125.764C420.325 125.803 420.121 125.62 420.126 126.717C420.138 129.466 420.123 132.215 420.139 134.964C420.141 135.356 420.027 135.47 419.639 135.463C418.692 135.446 418.692 135.464 418.692 134.536C418.692 133.219 418.692 131.904 418.692 130.587Z" fill="#717171"/>
<path d="M407.499 114.418C407.895 114.561 407.959 114.989 408.204 115.264C408.933 116.084 409.832 116.48 410.894 116.481C420.901 116.491 430.908 116.485 440.916 116.489C442.466 116.491 443.921 115.694 444.461 114.044C444.477 113.995 444.554 113.965 444.602 113.927C444.407 115.458 442.941 116.753 441.35 116.783C440.542 116.798 439.734 116.786 438.926 116.786C429.562 116.786 420.198 116.786 410.834 116.786C409.265 116.784 407.856 115.783 407.499 114.418Z" fill="#058F57"/>
<path d="M444.648 80.4699C444.186 80.2609 443.696 80.2678 443.202 80.2701C441.192 80.277 439.182 80.2552 437.173 80.2793C435.856 80.2954 434.551 80.2173 433.257 79.9762C432.97 79.6616 432.516 79.5089 432.375 79.0542C433.617 79.5433 434.919 79.4606 436.214 79.4618C439.022 79.4641 441.832 79.4687 444.64 79.471C444.698 79.8028 444.694 80.1358 444.648 80.4699Z" fill="#008350"/>
<path d="M430.679 65.5348C427.317 65.5314 423.955 65.5245 420.593 65.5233C418.072 65.5222 415.551 65.521 413.029 65.5337C411.849 65.5394 410.663 65.4395 409.495 65.7002C409.788 65.4418 410.154 65.4166 410.511 65.4166C417.105 65.4097 423.699 65.4097 430.292 65.4108C430.426 65.412 430.598 65.3454 430.679 65.5348Z" fill="#72D1AA"/>
<path d="M408.774 66.0918C408.735 66.2973 408.614 66.4018 408.402 66.3938C408.456 66.2066 408.584 66.109 408.774 66.0918Z" fill="#72D1AA"/>
<path d="M444.651 87.3955C444.577 87.3818 444.474 87.3887 444.496 87.275C444.502 87.2406 444.597 87.2233 444.651 87.1992C444.651 87.2647 444.651 87.3301 444.651 87.3955Z" fill="#009250"/>
<path d="M407.901 66.9917C407.932 67.1214 407.878 67.1972 407.751 67.2282C407.723 67.0996 407.777 67.0238 407.901 66.9917Z" fill="#72D1AA"/>
<path d="M408.115 66.707C408.128 66.8356 408.07 66.9091 407.942 66.9263C407.924 66.7931 407.982 66.7208 408.115 66.707Z" fill="#72D1AA"/>
<path d="M444.651 88.0903C444.577 88.057 444.577 88.0226 444.651 87.9893C444.651 88.0226 444.651 88.057 444.651 88.0903Z" fill="#009250"/>
<path d="M408.297 66.5005C408.304 66.5682 408.273 66.5992 408.205 66.5958C408.236 66.5636 408.266 66.5326 408.297 66.5005Z" fill="#72D1AA"/>
<path d="M408.395 66.4019C408.402 66.4685 408.372 66.4995 408.305 66.4937C408.306 66.434 408.336 66.403 408.395 66.4019Z" fill="#72D1AA"/>
<path d="M408.898 66.0078C408.893 66.0744 408.859 66.1008 408.794 66.0767C408.829 66.0537 408.864 66.0308 408.898 66.0078Z" fill="#72D1AA"/>
<path d="M409.214 65.8278C409.195 65.8875 409.158 65.9151 409.094 65.8933C409.114 65.8347 409.156 65.8141 409.214 65.8278Z" fill="#72D1AA"/>
<path d="M409.414 65.731C409.389 65.7872 409.35 65.8125 409.289 65.7861C409.331 65.7677 409.373 65.7493 409.414 65.731Z" fill="#72D1AA"/>
<path d="M416.635 107.385C416.636 101.947 416.641 96.5109 416.628 91.0733C416.626 90.6335 416.722 90.49 417.19 90.4934C420.156 90.5164 423.122 90.5061 426.087 90.5049C426.268 90.5049 426.448 90.4877 426.628 90.4785C427.88 90.5221 429.132 90.521 430.384 90.4785C431.705 90.5256 433.028 90.5244 434.349 90.4785C435.33 90.5612 435.33 90.5612 435.33 91.5876C435.33 96.6831 435.324 101.779 435.338 106.874C435.339 107.31 435.248 107.461 434.776 107.459C428.89 107.441 423.002 107.448 417.116 107.446C416.955 107.447 416.785 107.485 416.635 107.385ZM430.044 105.109C430.882 105.109 431.721 105.093 432.559 105.117C432.914 105.128 433.007 105.003 432.997 104.666C432.975 103.976 432.975 103.285 432.996 102.595C433.006 102.261 432.874 102.179 432.564 102.182C430.903 102.193 429.242 102.192 427.581 102.182C427.276 102.179 427.127 102.261 427.134 102.595C427.15 103.302 427.154 104.009 427.133 104.716C427.123 105.061 427.277 105.12 427.576 105.114C428.398 105.098 429.222 105.108 430.044 105.109ZM421.882 105.108C422.738 105.108 423.595 105.099 424.45 105.114C424.732 105.119 424.822 105.021 424.816 104.744C424.801 104.02 424.799 103.295 424.815 102.571C424.822 102.259 424.688 102.18 424.402 102.182C422.722 102.191 421.042 102.194 419.363 102.182C419.047 102.179 418.972 102.303 418.979 102.59C418.994 103.298 419.002 104.007 418.977 104.714C418.964 105.062 419.11 105.12 419.411 105.114C420.235 105.098 421.058 105.108 421.882 105.108ZM421.903 92.8403C421.064 92.8403 420.225 92.8506 419.385 92.8345C419.096 92.8288 418.971 92.9011 418.979 93.2169C418.999 93.9402 418.997 94.6658 418.979 95.3892C418.971 95.7049 419.102 95.7749 419.388 95.7738C421.05 95.7646 422.713 95.7623 424.374 95.7761C424.73 95.7795 424.827 95.6429 424.817 95.3111C424.798 94.6371 424.796 93.9609 424.816 93.2869C424.827 92.9482 424.721 92.8242 424.371 92.8334C423.55 92.8552 422.727 92.8403 421.903 92.8403ZM421.874 97.5213C421.033 97.5213 420.193 97.5293 419.353 97.5167C419.074 97.5121 418.976 97.6085 418.981 97.8875C418.995 98.612 418.997 99.3377 418.979 100.062C418.971 100.378 419.105 100.448 419.391 100.447C421.055 100.438 422.719 100.438 424.382 100.448C424.697 100.45 424.827 100.353 424.819 100.024C424.801 99.3491 424.797 98.6729 424.82 97.9989C424.832 97.6372 424.718 97.5041 424.344 97.5144C423.521 97.5362 422.697 97.5201 421.874 97.5213ZM430.076 97.5213C429.235 97.5213 428.394 97.5293 427.553 97.5167C427.263 97.5121 427.136 97.6062 427.141 97.9128C427.155 98.6212 427.155 99.3308 427.141 100.039C427.136 100.345 427.262 100.439 427.552 100.439C429.233 100.433 430.915 100.435 432.596 100.447C432.895 100.449 433.001 100.343 432.995 100.043C432.978 99.3342 432.978 98.6246 432.993 97.9162C433 97.6177 432.9 97.5098 432.597 97.5155C431.758 97.5316 430.918 97.5213 430.076 97.5213Z" fill="#D8EAE2"/>
<path d="M434.35 90.4793C433.029 90.5252 431.706 90.5252 430.385 90.4793C430.474 90.3495 430.611 90.3668 430.742 90.3656C431.826 90.3645 432.911 90.3645 433.995 90.3656C434.123 90.3656 434.261 90.3484 434.35 90.4793Z" fill="#00A55A"/>
<path d="M432.273 78.9014C432.301 78.9289 432.329 78.9553 432.357 78.9829C432.33 78.9565 432.301 78.9289 432.273 78.9014Z" fill="#008350"/>
<path d="M430.044 105.109C429.222 105.109 428.4 105.099 427.578 105.115C427.278 105.121 427.124 105.062 427.134 104.717C427.155 104.011 427.152 103.302 427.135 102.596C427.127 102.261 427.277 102.18 427.582 102.183C429.244 102.192 430.904 102.193 432.565 102.183C432.875 102.18 433.007 102.262 432.997 102.596C432.976 103.286 432.976 103.977 432.998 104.667C433.008 105.003 432.915 105.129 432.561 105.118C431.721 105.092 430.882 105.109 430.044 105.109Z" fill="#04A156"/>
<path d="M421.882 105.108C421.058 105.108 420.235 105.097 419.412 105.114C419.111 105.119 418.965 105.061 418.978 104.714C419.003 104.007 418.995 103.298 418.98 102.59C418.974 102.303 419.048 102.179 419.364 102.181C421.043 102.193 422.723 102.19 424.403 102.181C424.689 102.18 424.823 102.257 424.816 102.57C424.8 103.295 424.803 104.019 424.817 104.744C424.823 105.021 424.732 105.118 424.451 105.114C423.595 105.099 422.738 105.108 421.882 105.108Z" fill="#04A156"/>
<path d="M421.903 92.8399C422.727 92.8399 423.55 92.8548 424.372 92.833C424.722 92.8238 424.828 92.9478 424.817 93.2865C424.797 93.9605 424.799 94.6367 424.819 95.3107C424.828 95.6425 424.731 95.7791 424.375 95.7757C422.713 95.7608 421.05 95.7642 419.389 95.7734C419.103 95.7745 418.972 95.7045 418.98 95.3888C418.999 94.6654 419 93.9398 418.98 93.2165C418.972 92.9007 419.097 92.8284 419.387 92.8341C420.225 92.8502 421.064 92.8399 421.903 92.8399Z" fill="#04A359"/>
<path d="M430.118 92.8399C430.942 92.8399 431.765 92.8548 432.587 92.833C432.937 92.8238 433.043 92.9478 433.032 93.2865C433.012 93.9605 433.014 94.6367 433.034 95.3107C433.043 95.6425 432.946 95.7791 432.59 95.7757C430.928 95.7608 429.265 95.7642 427.604 95.7734C427.318 95.7745 427.187 95.7045 427.195 95.3888C427.214 94.6654 427.215 93.9398 427.195 93.2165C427.187 92.9007 427.312 92.8284 427.602 92.8341C428.439 92.8502 429.278 92.8399 430.118 92.8399Z" fill="#04A359"/>
<path d="M421.874 97.5213C422.697 97.5213 423.521 97.5374 424.344 97.5132C424.718 97.5029 424.832 97.6361 424.82 97.9978C424.797 98.6729 424.801 99.3492 424.819 100.023C424.827 100.352 424.698 100.449 424.382 100.447C422.719 100.436 421.055 100.436 419.391 100.446C419.105 100.447 418.972 100.377 418.979 100.061C418.997 99.3365 418.994 98.6109 418.981 97.8864C418.976 97.6074 419.074 97.511 419.353 97.5155C420.193 97.5293 421.033 97.5213 421.874 97.5213Z" fill="#06A257"/>
<path d="M430.076 97.5211C430.916 97.5211 431.758 97.5314 432.598 97.5154C432.902 97.5096 433.001 97.6175 432.995 97.9161C432.978 98.6245 432.978 99.334 432.996 100.042C433.003 100.342 432.896 100.448 432.597 100.447C430.916 100.435 429.234 100.434 427.553 100.439C427.263 100.44 427.137 100.344 427.142 100.039C427.156 99.3306 427.157 98.621 427.142 97.9126C427.137 97.6049 427.263 97.5119 427.555 97.5165C428.395 97.528 429.235 97.5211 430.076 97.5211Z" fill="#06A257"/>
</g>
<g clip-path="url(#clip0_1_1373)" filter="url(#filter1_d_1_1373)">
<path d="M34 134C34 98.6538 62.6538 70 98 70C133.346 70 162 98.6538 162 134C162 169.346 133.346 198 98 198C62.6537 198 34 169.346 34 134Z" fill="white"/>
<path d="M96.7461 119.82V137.767H81.714L96.7461 119.82ZM96.7461 113.381C96.7461 117.483 93.3859 120.805 89.2381 120.805C85.0902 120.805 81.714 117.483 81.714 113.381H96.7461ZM99.2218 137.767C99.2218 133.666 102.582 130.343 106.73 130.343C110.878 130.343 114.238 133.666 114.238 137.767H99.2218ZM99.2218 131.329V113.381H114.254L99.2218 131.329ZM107.63 153.108C108.402 153.124 109.157 152.837 109.72 152.313L110.749 153.41C110.074 154.109 109.125 154.618 107.646 154.618C105.122 154.618 103.498 152.965 103.498 150.723C103.45 148.609 105.154 146.876 107.276 146.829H107.405C109.913 146.829 111.328 148.704 111.199 151.327H105.299C105.508 152.424 106.28 153.124 107.63 153.108ZM109.431 150.103C109.27 149.086 108.659 148.339 107.437 148.339C106.296 148.339 105.508 148.975 105.299 150.103H109.431ZM68.8041 153.028L73.3539 148.45H68.9166V147.019H75.46V148.482L70.9102 153.06H75.5243V154.491H68.8041V153.028ZM80.6369 153.108C81.4085 153.124 82.1641 152.837 82.7108 152.313L83.7397 153.41C83.0644 154.109 82.116 154.618 80.6369 154.618C78.1127 154.618 76.4889 152.965 76.4889 150.723C76.4408 148.609 78.1448 146.876 80.2671 146.829H80.3957C82.9038 146.829 84.3185 148.704 84.1899 151.327H78.3057C78.5147 152.424 79.2863 153.124 80.6369 153.108ZM82.4375 150.103C82.2766 149.086 81.6658 148.339 80.4439 148.339C79.3024 148.339 78.5147 148.975 78.3057 150.103H82.4375ZM94.045 150.739C94.045 148.355 95.8456 146.86 97.8392 146.86C98.8038 146.844 99.7203 147.258 100.363 147.973V143.57H101.971V154.475H100.363V153.442C99.7363 154.189 98.8038 154.634 97.8232 154.618C95.894 154.618 94.045 153.108 94.045 150.739ZM100.444 150.723C100.412 149.42 99.3023 148.386 97.984 148.418C96.6656 148.45 95.6206 149.547 95.6528 150.851C95.685 152.138 96.7461 153.156 98.0482 153.156C99.4309 153.156 100.444 152.074 100.444 150.723ZM112.26 152.885L113.723 152.138C114.109 152.837 114.865 153.251 115.669 153.235C116.585 153.235 117.051 152.774 117.051 152.249C117.051 151.645 116.167 151.518 115.218 151.327C113.932 151.057 112.598 150.644 112.598 149.102C112.598 147.925 113.739 146.829 115.524 146.844C116.939 146.844 117.984 147.401 118.579 148.291L117.228 149.022C116.842 148.466 116.199 148.148 115.524 148.164C114.656 148.164 114.222 148.577 114.222 149.054C114.222 149.595 114.913 149.738 116.006 149.976C117.244 150.246 118.659 150.644 118.659 152.202C118.659 153.235 117.743 154.618 115.588 154.602C114.013 154.618 112.903 153.998 112.26 152.885ZM123.016 151.153L121.746 152.535V154.475H120.138V143.57H121.746V150.707L125.154 147.003H127.116L124.157 150.199L127.196 154.475H125.379L123.016 151.153ZM89.1898 146.844C87.2767 146.844 85.669 148.069 85.669 150.103V154.475H87.3087V150.31C87.3087 149.086 88.0162 148.355 89.2381 148.355C90.4599 148.355 91.0547 149.086 91.0547 150.31V154.475H92.6784V150.103C92.6946 148.069 91.0869 146.844 89.1898 146.844Z" fill="#03363D"/>
</g>
<g clip-path="url(#clip1_1_1373)" filter="url(#filter2_d_1_1373)">
<path d="M195 193C195 149.369 230.37 114 274 114C317.63 114 353 149.37 353 193C353 236.63 317.63 272 274 272C230.369 272 195 236.63 195 193Z" fill="white"/>
<path d="M267.395 171.525C269.935 168.878 273.471 167.237 277.382 167.237C282.581 167.237 287.117 170.136 289.532 174.439C291.631 173.501 293.954 172.98 296.399 172.98C305.776 172.98 313.377 180.648 313.377 190.106C313.377 199.566 305.776 207.234 296.399 207.234C295.255 207.234 294.136 207.12 293.055 206.901C290.928 210.695 286.874 213.258 282.222 213.258C280.274 213.258 278.432 212.809 276.792 212.009C274.636 217.081 269.612 220.637 263.757 220.637C257.66 220.637 252.463 216.779 250.469 211.368C249.597 211.553 248.694 211.65 247.767 211.65C240.507 211.65 234.622 205.704 234.622 198.368C234.622 193.452 237.266 189.16 241.195 186.863C240.386 185.002 239.936 182.948 239.936 180.788C239.936 172.352 246.786 165.513 255.233 165.513C260.193 165.513 264.601 167.871 267.395 171.525Z" fill="#00A1E0"/>
<path d="M246.03 194.099C245.98 194.228 246.048 194.255 246.063 194.277C246.211 194.385 246.362 194.462 246.513 194.548C247.316 194.975 248.075 195.099 248.868 195.099C250.483 195.099 251.486 194.24 251.486 192.857V192.83C251.486 191.551 250.354 191.087 249.292 190.751L249.154 190.706C248.353 190.446 247.662 190.221 247.662 189.694V189.666C247.662 189.215 248.066 188.883 248.692 188.883C249.387 188.883 250.213 189.114 250.745 189.408C250.745 189.408 250.901 189.509 250.958 189.358C250.989 189.277 251.259 188.552 251.287 188.474C251.317 188.388 251.263 188.326 251.208 188.292C250.601 187.923 249.762 187.67 248.894 187.67L248.732 187.671C247.254 187.671 246.222 188.564 246.222 189.845V189.871C246.222 191.221 247.36 191.659 248.427 191.964L248.599 192.016C249.376 192.255 250.046 192.461 250.046 193.008V193.035C250.046 193.536 249.611 193.908 248.908 193.908C248.636 193.908 247.766 193.902 246.827 193.309C246.714 193.243 246.648 193.195 246.56 193.142C246.514 193.113 246.399 193.062 246.348 193.215L246.03 194.099Z" fill="white"/>
<path d="M269.679 194.099C269.63 194.228 269.697 194.255 269.713 194.277C269.861 194.385 270.011 194.462 270.163 194.548C270.966 194.975 271.724 195.099 272.518 195.099C274.133 195.099 275.136 194.24 275.136 192.857V192.83C275.136 191.551 274.004 191.087 272.942 190.751L272.804 190.706C272.003 190.446 271.312 190.221 271.312 189.694V189.666C271.312 189.215 271.715 188.883 272.342 188.883C273.037 188.883 273.863 189.114 274.395 189.408C274.395 189.408 274.551 189.509 274.608 189.358C274.639 189.277 274.908 188.552 274.936 188.474C274.967 188.388 274.913 188.326 274.858 188.292C274.251 187.923 273.412 187.67 272.544 187.67L272.382 187.671C270.903 187.671 269.871 188.564 269.871 189.845V189.871C269.871 191.221 271.01 191.659 272.077 191.964L272.249 192.016C273.026 192.255 273.697 192.461 273.697 193.008V193.035C273.697 193.536 273.26 193.908 272.558 193.908C272.285 193.908 271.416 193.902 270.477 193.309C270.364 193.243 270.296 193.197 270.211 193.142C270.182 193.123 270.045 193.07 269.998 193.215L269.679 194.099Z" fill="white"/>
<path d="M285.824 191.389C285.824 192.171 285.679 192.787 285.391 193.223C285.107 193.653 284.678 193.863 284.079 193.863C283.479 193.863 283.051 193.655 282.772 193.223C282.489 192.788 282.346 192.171 282.346 191.389C282.346 190.609 282.489 189.994 282.772 189.563C283.051 189.137 283.479 188.929 284.079 188.929C284.678 188.929 285.107 189.137 285.392 189.563C285.679 189.994 285.824 190.609 285.824 191.389ZM287.173 189.94C287.04 189.492 286.834 189.098 286.559 188.769C286.284 188.439 285.937 188.174 285.524 187.981C285.112 187.789 284.625 187.692 284.079 187.692C283.531 187.692 283.044 187.789 282.633 187.981C282.22 188.174 281.872 188.439 281.596 188.769C281.322 189.099 281.116 189.494 280.982 189.94C280.851 190.385 280.785 190.872 280.785 191.389C280.785 191.907 280.851 192.395 280.982 192.839C281.116 193.285 281.321 193.68 281.597 194.01C281.872 194.34 282.221 194.604 282.633 194.791C283.046 194.978 283.531 195.074 284.079 195.074C284.625 195.074 285.111 194.978 285.524 194.791C285.935 194.604 286.284 194.34 286.559 194.01C286.834 193.681 287.04 193.287 287.173 192.839C287.305 192.394 287.371 191.906 287.371 191.389C287.371 190.873 287.305 190.385 287.173 189.94Z" fill="white"/>
<path d="M298.247 193.654C298.202 193.523 298.075 193.572 298.075 193.572C297.879 193.647 297.67 193.717 297.448 193.751C297.222 193.786 296.974 193.804 296.709 193.804C296.056 193.804 295.537 193.61 295.166 193.227C294.794 192.843 294.585 192.222 294.587 191.383C294.589 190.619 294.773 190.045 295.104 189.607C295.433 189.172 295.933 188.949 296.601 188.949C297.157 188.949 297.581 189.013 298.026 189.153C298.026 189.153 298.132 189.199 298.183 189.06C298.3 188.732 298.388 188.498 298.514 188.138C298.549 188.036 298.462 187.992 298.431 187.98C298.256 187.911 297.843 187.8 297.531 187.753C297.239 187.708 296.898 187.685 296.519 187.685C295.952 187.685 295.448 187.781 295.016 187.974C294.585 188.166 294.219 188.431 293.93 188.76C293.64 189.09 293.42 189.485 293.273 189.932C293.128 190.377 293.053 190.866 293.053 191.383C293.053 192.502 293.355 193.406 293.951 194.068C294.548 194.732 295.444 195.07 296.613 195.07C297.304 195.07 298.013 194.93 298.523 194.729C298.523 194.729 298.62 194.682 298.578 194.568L298.247 193.654Z" fill="white"/>
<path d="M300.606 190.641C300.67 190.206 300.79 189.845 300.975 189.564C301.254 189.136 301.681 188.902 302.28 188.902C302.879 188.902 303.275 189.137 303.558 189.564C303.747 189.845 303.829 190.222 303.861 190.641H300.606ZM305.146 189.686C305.031 189.254 304.748 188.818 304.561 188.618C304.268 188.302 303.98 188.08 303.695 187.957C303.323 187.798 302.876 187.692 302.387 187.692C301.817 187.692 301.3 187.788 300.881 187.985C300.46 188.182 300.106 188.452 299.829 188.787C299.552 189.122 299.344 189.52 299.211 189.972C299.078 190.422 299.01 190.912 299.01 191.429C299.01 191.955 299.08 192.446 299.218 192.887C299.357 193.331 299.579 193.722 299.88 194.047C300.179 194.373 300.565 194.629 301.028 194.807C301.486 194.984 302.044 195.076 302.685 195.075C304.003 195.071 304.697 194.777 304.983 194.619C305.034 194.591 305.082 194.541 305.021 194.4L304.723 193.564C304.678 193.44 304.551 193.486 304.551 193.486C304.225 193.607 303.76 193.824 302.678 193.822C301.97 193.821 301.445 193.612 301.116 193.286C300.779 192.952 300.614 192.46 300.584 191.767L305.149 191.771C305.149 191.771 305.269 191.769 305.282 191.653C305.286 191.603 305.439 190.715 305.146 189.686Z" fill="white"/>
<path d="M264.048 190.641C264.113 190.206 264.232 189.845 264.417 189.564C264.697 189.136 265.123 188.902 265.722 188.902C266.321 188.902 266.717 189.137 267.002 189.564C267.19 189.845 267.271 190.222 267.304 190.641H264.048ZM268.588 189.686C268.473 189.254 268.19 188.818 268.004 188.618C267.71 188.302 267.423 188.08 267.138 187.957C266.765 187.798 266.319 187.692 265.83 187.692C265.261 187.692 264.743 187.788 264.323 187.985C263.902 188.182 263.549 188.452 263.272 188.787C262.995 189.122 262.786 189.52 262.654 189.972C262.521 190.422 262.453 190.912 262.453 191.429C262.453 191.955 262.523 192.446 262.66 192.887C262.8 193.331 263.022 193.722 263.322 194.047C263.622 194.373 264.008 194.629 264.47 194.807C264.929 194.984 265.487 195.076 266.127 195.075C267.445 195.071 268.14 194.777 268.426 194.619C268.476 194.591 268.525 194.541 268.464 194.4L268.167 193.564C268.121 193.44 267.994 193.486 267.994 193.486C267.667 193.607 267.204 193.824 266.119 193.822C265.412 193.821 264.888 193.612 264.559 193.286C264.221 192.952 264.056 192.46 264.027 191.767L268.592 191.771C268.592 191.771 268.712 191.769 268.724 191.653C268.729 191.603 268.881 190.715 268.588 189.686Z" fill="white"/>
<path d="M254.181 193.629C254.002 193.487 253.978 193.451 253.917 193.359C253.827 193.218 253.781 193.019 253.781 192.765C253.781 192.363 253.914 192.075 254.189 191.881C254.185 191.882 254.581 191.539 255.512 191.551C256.166 191.56 256.751 191.657 256.751 191.657V193.732H256.752C256.752 193.732 256.172 193.857 255.519 193.896C254.59 193.952 254.177 193.628 254.181 193.629ZM255.997 190.422C255.812 190.408 255.572 190.4 255.285 190.4C254.893 190.4 254.515 190.449 254.161 190.545C253.804 190.64 253.483 190.79 253.207 190.987C252.93 191.186 252.707 191.439 252.545 191.74C252.384 192.041 252.302 192.395 252.302 192.792C252.302 193.196 252.371 193.547 252.51 193.834C252.649 194.123 252.85 194.363 253.106 194.548C253.36 194.733 253.673 194.869 254.036 194.95C254.394 195.033 254.8 195.074 255.244 195.074C255.712 195.074 256.179 195.036 256.631 194.958C257.079 194.882 257.628 194.771 257.781 194.736C257.932 194.7 258.101 194.654 258.101 194.654C258.214 194.626 258.205 194.505 258.205 194.505L258.203 190.331C258.203 189.415 257.958 188.737 257.477 188.316C256.998 187.896 256.292 187.684 255.38 187.684C255.038 187.684 254.487 187.731 254.157 187.797C254.157 187.797 253.16 187.991 252.749 188.311C252.749 188.311 252.659 188.367 252.709 188.493L253.032 189.361C253.072 189.474 253.181 189.436 253.181 189.436C253.181 189.436 253.216 189.422 253.256 189.398C254.135 188.92 255.245 188.935 255.245 188.935C255.739 188.935 256.118 189.034 256.374 189.23C256.623 189.421 256.75 189.709 256.75 190.317V190.51C256.357 190.454 255.997 190.422 255.997 190.422Z" fill="white"/>
<path d="M292.815 188.07C292.849 187.967 292.777 187.918 292.746 187.906C292.669 187.876 292.281 187.794 291.981 187.775C291.408 187.74 291.089 187.837 290.804 187.965C290.522 188.093 290.207 188.299 290.032 188.534V187.978C290.032 187.901 289.977 187.839 289.901 187.839H288.731C288.655 187.839 288.6 187.901 288.6 187.978V194.787C288.6 194.863 288.663 194.926 288.739 194.926H289.938C290.014 194.926 290.076 194.863 290.076 194.787V191.385C290.076 190.929 290.127 190.473 290.228 190.187C290.326 189.905 290.461 189.678 290.627 189.515C290.794 189.354 290.984 189.24 291.191 189.176C291.403 189.111 291.638 189.09 291.804 189.09C292.043 189.09 292.305 189.152 292.305 189.152C292.393 189.162 292.442 189.108 292.471 189.028C292.55 188.82 292.772 188.195 292.815 188.07Z" fill="white"/>
<path d="M281.558 184.914C281.413 184.869 281.28 184.839 281.107 184.807C280.932 184.775 280.724 184.759 280.487 184.759C279.661 184.759 279.011 184.993 278.554 185.453C278.1 185.91 277.791 186.607 277.636 187.524L277.58 187.832H276.544C276.544 187.832 276.418 187.828 276.391 187.964L276.222 188.915C276.209 189.005 276.249 189.062 276.37 189.062H277.378L276.355 194.774C276.276 195.234 276.183 195.612 276.081 195.899C275.982 196.182 275.884 196.394 275.763 196.549C275.646 196.697 275.536 196.807 275.345 196.871C275.188 196.924 275.007 196.948 274.808 196.948C274.698 196.948 274.551 196.931 274.442 196.908C274.335 196.887 274.278 196.863 274.195 196.829C274.195 196.829 274.078 196.784 274.031 196.901C273.994 196.999 273.724 197.738 273.692 197.829C273.66 197.92 273.705 197.991 273.762 198.012C273.897 198.059 273.997 198.091 274.18 198.134C274.433 198.194 274.648 198.197 274.848 198.197C275.268 198.197 275.652 198.138 275.969 198.023C276.288 197.908 276.566 197.707 276.813 197.435C277.079 197.141 277.246 196.834 277.405 196.413C277.563 195.998 277.699 195.482 277.807 194.881L278.836 189.062H280.339C280.339 189.062 280.466 189.066 280.491 188.928L280.662 187.979C280.673 187.888 280.635 187.832 280.513 187.832H279.053C279.061 187.8 279.127 187.286 279.294 186.802C279.366 186.597 279.501 186.43 279.614 186.315C279.726 186.203 279.855 186.124 279.997 186.078C280.141 186.03 280.306 186.008 280.487 186.008C280.624 186.008 280.76 186.024 280.862 186.045C281.003 186.075 281.058 186.091 281.095 186.102C281.244 186.147 281.265 186.103 281.294 186.032L281.642 185.073C281.678 184.97 281.59 184.926 281.558 184.914Z" fill="white"/>
<path d="M261.165 194.787C261.165 194.863 261.11 194.925 261.034 194.925H259.823C259.747 194.925 259.693 194.863 259.693 194.787V185.044C259.693 184.968 259.747 184.906 259.823 184.906H261.034C261.11 184.906 261.165 184.968 261.165 185.044V194.787Z" fill="white"/>
</g>
<defs>
<filter id="filter0_d_1_1373" x="330" y="40" width="192" height="192" filterUnits="userSpaceOnUse" color-interpolation-filters="sRGB">
<feFlood flood-opacity="0" result="BackgroundImageFix"/>
<feColorMatrix in="SourceAlpha" type="matrix" values="0 0 0 0 0 0 0 0 0 0 0 0 0 0 0 0 0 0 127 0" result="hardAlpha"/>
<feOffset dy="34"/>
<feGaussianBlur stdDeviation="17"/>
<feColorMatrix type="matrix" values="0 0 0 0 0 0 0 0 0 0 0 0 0 0 0 0 0 0 0.05 0"/>
<feBlend mode="normal" in2="BackgroundImageFix" result="effect1_dropShadow_1_1373"/>
<feBlend mode="normal" in="SourceGraphic" in2="effect1_dropShadow_1_1373" result="shape"/>
</filter>
<filter id="filter1_d_1_1373" x="0" y="70" width="196" height="196" filterUnits="userSpaceOnUse" color-interpolation-filters="sRGB">
<feFlood flood-opacity="0" result="BackgroundImageFix"/>
<feColorMatrix in="SourceAlpha" type="matrix" values="0 0 0 0 0 0 0 0 0 0 0 0 0 0 0 0 0 0 127 0" result="hardAlpha"/>
<feOffset dy="34"/>
<feGaussianBlur stdDeviation="17"/>
<feColorMatrix type="matrix" values="0 0 0 0 0 0 0 0 0 0 0 0 0 0 0 0 0 0 0.05 0"/>
<feBlend mode="normal" in2="BackgroundImageFix" result="effect1_dropShadow_1_1373"/>
<feBlend mode="normal" in="SourceGraphic" in2="effect1_dropShadow_1_1373" result="shape"/>
</filter>
<filter id="filter2_d_1_1373" x="161" y="114" width="226" height="226" filterUnits="userSpaceOnUse" color-interpolation-filters="sRGB">
<feFlood flood-opacity="0" result="BackgroundImageFix"/>
<feColorMatrix in="SourceAlpha" type="matrix" values="0 0 0 0 0 0 0 0 0 0 0 0 0 0 0 0 0 0 127 0" result="hardAlpha"/>
<feOffset dy="34"/>
<feGaussianBlur stdDeviation="17"/>
<feColorMatrix type="matrix" values="0 0 0 0 0 0 0 0 0 0 0 0 0 0 0 0 0 0 0.05 0"/>
<feBlend mode="normal" in2="BackgroundImageFix" result="effect1_dropShadow_1_1373"/>
<feBlend mode="normal" in="SourceGraphic" in2="effect1_dropShadow_1_1373" result="shape"/>
</filter>
<clipPath id="clip0_1_1373">
<rect width="128" height="128" fill="white" transform="translate(34 70)"/>
</clipPath>
<clipPath id="clip1_1_1373">
<rect width="158" height="158" fill="white" transform="translate(195 114)"/>
</clipPath>
</defs>
</svg>
