<svg width="307" height="251" viewBox="0 0 307 251" fill="none" xmlns="http://www.w3.org/2000/svg">
<path d="M289.849 0H17.1508C7.67869 0 0 7.69702 0 17.1918V233.808C0 243.303 7.67869 251 17.1508 251H289.849C299.321 251 307 243.303 307 233.808V17.1918C307 7.69702 299.321 0 289.849 0Z" fill="white"/>
<path d="M0 17.1918C0 7.69702 7.6787 0 17.1508 0H289.849C299.322 0 307 7.69702 307 17.1918V45.5582H0V17.1918Z" fill="#FED758"/>
<path d="M106.772 28.5727C106.068 28.5727 105.409 28.4535 104.796 28.2152C104.184 27.9676 103.649 27.6238 103.191 27.1836C102.743 26.7435 102.386 26.2117 102.12 25.5882C101.855 24.9648 101.722 24.2725 101.722 23.5115C101.722 22.7505 101.855 22.0582 102.12 21.4347C102.395 20.8021 102.761 20.2657 103.218 19.8256C103.676 19.3763 104.206 19.0279 104.81 18.7803C105.423 18.5327 106.068 18.409 106.744 18.409C107.477 18.409 108.108 18.5144 108.638 18.7253C109.169 18.9361 109.617 19.2067 109.982 19.5367C110.348 19.8576 110.632 20.2107 110.833 20.5958C111.044 20.9808 111.19 21.3476 111.272 21.696L109.228 22.3424C109.192 22.1774 109.118 21.9894 109.008 21.7785C108.908 21.5677 108.761 21.3705 108.569 21.1872C108.377 20.9946 108.13 20.8388 107.828 20.7195C107.536 20.5912 107.175 20.527 106.744 20.527C106.415 20.527 106.086 20.5866 105.756 20.7058C105.427 20.825 105.13 21.0084 104.865 21.2559C104.6 21.4943 104.384 21.8015 104.22 22.1774C104.055 22.5533 103.973 22.998 103.973 23.5115C103.973 23.9699 104.051 24.3779 104.206 24.7355C104.362 25.0931 104.568 25.3957 104.823 25.6433C105.089 25.8908 105.386 26.0788 105.715 26.2072C106.054 26.3355 106.406 26.3997 106.772 26.3997C107.193 26.3997 107.554 26.3401 107.856 26.2209C108.157 26.0926 108.41 25.9366 108.61 25.7533C108.812 25.5607 108.967 25.359 109.077 25.1481C109.196 24.9373 109.278 24.7447 109.324 24.5705L111.396 25.1619C111.313 25.5012 111.167 25.8679 110.956 26.2622C110.756 26.6565 110.468 27.0278 110.092 27.3762C109.727 27.7155 109.269 27.9997 108.72 28.2289C108.171 28.4582 107.522 28.5727 106.772 28.5727ZM114.903 23.484C114.903 23.9974 114.985 24.4375 115.15 24.8043C115.315 25.1711 115.53 25.4782 115.795 25.7258C116.069 25.9641 116.371 26.1429 116.7 26.2622C117.039 26.3722 117.377 26.4272 117.716 26.4272C118.054 26.4272 118.388 26.3722 118.717 26.2622C119.056 26.1429 119.358 25.9641 119.623 25.7258C119.888 25.4782 120.103 25.1711 120.268 24.8043C120.432 24.4375 120.515 23.9974 120.515 23.484C120.515 22.9797 120.432 22.5395 120.268 22.1636C120.103 21.7877 119.888 21.4805 119.623 21.2422C119.358 21.0038 119.056 20.825 118.717 20.7058C118.388 20.5866 118.054 20.527 117.716 20.527C117.377 20.527 117.039 20.5866 116.7 20.7058C116.371 20.825 116.069 21.0038 115.795 21.2422C115.53 21.4805 115.315 21.7877 115.15 22.1636C114.985 22.5395 114.903 22.9797 114.903 23.484ZM112.653 23.4977C112.653 22.7275 112.786 22.0307 113.051 21.4072C113.325 20.7745 113.691 20.2382 114.148 19.7981C114.615 19.3487 115.154 19.0049 115.767 18.7665C116.38 18.5282 117.03 18.409 117.716 18.409C118.402 18.409 119.047 18.5282 119.65 18.7665C120.263 19.0049 120.799 19.3487 121.256 19.7981C121.722 20.2382 122.088 20.7745 122.353 21.4072C122.628 22.0307 122.765 22.7275 122.765 23.4977C122.765 24.2679 122.628 24.9648 122.353 25.5882C122.088 26.2117 121.722 26.7481 121.256 27.1974C120.799 27.6375 120.263 27.9768 119.65 28.2152C119.047 28.4535 118.402 28.5727 117.716 28.5727C117.03 28.5727 116.38 28.4535 115.767 28.2152C115.154 27.9768 114.615 27.6375 114.148 27.1974C113.691 26.7481 113.325 26.2117 113.051 25.5882C112.786 24.9648 112.653 24.2679 112.653 23.4977ZM124.721 28.3664V18.6153H126.889V26.2897H131.087V28.3664H124.721ZM132.904 28.3664V18.6153H135.072V26.2897H139.271V28.3664H132.904ZM146.932 26.3859H143.173L142.473 28.3664H140.195L143.859 18.6153H146.37L149.992 28.3664H147.632L146.932 26.3859ZM143.886 24.4055H146.246L145.08 21.0359L143.886 24.4055ZM155.238 18.6153C155.713 18.6153 156.139 18.684 156.514 18.8216C156.898 18.9499 157.218 19.1333 157.475 19.3717C157.73 19.6009 157.927 19.876 158.065 20.1969C158.202 20.5087 158.271 20.8525 158.271 21.2284C158.271 21.7327 158.133 22.1774 157.859 22.5625C157.584 22.9384 157.246 23.1906 156.844 23.3189C157.063 23.3739 157.273 23.4657 157.475 23.594C157.685 23.7132 157.873 23.8691 158.037 24.0616C158.202 24.2542 158.33 24.4834 158.421 24.7493C158.522 25.006 158.572 25.2902 158.572 25.602C158.572 26.0054 158.499 26.3767 158.353 26.716C158.206 27.0461 158 27.3349 157.735 27.5825C157.47 27.8301 157.15 28.0226 156.775 28.1601C156.399 28.2977 155.983 28.3664 155.526 28.3664H151.602V18.6153H155.238ZM154.895 22.5212C155.279 22.5212 155.581 22.4295 155.801 22.2462C156.029 22.0536 156.144 21.7923 156.144 21.4622C156.144 21.1413 156.038 20.8891 155.828 20.7058C155.617 20.5132 155.297 20.417 154.868 20.417H153.715V22.5212H154.895ZM155.074 26.5922C155.494 26.5922 155.823 26.4914 156.061 26.2897C156.299 26.0788 156.418 25.7991 156.418 25.4507C156.418 25.1114 156.299 24.8364 156.061 24.6255C155.833 24.4147 155.503 24.3092 155.074 24.3092H153.715V26.5922H155.074ZM162.17 23.484C162.17 23.9974 162.252 24.4375 162.417 24.8043C162.581 25.1711 162.796 25.4782 163.062 25.7258C163.336 25.9641 163.638 26.1429 163.967 26.2622C164.305 26.3722 164.644 26.4272 164.982 26.4272C165.32 26.4272 165.655 26.3722 165.984 26.2622C166.322 26.1429 166.624 25.9641 166.89 25.7258C167.155 25.4782 167.37 25.1711 167.535 24.8043C167.699 24.4375 167.782 23.9974 167.782 23.484C167.782 22.9797 167.699 22.5395 167.535 22.1636C167.37 21.7877 167.155 21.4805 166.89 21.2422C166.624 21.0038 166.322 20.825 165.984 20.7058C165.655 20.5866 165.32 20.527 164.982 20.527C164.644 20.527 164.305 20.5866 163.967 20.7058C163.638 20.825 163.336 21.0038 163.062 21.2422C162.796 21.4805 162.581 21.7877 162.417 22.1636C162.252 22.5395 162.17 22.9797 162.17 23.484ZM159.92 23.4977C159.92 22.7275 160.052 22.0307 160.317 21.4072C160.592 20.7745 160.957 20.2382 161.415 19.7981C161.882 19.3487 162.421 19.0049 163.034 18.7665C163.646 18.5282 164.296 18.409 164.982 18.409C165.669 18.409 166.313 18.5282 166.917 18.7665C167.529 19.0049 168.064 19.3487 168.522 19.7981C168.989 20.2382 169.354 20.7745 169.62 21.4072C169.894 22.0307 170.032 22.7275 170.032 23.4977C170.032 24.2679 169.894 24.9648 169.62 25.5882C169.354 26.2117 168.989 26.7481 168.522 27.1974C168.064 27.6375 167.529 27.9768 166.917 28.2152C166.313 28.4535 165.669 28.5727 164.982 28.5727C164.296 28.5727 163.646 28.4535 163.034 28.2152C162.421 27.9768 161.882 27.6375 161.415 27.1974C160.957 26.7481 160.592 26.2117 160.317 25.5882C160.052 24.9648 159.92 24.2679 159.92 23.4977ZM174.924 24.7355H174.156V28.3664H171.988V18.6153H175.843C176.319 18.6153 176.749 18.6932 177.133 18.8491C177.527 19.0049 177.86 19.2204 178.135 19.4955C178.409 19.7705 178.62 20.0961 178.766 20.472C178.922 20.8388 178.999 21.2376 178.999 21.6685C178.999 22.3287 178.83 22.9018 178.491 23.3877C178.153 23.8645 177.682 24.2083 177.078 24.4192L179.054 28.3664H176.666L174.924 24.7355ZM175.432 22.8651C175.88 22.8651 176.219 22.755 176.447 22.535C176.685 22.3149 176.804 22.0307 176.804 21.6823C176.804 21.3155 176.685 21.0267 176.447 20.8158C176.219 20.605 175.88 20.4995 175.432 20.4995H174.156V22.8651H175.432ZM186.819 26.3859H183.059L182.36 28.3664H180.082L183.746 18.6153H186.256L189.879 28.3664H187.519L186.819 26.3859ZM183.773 24.4055H186.133L184.967 21.0359L183.773 24.4055ZM194.955 20.692V28.3664H192.787V20.692H189.796V18.6153H197.96V20.692H194.955ZM199.686 28.3664V18.6153H205.847V20.6645H201.854V22.5212H205.476V24.433H201.854V26.3034H205.861V28.3664H199.686Z" fill="white"/>
<path d="M39.4625 76.5945C40.049 76.5945 40.5069 76.445 40.8362 76.1458C41.1758 75.8467 41.3456 75.4341 41.3456 74.908C41.3456 74.382 41.1758 73.9642 40.8362 73.6547C40.5069 73.3453 40.049 73.1906 39.4625 73.1906H37.533V76.5945H39.4625ZM37.533 78.2346V82.5205H35.6807V71.5505H39.7403C40.2651 71.5505 40.7385 71.6381 41.1604 71.8135C41.5926 71.9785 41.963 72.2106 42.2718 72.5098C42.5805 72.7986 42.8172 73.1493 42.9818 73.5619C43.1465 73.9745 43.2288 74.4181 43.2288 74.8926C43.2288 75.3774 43.1465 75.8261 42.9818 76.2387C42.8172 76.641 42.5805 76.9917 42.2718 77.2908C41.963 77.5899 41.5926 77.822 41.1604 77.9871C40.7385 78.1521 40.2651 78.2346 39.7403 78.2346H37.533ZM44.6913 82.5205V71.3184H46.4819V82.5205H44.6913ZM53.7309 77.9252C53.7206 77.7086 53.6743 77.5023 53.592 77.3063C53.52 77.1 53.4068 76.9195 53.2524 76.7647C53.0981 76.61 52.9077 76.4862 52.6813 76.3934C52.4549 76.3006 52.1873 76.2541 51.8786 76.2541C51.6008 76.2541 51.3487 76.3057 51.1223 76.4089C50.9062 76.5017 50.7209 76.6306 50.5666 76.7957C50.4122 76.9504 50.2887 77.1309 50.1961 77.3372C50.1035 77.5332 50.0521 77.7292 50.0418 77.9252H53.7309ZM55.4443 80.3699C55.3414 80.6999 55.1922 81.0094 54.9966 81.2982C54.8011 81.587 54.5593 81.8398 54.2712 82.0564C53.983 82.273 53.6537 82.4432 53.2833 82.567C52.9128 82.6907 52.5012 82.7526 52.0484 82.7526C51.5339 82.7526 51.0451 82.665 50.582 82.4896C50.119 82.3039 49.7125 82.0409 49.3626 81.7005C49.0127 81.3498 48.7297 80.9269 48.5136 80.4317C48.3078 79.9263 48.2049 79.3538 48.2049 78.7143C48.2049 78.116 48.3027 77.5745 48.4982 77.0897C48.704 76.6049 48.9767 76.1922 49.3163 75.8519C49.6559 75.5011 50.0469 75.233 50.4894 75.0473C50.9319 74.8513 51.3898 74.7533 51.8632 74.7533C52.4395 74.7533 52.954 74.8461 53.4068 75.0318C53.8698 75.2175 54.2557 75.4805 54.5645 75.8209C54.8835 76.1613 55.1253 76.5739 55.2899 77.0587C55.4546 77.5332 55.5369 78.0696 55.5369 78.6679C55.5369 78.8123 55.5318 78.9412 55.5215 79.0547C55.5112 79.1578 55.5009 79.2197 55.4906 79.2404H49.9955C50.0058 79.5292 50.0675 79.7922 50.1807 80.0295C50.2939 80.2667 50.4431 80.473 50.6283 80.6484C50.8136 80.8237 51.0245 80.963 51.2612 81.0661C51.5082 81.159 51.7706 81.2054 52.0484 81.2054C52.5938 81.2054 53.0106 81.0816 53.2987 80.834C53.5971 80.5762 53.8081 80.2615 53.9316 79.8902L55.4443 80.3699ZM56.7849 80.4782C56.7849 80.1378 56.8415 79.8386 56.9547 79.5808C57.0782 79.3229 57.2377 79.1011 57.4332 78.9154C57.639 78.7194 57.8808 78.5647 58.1587 78.4513C58.4365 78.3378 58.7349 78.2553 59.0539 78.2037L60.9834 77.9097C61.1995 77.8788 61.3436 77.8169 61.4156 77.724C61.4979 77.6209 61.5391 77.5023 61.5391 77.3682C61.5391 77.0484 61.4259 76.7802 61.1995 76.5636C60.9731 76.3367 60.613 76.2232 60.119 76.2232C59.6456 76.2232 59.2803 76.3573 59.0231 76.6255C58.7658 76.8834 58.6166 77.2031 58.5754 77.5848L56.9392 77.2134C56.9701 76.8937 57.0679 76.5842 57.2325 76.2851C57.3972 75.986 57.6133 75.7229 57.8808 75.496C58.1484 75.2691 58.4674 75.0885 58.8378 74.9544C59.2186 74.8203 59.6405 74.7533 60.1036 74.7533C60.6798 74.7533 61.1686 74.8307 61.57 74.9854C61.9816 75.1401 62.3109 75.3464 62.5579 75.6043C62.8151 75.8622 63.0003 76.1613 63.1135 76.5017C63.237 76.8421 63.2988 77.198 63.2988 77.5693V81.3137C63.2988 81.6541 63.3091 81.9326 63.3296 82.1492C63.3605 82.3555 63.3811 82.4793 63.3914 82.5205H61.7243C61.714 82.4999 61.6986 82.4122 61.678 82.2575C61.6574 82.0925 61.6471 81.8604 61.6471 81.5612C61.4722 81.8501 61.1944 82.1234 60.8136 82.3813C60.4329 82.6289 59.9389 82.7526 59.3318 82.7526C58.9407 82.7526 58.5857 82.6907 58.2667 82.567C57.958 82.4432 57.6904 82.2781 57.4641 82.0718C57.248 81.8552 57.0782 81.6128 56.9547 81.3446C56.8415 81.0661 56.7849 80.7773 56.7849 80.4782ZM59.6714 81.3446C59.9183 81.3446 60.155 81.3137 60.3814 81.2518C60.6078 81.1796 60.8033 81.0713 60.968 80.9269C61.1429 80.7721 61.2818 80.571 61.3847 80.3234C61.4876 80.0759 61.5391 79.7664 61.5391 79.3951V79.0547L59.5788 79.3487C59.3009 79.4002 59.0642 79.5085 58.8687 79.6736C58.6732 79.8283 58.5754 80.0604 58.5754 80.3699C58.5754 80.6277 58.6681 80.8547 58.8533 81.0506C59.0385 81.2466 59.3112 81.3446 59.6714 81.3446ZM66.3586 80.0449C66.3894 80.3853 66.5284 80.6845 66.7753 80.9423C67.0326 81.2002 67.4031 81.3292 67.8867 81.3292C68.2572 81.3292 68.535 81.2466 68.7202 81.0816C68.9158 80.9062 69.0135 80.6999 69.0135 80.4627C69.0135 80.2564 68.9415 80.081 68.7974 79.9366C68.6534 79.7922 68.4321 79.6891 68.1337 79.6272L67.0223 79.3796C66.3534 79.2352 65.8492 78.967 65.5096 78.575C65.17 78.1727 65.0002 77.7086 65.0002 77.1825C65.0002 76.8524 65.0723 76.543 65.2163 76.2541C65.3604 75.955 65.5559 75.6971 65.8029 75.4805C66.0499 75.2536 66.338 75.0782 66.6673 74.9544C67.0069 74.8203 67.3722 74.7533 67.7632 74.7533C68.288 74.7533 68.7254 74.8307 69.0753 74.9854C69.4354 75.1298 69.7287 75.3103 69.9551 75.5269C70.1815 75.7435 70.3461 75.9756 70.449 76.2232C70.5622 76.4604 70.6343 76.6719 70.6651 76.8576L69.1524 77.2908C69.1319 77.1877 69.0958 77.069 69.0444 76.9349C68.9929 76.8008 68.9106 76.6771 68.7974 76.5636C68.6945 76.4501 68.5556 76.3573 68.3807 76.2851C68.216 76.2026 68.0102 76.1613 67.7632 76.1613C67.4442 76.1613 67.1818 76.249 66.976 76.4243C66.7805 76.5894 66.6827 76.7905 66.6827 77.0278C66.6827 77.2341 66.7496 77.4043 66.8834 77.5384C67.0172 77.6725 67.2024 77.7653 67.4391 77.8169L68.5813 78.049C69.2914 78.2037 69.8265 78.4874 70.1866 78.9C70.5571 79.3022 70.7423 79.7819 70.7423 80.3389C70.7423 80.6277 70.6806 80.9166 70.5571 81.2054C70.4439 81.4839 70.269 81.7418 70.0323 81.979C69.8059 82.2059 69.5126 82.3916 69.1524 82.536C68.7923 82.6804 68.3755 82.7526 67.9021 82.7526C67.3567 82.7526 66.8937 82.6753 66.5129 82.5205C66.1322 82.3658 65.8183 82.175 65.5713 81.9481C65.3244 81.7108 65.1391 81.4633 65.0157 81.2054C64.8922 80.9372 64.8201 80.6948 64.7996 80.4782L66.3586 80.0449ZM77.4121 77.9252C77.4018 77.7086 77.3555 77.5023 77.2732 77.3063C77.2012 77.1 77.088 76.9195 76.9336 76.7647C76.7792 76.61 76.5889 76.4862 76.3625 76.3934C76.1361 76.3006 75.8685 76.2541 75.5598 76.2541C75.282 76.2541 75.0299 76.3057 74.8035 76.4089C74.5874 76.5017 74.4021 76.6306 74.2478 76.7957C74.0934 76.9504 73.9699 77.1309 73.8773 77.3372C73.7847 77.5332 73.7333 77.7292 73.723 77.9252H77.4121ZM79.1255 80.3699C79.0226 80.6999 78.8734 81.0094 78.6778 81.2982C78.4823 81.587 78.2405 81.8398 77.9524 82.0564C77.6642 82.273 77.3349 82.4432 76.9645 82.567C76.594 82.6907 76.1824 82.7526 75.7296 82.7526C75.2151 82.7526 74.7263 82.665 74.2632 82.4896C73.8001 82.3039 73.3937 82.0409 73.0438 81.7005C72.6939 81.3498 72.4109 80.9269 72.1948 80.4317C71.989 79.9263 71.8861 79.3538 71.8861 78.7143C71.8861 78.116 71.9839 77.5745 72.1794 77.0897C72.3852 76.6049 72.6579 76.1922 72.9975 75.8519C73.3371 75.5011 73.7281 75.233 74.1706 75.0473C74.6131 74.8513 75.071 74.7533 75.5444 74.7533C76.1207 74.7533 76.6352 74.8461 77.088 75.0318C77.551 75.2175 77.9369 75.4805 78.2456 75.8209C78.5646 76.1613 78.8065 76.5739 78.9711 77.0587C79.1358 77.5332 79.2181 78.0696 79.2181 78.6679C79.2181 78.8123 79.213 78.9412 79.2027 79.0547C79.1924 79.1578 79.1821 79.2197 79.1718 79.2404H73.6767C73.6869 79.5292 73.7487 79.7922 73.8619 80.0295C73.9751 80.2667 74.1243 80.473 74.3095 80.6484C74.4948 80.8237 74.7057 80.963 74.9424 81.0661C75.1894 81.159 75.4518 81.2054 75.7296 81.2054C76.275 81.2054 76.6918 81.0816 76.9799 80.834C77.2783 80.5762 77.4893 80.2615 77.6128 79.8902L79.1255 80.3699ZM88.1382 78.1882H86.7798V82.5205H84.9123V71.5505H89.1106C89.6354 71.5505 90.1088 71.6381 90.5307 71.8135C90.9629 71.9785 91.3231 72.2158 91.6112 72.5252C91.9096 72.8244 92.136 73.1751 92.2904 73.5774C92.455 73.9797 92.5373 74.4129 92.5373 74.8771C92.5373 75.661 92.3161 76.3315 91.8736 76.8885C91.4414 77.4455 90.8394 77.8169 90.0676 78.0025L92.5373 82.5205H90.4381L88.1382 78.1882ZM88.771 76.5481C89.3473 76.5481 89.8052 76.3986 90.1448 76.0994C90.4844 75.79 90.6542 75.3825 90.6542 74.8771C90.6542 74.3613 90.4844 73.9539 90.1448 73.6547C89.8052 73.3453 89.3473 73.1906 88.771 73.1906H86.7798V76.5481H88.771ZM99.0435 77.9252C99.0332 77.7086 98.9869 77.5023 98.9046 77.3063C98.8326 77.1 98.7194 76.9195 98.565 76.7647C98.4107 76.61 98.2203 76.4862 97.9939 76.3934C97.7675 76.3006 97.4999 76.2541 97.1912 76.2541C96.9134 76.2541 96.6613 76.3057 96.4349 76.4089C96.2188 76.5017 96.0335 76.6306 95.8792 76.7957C95.7248 76.9504 95.6013 77.1309 95.5087 77.3372C95.4161 77.5332 95.3647 77.7292 95.3544 77.9252H99.0435ZM100.757 80.3699C100.654 80.6999 100.505 81.0094 100.309 81.2982C100.114 81.587 99.8719 81.8398 99.5838 82.0564C99.2956 82.273 98.9663 82.4432 98.5959 82.567C98.2254 82.6907 97.8138 82.7526 97.361 82.7526C96.8465 82.7526 96.3577 82.665 95.8946 82.4896C95.4316 82.3039 95.0251 82.0409 94.6752 81.7005C94.3253 81.3498 94.0423 80.9269 93.8262 80.4317C93.6204 79.9263 93.5175 79.3538 93.5175 78.7143C93.5175 78.116 93.6153 77.5745 93.8108 77.0897C94.0166 76.6049 94.2893 76.1922 94.6289 75.8519C94.9685 75.5011 95.3595 75.233 95.802 75.0473C96.2445 74.8513 96.7024 74.7533 97.1758 74.7533C97.7521 74.7533 98.2666 74.8461 98.7194 75.0318C99.1824 75.2175 99.5683 75.4805 99.8771 75.8209C100.196 76.1613 100.438 76.5739 100.603 77.0587C100.767 77.5332 100.85 78.0696 100.85 78.6679C100.85 78.8123 100.844 78.9412 100.834 79.0547C100.824 79.1578 100.813 79.2197 100.803 79.2404H95.3081C95.3184 79.5292 95.3801 79.7922 95.4933 80.0295C95.6065 80.2667 95.7557 80.473 95.9409 80.6484C96.1262 80.8237 96.3371 80.963 96.5738 81.0661C96.8208 81.159 97.0832 81.2054 97.361 81.2054C97.9064 81.2054 98.3232 81.0816 98.6113 80.834C98.9097 80.5762 99.1207 80.2615 99.2442 79.8902L100.757 80.3699ZM106.253 82.5205H104.462L101.406 74.9854H103.382L105.373 80.3699L107.318 74.9854H109.201L106.253 82.5205ZM110.519 82.5205V74.9854H112.294V82.5205H110.519ZM110.241 72.3396C110.241 72.0095 110.354 71.731 110.581 71.5041C110.807 71.2771 111.08 71.1637 111.399 71.1637C111.728 71.1637 112.006 71.2771 112.233 71.5041C112.459 71.731 112.572 72.0095 112.572 72.3396C112.572 72.6697 112.459 72.9482 112.233 73.1751C112.006 73.3917 111.728 73.5 111.399 73.5C111.08 73.5 110.807 73.3917 110.581 73.1751C110.354 72.9482 110.241 72.6697 110.241 72.3396ZM119.544 77.9252C119.534 77.7086 119.487 77.5023 119.405 77.3063C119.333 77.1 119.22 76.9195 119.065 76.7647C118.911 76.61 118.721 76.4862 118.494 76.3934C118.268 76.3006 118 76.2541 117.692 76.2541C117.414 76.2541 117.162 76.3057 116.935 76.4089C116.719 76.5017 116.534 76.6306 116.38 76.7957C116.225 76.9504 116.102 77.1309 116.009 77.3372C115.917 77.5332 115.865 77.7292 115.855 77.9252H119.544ZM121.257 80.3699C121.154 80.6999 121.005 81.0094 120.81 81.2982C120.614 81.587 120.372 81.8398 120.084 82.0564C119.796 82.273 119.467 82.4432 119.096 82.567C118.726 82.6907 118.314 82.7526 117.861 82.7526C117.347 82.7526 116.858 82.665 116.395 82.4896C115.932 82.3039 115.525 82.0409 115.176 81.7005C114.826 81.3498 114.543 80.9269 114.327 80.4317C114.121 79.9263 114.018 79.3538 114.018 78.7143C114.018 78.116 114.116 77.5745 114.311 77.0897C114.517 76.6049 114.79 76.1922 115.129 75.8519C115.469 75.5011 115.86 75.233 116.302 75.0473C116.745 74.8513 117.203 74.7533 117.676 74.7533C118.252 74.7533 118.767 74.8461 119.22 75.0318C119.683 75.2175 120.069 75.4805 120.377 75.8209C120.696 76.1613 120.938 76.5739 121.103 77.0587C121.268 77.5332 121.35 78.0696 121.35 78.6679C121.35 78.8123 121.345 78.9412 121.334 79.0547C121.324 79.1578 121.314 79.2197 121.304 79.2404H115.808C115.819 79.5292 115.88 79.7922 115.994 80.0295C116.107 80.2667 116.256 80.473 116.441 80.6484C116.627 80.8237 116.838 80.963 117.074 81.0661C117.321 81.159 117.584 81.2054 117.861 81.2054C118.407 81.2054 118.824 81.0816 119.112 80.834C119.41 80.5762 119.621 80.2615 119.745 79.8902L121.257 80.3699ZM129.068 74.9854L130.843 80.1997L132.34 74.9854H134.162L131.754 82.5205H129.963L128.095 77.1051L126.274 82.5205H124.437L121.998 74.9854H123.912L125.44 80.1997L127.215 74.9854H129.068ZM139.356 82.5205V71.3184H141.115V75.9137C141.29 75.6146 141.578 75.3516 141.98 75.1246C142.391 74.8977 142.89 74.7842 143.477 74.7842C144.043 74.7842 144.542 74.8874 144.974 75.0937C145.407 75.2897 145.767 75.5682 146.055 75.9292C146.353 76.2799 146.574 76.6925 146.719 77.167C146.873 77.6415 146.95 78.1573 146.95 78.7143C146.95 79.2816 146.868 79.8128 146.703 80.308C146.538 80.7928 146.302 81.2157 145.993 81.5767C145.695 81.9274 145.324 82.2059 144.882 82.4122C144.449 82.6082 143.961 82.7062 143.415 82.7062C142.88 82.7062 142.412 82.5979 142.011 82.3813C141.62 82.1647 141.316 81.8759 141.1 81.5148V82.5205H139.356ZM145.144 78.7298C145.144 77.9768 144.954 77.3991 144.573 76.9968C144.203 76.5842 143.719 76.3779 143.122 76.3779C142.546 76.3779 142.062 76.5842 141.671 76.9968C141.29 77.3991 141.1 77.9768 141.1 78.7298C141.1 79.1011 141.151 79.4363 141.254 79.7355C141.357 80.0243 141.496 80.2719 141.671 80.4782C141.856 80.6845 142.072 80.8443 142.319 80.9578C142.566 81.061 142.834 81.1125 143.122 81.1125C143.709 81.1125 144.192 80.9011 144.573 80.4782C144.954 80.0552 145.144 79.4724 145.144 78.7298ZM153.611 77.9252C153.601 77.7086 153.555 77.5023 153.473 77.3063C153.401 77.1 153.287 76.9195 153.133 76.7647C152.979 76.61 152.788 76.4862 152.562 76.3934C152.335 76.3006 152.068 76.2541 151.759 76.2541C151.481 76.2541 151.229 76.3057 151.003 76.4089C150.787 76.5017 150.602 76.6306 150.447 76.7957C150.293 76.9504 150.169 77.1309 150.077 77.3372C149.984 77.5332 149.933 77.7292 149.922 77.9252H153.611ZM155.325 80.3699C155.222 80.6999 155.073 81.0094 154.877 81.2982C154.682 81.587 154.44 81.8398 154.152 82.0564C153.864 82.273 153.534 82.4432 153.164 82.567C152.793 82.6907 152.382 82.7526 151.929 82.7526C151.414 82.7526 150.926 82.665 150.463 82.4896C149.999 82.3039 149.593 82.0409 149.243 81.7005C148.893 81.3498 148.61 80.9269 148.394 80.4317C148.188 79.9263 148.085 79.3538 148.085 78.7143C148.085 78.116 148.183 77.5745 148.379 77.0897C148.585 76.6049 148.857 76.1922 149.197 75.8519C149.536 75.5011 149.927 75.233 150.37 75.0473C150.812 74.8513 151.27 74.7533 151.744 74.7533C152.32 74.7533 152.835 74.8461 153.287 75.0318C153.75 75.2175 154.136 75.4805 154.445 75.8209C154.764 76.1613 155.006 76.5739 155.17 77.0587C155.335 77.5332 155.417 78.0696 155.417 78.6679C155.417 78.8123 155.412 78.9412 155.402 79.0547C155.392 79.1578 155.381 79.2197 155.371 79.2404H149.876C149.886 79.5292 149.948 79.7922 150.061 80.0295C150.174 80.2667 150.324 80.473 150.509 80.6484C150.694 80.8237 150.905 80.963 151.142 81.0661C151.389 81.159 151.651 81.2054 151.929 81.2054C152.474 81.2054 152.891 81.0816 153.179 80.834C153.478 80.5762 153.689 80.2615 153.812 79.8902L155.325 80.3699ZM160.462 72.8502C160.339 72.8502 160.21 72.8656 160.076 72.8966C159.953 72.9275 159.835 72.9894 159.721 73.0823C159.619 73.1648 159.531 73.2834 159.459 73.4381C159.387 73.5825 159.351 73.7682 159.351 73.9951V74.9854H161.095V76.5481H159.351V82.5205H157.545V76.5481H156.233V74.9854H157.545V73.9487C157.545 73.5258 157.607 73.1493 157.73 72.8192C157.864 72.4788 158.044 72.1952 158.271 71.9682C158.507 71.731 158.785 71.5505 159.104 71.4267C159.423 71.3029 159.778 71.241 160.169 71.241C160.395 71.241 160.591 71.2616 160.756 71.3029C160.931 71.3339 161.049 71.3648 161.111 71.3957V72.9275C161.059 72.9069 160.982 72.8914 160.879 72.8811C160.776 72.8605 160.637 72.8502 160.462 72.8502ZM165.602 81.1435C165.879 81.1435 166.142 81.0919 166.389 80.9888C166.646 80.8856 166.873 80.736 167.068 80.5401C167.264 80.3338 167.418 80.081 167.531 79.7819C167.644 79.4828 167.701 79.1372 167.701 78.7452C167.701 78.3533 167.644 78.0129 167.531 77.724C167.418 77.4249 167.264 77.1773 167.068 76.9814C166.873 76.7751 166.646 76.6255 166.389 76.5326C166.142 76.4295 165.879 76.3779 165.602 76.3779C165.324 76.3779 165.056 76.4295 164.799 76.5326C164.552 76.6255 164.331 76.7751 164.135 76.9814C163.95 77.1773 163.796 77.4249 163.672 77.724C163.559 78.0129 163.502 78.3533 163.502 78.7452C163.502 79.1372 163.559 79.4828 163.672 79.7819C163.796 80.081 163.95 80.3338 164.135 80.5401C164.331 80.736 164.552 80.8856 164.799 80.9888C165.056 81.0919 165.324 81.1435 165.602 81.1435ZM165.602 74.7533C166.168 74.7533 166.687 74.8564 167.161 75.0627C167.634 75.2587 168.046 75.5372 168.396 75.8983C168.745 76.249 169.018 76.6667 169.214 77.1516C169.409 77.6364 169.507 78.1676 169.507 78.7452C169.507 79.3229 169.409 79.8593 169.214 80.3544C169.018 80.8392 168.745 81.2621 168.396 81.6231C168.046 81.9738 167.634 82.2524 167.161 82.4587C166.687 82.6546 166.168 82.7526 165.602 82.7526C165.046 82.7526 164.526 82.6546 164.043 82.4587C163.569 82.2524 163.158 81.9738 162.808 81.6231C162.468 81.2621 162.201 80.8392 162.005 80.3544C161.81 79.8593 161.712 79.3229 161.712 78.7452C161.712 78.1676 161.81 77.6364 162.005 77.1516C162.201 76.6667 162.468 76.249 162.808 75.8983C163.158 75.5372 163.569 75.2587 164.043 75.0627C164.526 74.8564 165.046 74.7533 165.602 74.7533ZM175.637 76.7647C175.431 76.7338 175.235 76.7183 175.05 76.7183C174.35 76.7183 173.836 76.9091 173.506 77.2908C173.187 77.6725 173.028 78.2192 173.028 78.9309V82.5205H171.237V74.9854H172.982V76.1923C173.157 75.7796 173.44 75.4599 173.831 75.233C174.222 75.006 174.664 74.8926 175.158 74.8926C175.271 74.8926 175.369 74.8977 175.451 74.908C175.534 74.9183 175.595 74.9287 175.637 74.939V76.7647ZM181.995 77.9252C181.985 77.7086 181.939 77.5023 181.856 77.3063C181.784 77.1 181.671 76.9195 181.517 76.7647C181.362 76.61 181.172 76.4862 180.946 76.3934C180.719 76.3006 180.452 76.2541 180.143 76.2541C179.865 76.2541 179.613 76.3057 179.387 76.4089C179.171 76.5017 178.985 76.6306 178.831 76.7957C178.677 76.9504 178.553 77.1309 178.46 77.3372C178.368 77.5332 178.316 77.7292 178.306 77.9252H181.995ZM183.709 80.3699C183.606 80.6999 183.457 81.0094 183.261 81.2982C183.065 81.587 182.824 81.8398 182.535 82.0564C182.247 82.273 181.918 82.4432 181.548 82.567C181.177 82.6907 180.766 82.7526 180.313 82.7526C179.798 82.7526 179.309 82.665 178.846 82.4896C178.383 82.3039 177.977 82.0409 177.627 81.7005C177.277 81.3498 176.994 80.9269 176.778 80.4317C176.572 79.9263 176.469 79.3538 176.469 78.7143C176.469 78.116 176.567 77.5745 176.763 77.0897C176.968 76.6049 177.241 76.1922 177.581 75.8519C177.92 75.5011 178.311 75.233 178.754 75.0473C179.196 74.8513 179.654 74.7533 180.128 74.7533C180.704 74.7533 181.218 74.8461 181.671 75.0318C182.134 75.2175 182.52 75.4805 182.829 75.8209C183.148 76.1613 183.39 76.5739 183.554 77.0587C183.719 77.5332 183.801 78.0696 183.801 78.6679C183.801 78.8123 183.796 78.9412 183.786 79.0547C183.776 79.1578 183.765 79.2197 183.755 79.2404H178.26C178.27 79.5292 178.332 79.7922 178.445 80.0295C178.558 80.2667 178.707 80.473 178.893 80.6484C179.078 80.8237 179.289 80.963 179.526 81.0661C179.773 81.159 180.035 81.2054 180.313 81.2054C180.858 81.2054 181.275 81.0816 181.563 80.834C181.861 80.5762 182.072 80.2615 182.196 79.8902L183.709 80.3699ZM191.132 82.5205H189.341V74.9854H191.085V75.9911C191.332 75.5579 191.656 75.2484 192.058 75.0627C192.469 74.8668 192.886 74.7688 193.308 74.7688C193.771 74.7688 194.172 74.8461 194.512 75.0009C194.852 75.1556 195.129 75.3722 195.345 75.6507C195.572 75.9189 195.742 76.2335 195.855 76.5945C195.968 76.9556 196.025 77.3424 196.025 77.755V82.5205H194.234V78.0644C194.234 77.6003 194.116 77.2083 193.879 76.8885C193.653 76.5584 193.256 76.3934 192.691 76.3934C192.176 76.3934 191.785 76.5688 191.517 76.9195C191.26 77.2599 191.132 77.6776 191.132 78.1727V82.5205ZM203.144 77.9252C203.134 77.7086 203.087 77.5023 203.005 77.3063C202.933 77.1 202.82 76.9195 202.665 76.7647C202.511 76.61 202.321 76.4862 202.094 76.3934C201.868 76.3006 201.6 76.2541 201.292 76.2541C201.014 76.2541 200.762 76.3057 200.535 76.4089C200.319 76.5017 200.134 76.6306 199.98 76.7957C199.825 76.9504 199.702 77.1309 199.609 77.3372C199.517 77.5332 199.465 77.7292 199.455 77.9252H203.144ZM204.857 80.3699C204.754 80.6999 204.605 81.0094 204.41 81.2982C204.214 81.587 203.972 81.8398 203.684 82.0564C203.396 82.273 203.067 82.4432 202.696 82.567C202.326 82.6907 201.914 82.7526 201.461 82.7526C200.947 82.7526 200.458 82.665 199.995 82.4896C199.532 82.3039 199.126 82.0409 198.776 81.7005C198.426 81.3498 198.143 80.9269 197.927 80.4317C197.721 79.9263 197.618 79.3538 197.618 78.7143C197.618 78.116 197.716 77.5745 197.911 77.0897C198.117 76.6049 198.39 76.1922 198.729 75.8519C199.069 75.5011 199.46 75.233 199.902 75.0473C200.345 74.8513 200.803 74.7533 201.276 74.7533C201.852 74.7533 202.367 74.8461 202.82 75.0318C203.283 75.2175 203.669 75.4805 203.977 75.8209C204.296 76.1613 204.538 76.5739 204.703 77.0587C204.868 77.5332 204.95 78.0696 204.95 78.6679C204.95 78.8123 204.945 78.9412 204.935 79.0547C204.924 79.1578 204.914 79.2197 204.904 79.2404H199.409C199.419 79.5292 199.481 79.7922 199.594 80.0295C199.707 80.2667 199.856 80.473 200.041 80.6484C200.227 80.8237 200.438 80.963 200.674 81.0661C200.921 81.159 201.184 81.2054 201.461 81.2054C202.007 81.2054 202.424 81.0816 202.712 80.834C203.01 80.5762 203.221 80.2615 203.345 79.8902L204.857 80.3699ZM208.3 78.7143L205.615 74.9854H207.745C207.765 75.0267 207.817 75.1092 207.899 75.233C207.992 75.3567 208.095 75.5011 208.208 75.6662C208.321 75.8312 208.439 76.0117 208.563 76.2077C208.697 76.3934 208.82 76.5687 208.933 76.7338C209.046 76.8988 209.144 77.0432 209.226 77.167C209.319 77.2908 209.376 77.3682 209.396 77.3991L211.032 74.9854H213.07L210.43 78.6833L213.163 82.5205H211.063L209.319 79.9985C209.288 80.0398 209.232 80.1275 209.149 80.2615C209.067 80.3853 208.964 80.5349 208.841 80.7102C208.727 80.8753 208.604 81.061 208.47 81.2673C208.336 81.4633 208.208 81.6489 208.084 81.8243C207.971 81.9893 207.868 82.1389 207.776 82.273C207.693 82.3968 207.642 82.4793 207.621 82.5205H205.568L208.3 78.7143ZM216.844 74.9854H218.403V76.5791H216.844V80.0759C216.844 80.406 216.921 80.6484 217.076 80.8031C217.23 80.9475 217.472 81.0197 217.801 81.0197C217.925 81.0197 218.048 81.0145 218.172 81.0042C218.295 80.9836 218.377 80.9681 218.419 80.9578V82.4432C218.367 82.4638 218.254 82.4948 218.079 82.536C217.904 82.5876 217.652 82.6134 217.323 82.6134C216.623 82.6134 216.072 82.4174 215.671 82.0254C215.27 81.6335 215.069 81.0816 215.069 80.3699V76.5791H213.68V74.9854H214.066C214.467 74.9854 214.76 74.8719 214.945 74.645C215.131 74.4181 215.223 74.1396 215.223 73.8095V72.68H216.844V74.9854ZM224.937 80.0449C224.968 80.3853 225.106 80.6845 225.353 80.9423C225.611 81.2002 225.981 81.3292 226.465 81.3292C226.835 81.3292 227.113 81.2466 227.298 81.0816C227.494 80.9062 227.592 80.6999 227.592 80.4627C227.592 80.2564 227.52 80.081 227.376 79.9366C227.231 79.7922 227.01 79.6891 226.712 79.6272L225.6 79.3796C224.932 79.2352 224.427 78.967 224.088 78.575C223.748 78.1727 223.578 77.7086 223.578 77.1825C223.578 76.8524 223.65 76.543 223.794 76.2541C223.938 75.955 224.134 75.6971 224.381 75.4805C224.628 75.2536 224.916 75.0782 225.245 74.9544C225.585 74.8203 225.95 74.7533 226.341 74.7533C226.866 74.7533 227.303 74.8307 227.653 74.9854C228.014 75.1298 228.307 75.3103 228.533 75.5269C228.76 75.7435 228.924 75.9756 229.027 76.2232C229.14 76.4604 229.212 76.6719 229.243 76.8576L227.731 77.2908C227.71 77.1877 227.674 77.069 227.622 76.9349C227.571 76.8008 227.489 76.6771 227.376 76.5636C227.273 76.4501 227.134 76.3573 226.959 76.2851C226.794 76.2026 226.588 76.1613 226.341 76.1613C226.022 76.1613 225.76 76.249 225.554 76.4243C225.359 76.5894 225.261 76.7905 225.261 77.0278C225.261 77.2341 225.328 77.4043 225.461 77.5384C225.595 77.6725 225.78 77.7653 226.017 77.8169L227.159 78.049C227.869 78.2037 228.405 78.4874 228.765 78.9C229.135 79.3022 229.32 79.7819 229.32 80.3389C229.32 80.6277 229.259 80.9166 229.135 81.2054C229.022 81.4839 228.847 81.7418 228.61 81.979C228.384 82.2059 228.091 82.3916 227.731 82.536C227.37 82.6804 226.954 82.7526 226.48 82.7526C225.935 82.7526 225.472 82.6753 225.091 82.5205C224.71 82.3658 224.396 82.175 224.149 81.9481C223.902 81.7108 223.717 81.4633 223.594 81.2054C223.47 80.9372 223.398 80.6948 223.378 80.4782L224.937 80.0449ZM235.99 77.9252C235.98 77.7086 235.934 77.5023 235.851 77.3063C235.779 77.1 235.666 76.9195 235.512 76.7647C235.358 76.61 235.167 76.4862 234.941 76.3934C234.714 76.3006 234.447 76.2541 234.138 76.2541C233.86 76.2541 233.608 76.3057 233.382 76.4089C233.166 76.5017 232.98 76.6306 232.826 76.7957C232.672 76.9504 232.548 77.1309 232.456 77.3372C232.363 77.5332 232.312 77.7292 232.301 77.9252H235.99ZM237.704 80.3699C237.601 80.6999 237.452 81.0094 237.256 81.2982C237.061 81.587 236.819 81.8398 236.531 82.0564C236.243 82.273 235.913 82.4432 235.543 82.567C235.172 82.6907 234.761 82.7526 234.308 82.7526C233.793 82.7526 233.305 82.665 232.841 82.4896C232.378 82.3039 231.972 82.0409 231.622 81.7005C231.272 81.3498 230.989 80.9269 230.773 80.4317C230.567 79.9263 230.464 79.3538 230.464 78.7143C230.464 78.116 230.562 77.5745 230.758 77.0897C230.963 76.6049 231.236 76.1922 231.576 75.8519C231.915 75.5011 232.306 75.233 232.749 75.0473C233.191 74.8513 233.649 74.7533 234.123 74.7533C234.699 74.7533 235.213 74.8461 235.666 75.0318C236.129 75.2175 236.515 75.4805 236.824 75.8209C237.143 76.1613 237.385 76.5739 237.549 77.0587C237.714 77.5332 237.796 78.0696 237.796 78.6679C237.796 78.8123 237.791 78.9412 237.781 79.0547C237.771 79.1578 237.76 79.2197 237.75 79.2404H232.255C232.265 79.5292 232.327 79.7922 232.44 80.0295C232.553 80.2667 232.703 80.473 232.888 80.6484C233.073 80.8237 233.284 80.963 233.521 81.0661C233.768 81.159 234.03 81.2054 234.308 81.2054C234.853 81.2054 235.27 81.0816 235.558 80.834C235.857 80.5762 236.068 80.2615 236.191 79.8902L237.704 80.3699ZM240.402 80.0449C240.433 80.3853 240.572 80.6845 240.819 80.9423C241.076 81.2002 241.447 81.3292 241.931 81.3292C242.301 81.3292 242.579 81.2466 242.764 81.0816C242.96 80.9062 243.057 80.6999 243.057 80.4627C243.057 80.2564 242.985 80.081 242.841 79.9366C242.697 79.7922 242.476 79.6891 242.178 79.6272L241.066 79.3796C240.397 79.2352 239.893 78.967 239.553 78.575C239.214 78.1727 239.044 77.7086 239.044 77.1825C239.044 76.8524 239.116 76.543 239.26 76.2541C239.404 75.955 239.6 75.6971 239.847 75.4805C240.094 75.2536 240.382 75.0782 240.711 74.9544C241.051 74.8203 241.416 74.7533 241.807 74.7533C242.332 74.7533 242.769 74.8307 243.119 74.9854C243.479 75.1298 243.773 75.3103 243.999 75.5269C244.225 75.7435 244.39 75.9756 244.493 76.2232C244.606 76.4604 244.678 76.6719 244.709 76.8576L243.196 77.2908C243.176 77.1877 243.14 77.069 243.088 76.9349C243.037 76.8008 242.955 76.6771 242.841 76.5636C242.738 76.4501 242.599 76.3573 242.425 76.2851C242.26 76.2026 242.054 76.1613 241.807 76.1613C241.488 76.1613 241.226 76.249 241.02 76.4243C240.824 76.5894 240.727 76.7905 240.727 77.0278C240.727 77.2341 240.793 77.4043 240.927 77.5384C241.061 77.6725 241.246 77.7653 241.483 77.8169L242.625 78.049C243.335 78.2037 243.87 78.4874 244.231 78.9C244.601 79.3022 244.786 79.7819 244.786 80.3389C244.786 80.6277 244.724 80.9166 244.601 81.2054C244.488 81.4839 244.313 81.7418 244.076 81.979C243.85 82.2059 243.556 82.3916 243.196 82.536C242.836 82.6804 242.419 82.7526 241.946 82.7526C241.401 82.7526 240.938 82.6753 240.557 82.5205C240.176 82.3658 239.862 82.175 239.615 81.9481C239.368 81.7108 239.183 81.4633 239.06 81.2054C238.936 80.9372 238.864 80.6948 238.843 80.4782L240.402 80.0449ZM247.457 80.0449C247.488 80.3853 247.627 80.6845 247.874 80.9423C248.131 81.2002 248.502 81.3292 248.986 81.3292C249.356 81.3292 249.634 81.2466 249.819 81.0816C250.015 80.9062 250.112 80.6999 250.112 80.4627C250.112 80.2564 250.04 80.081 249.896 79.9366C249.752 79.7922 249.531 79.6891 249.233 79.6272L248.121 79.3796C247.452 79.2352 246.948 78.967 246.608 78.575C246.269 78.1727 246.099 77.7086 246.099 77.1825C246.099 76.8524 246.171 76.543 246.315 76.2541C246.459 75.955 246.655 75.6971 246.902 75.4805C247.149 75.2536 247.437 75.0782 247.766 74.9544C248.106 74.8203 248.471 74.7533 248.862 74.7533C249.387 74.7533 249.824 74.8307 250.174 74.9854C250.534 75.1298 250.828 75.3103 251.054 75.5269C251.28 75.7435 251.445 75.9756 251.548 76.2232C251.661 76.4604 251.733 76.6719 251.764 76.8576L250.251 77.2908C250.231 77.1877 250.195 77.069 250.143 76.9349C250.092 76.8008 250.009 76.6771 249.896 76.5636C249.793 76.4501 249.654 76.3573 249.48 76.2851C249.315 76.2026 249.109 76.1613 248.862 76.1613C248.543 76.1613 248.281 76.249 248.075 76.4243C247.879 76.5894 247.782 76.7905 247.782 77.0278C247.782 77.2341 247.848 77.4043 247.982 77.5384C248.116 77.6725 248.301 77.7653 248.538 77.8169L249.68 78.049C250.39 78.2037 250.925 78.4874 251.286 78.9C251.656 79.3022 251.841 79.7819 251.841 80.3389C251.841 80.6277 251.779 80.9166 251.656 81.2054C251.543 81.4839 251.368 81.7418 251.131 81.979C250.905 82.2059 250.611 82.3916 250.251 82.536C249.891 82.6804 249.474 82.7526 249.001 82.7526C248.456 82.7526 247.993 82.6753 247.612 82.5205C247.231 82.3658 246.917 82.175 246.67 81.9481C246.423 81.7108 246.238 81.4633 246.115 81.2054C245.991 80.9372 245.919 80.6948 245.898 80.4782L247.457 80.0449ZM253.616 82.5205V74.9854H255.391V82.5205H253.616ZM253.338 72.3396C253.338 72.0095 253.452 71.731 253.678 71.5041C253.904 71.2771 254.177 71.1637 254.496 71.1637C254.825 71.1637 255.103 71.2771 255.33 71.5041C255.556 71.731 255.669 72.0095 255.669 72.3396C255.669 72.6697 255.556 72.9482 255.33 73.1751C255.103 73.3917 254.825 73.5 254.496 73.5C254.177 73.5 253.904 73.3917 253.678 73.1751C253.452 72.9482 253.338 72.6697 253.338 72.3396ZM261.005 81.1435C261.283 81.1435 261.545 81.0919 261.792 80.9888C262.049 80.8856 262.276 80.736 262.471 80.5401C262.667 80.3338 262.821 80.081 262.934 79.7819C263.048 79.4828 263.104 79.1372 263.104 78.7452C263.104 78.3533 263.048 78.0129 262.934 77.724C262.821 77.4249 262.667 77.1773 262.471 76.9814C262.276 76.7751 262.049 76.6255 261.792 76.5326C261.545 76.4295 261.283 76.3779 261.005 76.3779C260.727 76.3779 260.459 76.4295 260.202 76.5326C259.955 76.6255 259.734 76.7751 259.538 76.9814C259.353 77.1773 259.199 77.4249 259.075 77.724C258.962 78.0129 258.906 78.3533 258.906 78.7452C258.906 79.1372 258.962 79.4828 259.075 79.7819C259.199 80.081 259.353 80.3338 259.538 80.5401C259.734 80.736 259.955 80.8856 260.202 80.9888C260.459 81.0919 260.727 81.1435 261.005 81.1435ZM261.005 74.7533C261.571 74.7533 262.091 74.8564 262.564 75.0627C263.037 75.2587 263.449 75.5372 263.799 75.8983C264.149 76.249 264.421 76.6667 264.617 77.1516C264.812 77.6364 264.91 78.1676 264.91 78.7452C264.91 79.3229 264.812 79.8593 264.617 80.3544C264.421 80.8392 264.149 81.2621 263.799 81.6231C263.449 81.9738 263.037 82.2524 262.564 82.4587C262.091 82.6546 261.571 82.7526 261.005 82.7526C260.449 82.7526 259.93 82.6546 259.446 82.4587C258.972 82.2524 258.561 81.9738 258.211 81.6231C257.871 81.2621 257.604 80.8392 257.408 80.3544C257.213 79.8593 257.115 79.3229 257.115 78.7452C257.115 78.1676 257.213 77.6364 257.408 77.1516C257.604 76.6667 257.871 76.249 258.211 75.8983C258.561 75.5372 258.972 75.2587 259.446 75.0627C259.93 74.8564 260.449 74.7533 261.005 74.7533ZM268.431 82.5205H266.641V74.9854H268.385V75.9911C268.632 75.5579 268.956 75.2484 269.357 75.0627C269.769 74.8668 270.186 74.7688 270.608 74.7688C271.071 74.7688 271.472 74.8461 271.812 75.0009C272.151 75.1556 272.429 75.3722 272.645 75.6507C272.872 75.9189 273.041 76.2335 273.155 76.5945C273.268 76.9556 273.324 77.3424 273.324 77.755V82.5205H271.534V78.0644C271.534 77.6003 271.415 77.2083 271.179 76.8885C270.952 76.5584 270.556 76.3934 269.99 76.3934C269.476 76.3934 269.085 76.5688 268.817 76.9195C268.56 77.2599 268.431 77.6776 268.431 78.1727V82.5205Z" fill="black"/>
<path d="M41.162 127.219C41.162 125.32 42.6978 123.781 44.5922 123.781H97.331L102.372 128.613L107.193 133.236V201.144C107.193 203.043 105.657 204.582 103.763 204.582H44.5922C42.6978 204.582 41.162 203.043 41.162 201.144V127.219Z" fill="#FFF8E1"/>
<path d="M102.428 129.562L108.574 135.815H97.7598C96.3388 135.815 95.1872 134.661 95.1872 133.236V123.116L102.428 129.562Z" fill="#FFF8E1"/>
<path fill-rule="evenodd" clip-rule="evenodd" d="M94.1872 120.886L103.118 128.838L110.959 136.815H97.7598C95.7843 136.815 94.1872 135.211 94.1872 133.236V120.886ZM96.1872 125.345V133.236C96.1872 134.111 96.8934 134.815 97.7598 134.815H106.189L101.738 130.287L96.1872 125.345Z" fill="white"/>
<path d="M81.0377 158.164H68.1746C64.6225 158.164 61.743 161.051 61.743 164.611C61.743 168.172 64.6225 171.058 68.1746 171.058H81.0377C84.5898 171.058 87.4693 168.172 87.4693 164.611C87.4693 161.051 84.5898 158.164 81.0377 158.164Z" fill="#FED758"/>
<path d="M69.5651 164.595C69.7966 164.595 69.9844 164.533 70.1285 164.409C70.2726 164.286 70.3446 164.115 70.3446 163.899C70.3446 163.677 70.2726 163.504 70.1285 163.38C69.9844 163.257 69.7966 163.195 69.5651 163.195H68.855V164.595H69.5651ZM68.8473 165.647V167.62H67.6279V162.135H69.6886C69.9664 162.135 70.2185 162.179 70.4449 162.266C70.6765 162.354 70.8745 162.475 71.0392 162.63C71.209 162.785 71.3376 162.97 71.4251 163.187C71.5177 163.404 71.564 163.638 71.564 163.891C71.564 164.149 71.5177 164.386 71.4251 164.603C71.3376 164.819 71.209 165.005 71.0392 165.16C70.8745 165.314 70.6765 165.436 70.4449 165.523C70.2185 165.606 69.9664 165.647 69.6886 165.647H68.8473ZM74.4844 166.467C74.6953 166.467 74.8934 166.436 75.0786 166.374C75.2639 166.312 75.4259 166.217 75.5649 166.088C75.7038 165.959 75.8118 165.794 75.889 165.593C75.9714 165.392 76.0125 165.155 76.0125 164.881C76.0125 164.608 75.9714 164.371 75.889 164.169C75.8118 163.968 75.7038 163.803 75.5649 163.674C75.4259 163.54 75.2639 163.442 75.0786 163.38C74.8934 163.318 74.6953 163.288 74.4844 163.288H73.7743V166.467H74.4844ZM72.5549 167.62V162.135H74.5384C74.95 162.135 75.323 162.199 75.6575 162.328C75.9971 162.452 76.2878 162.633 76.5296 162.87C76.7714 163.107 76.9567 163.396 77.0853 163.736C77.2191 164.077 77.286 164.458 77.286 164.881C77.286 165.304 77.2191 165.686 77.0853 166.026C76.9567 166.361 76.7714 166.648 76.5296 166.885C76.2878 167.122 75.9971 167.305 75.6575 167.434C75.3179 167.558 74.9423 167.62 74.5307 167.62H72.5549ZM78.3864 167.62V162.135H81.9135V163.295H79.6059V164.456H81.6357V165.57H79.6136V167.62H78.3864Z" fill="white"/>
<path d="M120.056 127.219C120.056 125.32 121.592 123.781 123.486 123.781H176.225L181.265 128.613L186.087 133.236V201.144C186.087 203.043 184.551 204.582 182.656 204.582H123.486C121.592 204.582 120.056 203.043 120.056 201.144V127.219Z" fill="#EFF7FD"/>
<path d="M181.322 129.562L187.468 135.815H176.654C175.233 135.815 174.081 134.661 174.081 133.236V123.116L181.322 129.562Z" fill="#EFF7FD"/>
<path fill-rule="evenodd" clip-rule="evenodd" d="M173.081 120.886L182.012 128.838L189.853 136.815H176.654C174.678 136.815 173.081 135.211 173.081 133.236V120.886ZM175.081 125.345V133.236C175.081 134.111 175.787 134.815 176.654 134.815H185.083L180.632 130.287L175.081 125.345Z" fill="white"/>
<path d="M164.219 158.164H147.068C143.516 158.164 140.637 161.051 140.637 164.611C140.637 168.172 143.516 171.058 147.068 171.058H164.219C167.771 171.058 170.651 168.172 170.651 164.611C170.651 161.051 167.771 158.164 164.219 158.164Z" fill="#588DFA"/>
<path d="M146.779 167.62V162.135H147.998V166.452H150.36V167.62H146.779ZM151.382 167.62V162.135H152.617V167.62H151.382ZM157.498 167.62L155.244 164.015V167.62H154.033V162.135H155.514L157.567 165.469V162.135H158.787V167.62H157.498ZM162.033 165.461L161.415 166.15V167.62H160.196V162.135H161.415V164.44L163.414 162.135H165.019L162.889 164.51L165.027 167.62H163.507L162.033 165.461Z" fill="white"/>
<path d="M198.95 127.219C198.95 125.32 200.486 123.781 202.38 123.781H255.119L260.159 128.613L264.98 133.236V201.144C264.98 203.043 263.445 204.582 261.55 204.582H202.38C200.486 204.582 198.95 203.043 198.95 201.144V127.219Z" fill="#F3FFCF"/>
<path d="M260.216 129.562L266.362 135.815H255.547C254.127 135.815 252.975 134.661 252.975 133.236V123.116L260.216 129.562Z" fill="#AEC569"/>
<path fill-rule="evenodd" clip-rule="evenodd" d="M251.975 120.886L260.906 128.838L268.747 136.815H255.547C253.572 136.815 251.975 135.211 251.975 133.236V120.886ZM253.975 125.345V133.236C253.975 134.111 254.681 134.815 255.547 134.815H263.977L259.526 130.287L253.975 125.345Z" fill="white"/>
<path d="M241.398 158.164H225.962C222.41 158.164 219.531 161.051 219.531 164.611C219.531 168.172 222.41 171.058 225.962 171.058H241.398C244.95 171.058 247.83 168.172 247.83 164.611C247.83 161.051 244.95 158.164 241.398 158.164Z" fill="#AEC569"/>
<path d="M227.625 164.595C227.857 164.595 228.044 164.533 228.188 164.409C228.333 164.286 228.405 164.115 228.405 163.899C228.405 163.677 228.333 163.504 228.188 163.38C228.044 163.257 227.857 163.195 227.625 163.195H226.915V164.595H227.625ZM226.907 165.647V167.62H225.688V162.135H227.749C228.026 162.135 228.279 162.179 228.505 162.266C228.736 162.354 228.935 162.475 229.099 162.63C229.269 162.785 229.398 162.97 229.485 163.187C229.578 163.404 229.624 163.638 229.624 163.891C229.624 164.149 229.578 164.386 229.485 164.603C229.398 164.819 229.269 165.005 229.099 165.16C228.935 165.314 228.736 165.436 228.505 165.523C228.279 165.606 228.026 165.647 227.749 165.647H226.907ZM234.081 167.62L231.827 164.015V167.62H230.615V162.135H232.097L234.15 165.469V162.135H235.37V167.62H234.081ZM240.846 167.62L240.769 167.063C240.65 167.238 240.462 167.396 240.205 167.535C239.948 167.669 239.624 167.736 239.233 167.736C238.852 167.736 238.492 167.669 238.152 167.535C237.818 167.401 237.525 167.21 237.272 166.962C237.025 166.71 236.827 166.408 236.678 166.057C236.534 165.706 236.462 165.314 236.462 164.881C236.462 164.448 236.537 164.056 236.686 163.705C236.84 163.355 237.046 163.055 237.303 162.808C237.566 162.555 237.869 162.362 238.214 162.228C238.559 162.088 238.924 162.019 239.31 162.019C239.701 162.019 240.041 162.073 240.329 162.181C240.622 162.284 240.869 162.419 241.07 162.584C241.275 162.743 241.44 162.924 241.564 163.125C241.687 163.326 241.78 163.522 241.841 163.713L240.668 164.123C240.648 164.041 240.607 163.945 240.545 163.837C240.488 163.723 240.406 163.618 240.298 163.52C240.19 163.416 240.053 163.331 239.889 163.264C239.729 163.197 239.536 163.164 239.31 163.164C239.125 163.164 238.937 163.197 238.747 163.264C238.556 163.326 238.381 163.427 238.222 163.566C238.067 163.705 237.941 163.883 237.844 164.1C237.746 164.316 237.697 164.577 237.697 164.881C237.697 165.17 237.741 165.423 237.828 165.639C237.916 165.856 238.034 166.037 238.183 166.181C238.337 166.325 238.512 166.436 238.708 166.514C238.909 166.586 239.12 166.622 239.341 166.622C239.567 166.622 239.76 166.591 239.92 166.529C240.084 166.462 240.221 166.382 240.329 166.289C240.437 166.196 240.519 166.098 240.576 165.995C240.637 165.892 240.676 165.802 240.691 165.724H239.048V164.688H241.834V167.62H240.846Z" fill="white"/>
</svg>
