<svg width="461" height="363" viewBox="0 0 461 363" fill="none" xmlns="http://www.w3.org/2000/svg">
<path d="M22.5186 143.927C42.658 143.341 77.0709 146.1 93.065 162.984" stroke="black" stroke-width="9" stroke-linecap="round"/>
<path d="M231.494 223.67C231.13 217.515 230.12 212.689 228.916 208.118C227.928 204.33 226.724 198.795 225.343 194.868C225.09 194.149 225.622 193.161 226.238 192.68C226.844 192.207 227.359 192.397 227.96 192.794C229.571 193.855 230.127 195.566 230.745 197.209C233.477 204.474 236.318 213.831 236.673 221.491C237.095 230.599 237.386 238.761 233.677 249.088C230.918 256.982 228.421 261.018 224.456 268.421C224.007 269.267 223.612 270.178 222.911 270.889C221.988 271.824 220.561 272.235 219.66 271.667C218.572 270.98 218.493 269.919 218.719 268.735C219.09 266.798 220.431 265.066 221.221 263.301C222.175 261.09 223.051 259.277 224.565 255.949C225.7 253.395 226.654 251.342 227.524 248.989C228.558 246.232 229.007 244.933 229.977 242.163C230.853 239.68 231.288 237.142 231.528 234.58C231.953 230.084 231.379 226.34 231.494 223.67Z" fill="#090909"/>
<path d="M215.137 273.372L225.224 273.508C225.224 273.508 229.177 274.598 228.359 277.187C227.541 279.777 226.314 280.049 226.314 280.049C226.314 280.049 251.395 283.592 252.485 287.953C253.575 292.314 243.898 293.132 231.767 291.36C219.635 289.588 209.412 288.362 209.685 285.636C209.957 282.911 211.866 280.867 211.866 280.867C211.866 280.867 209.821 278.005 210.23 276.233C210.639 274.462 212.275 273.099 215.137 273.372Z" fill="#8236FE"/>
<path d="M232.604 192.622C231.456 194.314 230.751 196.237 229.805 198.035C227.697 202.04 225.605 206.057 223.675 210.149C222.487 212.667 221.316 215.203 220.216 217.755C219.324 219.826 218.767 222.055 217.693 224.067C217.129 225.121 216.319 226.013 215.469 226.826C214.234 228.007 211.028 227.487 209.941 225.848C208.362 223.464 206.636 221.196 204.906 218.926C202.334 215.552 198.503 209.191 194.679 204.819C188.914 198.229 178.732 187.713 176.874 185.904C173.778 182.567 154.737 166.154 146.922 161.605C142.171 158.839 119.82 150.687 119.203 150.481C119.166 150.149 121.822 147.989 121.969 147.9C125.339 145.854 127.938 142.628 131.039 140.19C142.599 131.101 151.201 122.56 160.607 111.314C166.09 104.758 173.923 93.9557 178.548 86.7758C182.442 80.7315 189.923 68.8548 190.796 67.2138C192.388 64.2235 193.838 61.1579 195.346 58.1229C196.42 55.9621 198.425 54.7398 200.54 54.3622C202.336 54.042 203.804 55.5866 204.699 57.2021C206.089 59.7095 207.381 62.2722 208.675 64.8318C211.162 69.7523 214.084 74.4153 217.17 78.9696C221.125 84.8043 225.431 90.3691 229.939 95.8009C235.659 102.693 241.87 109.083 248.379 115.209C253.952 120.454 259.856 125.298 266.098 129.72C270.823 133.068 275.66 136.251 280.98 138.615C281.197 138.712 282.378 140.086 282.393 140.331C281.817 140.991 259.061 156.069 241.532 179.505C238.298 183.988 233.84 187.169 232.604 192.622Z" fill="#FDD433"/>
<path d="M145.459 163.525C140.804 160.903 136.012 158.552 130.936 156.879C128.351 156.027 125.659 155.462 123.014 154.778C120.446 154.113 117.787 153.888 115.272 153.031C114.561 152.788 113.882 153.204 113.118 152.989C112.002 152.674 111.386 151.941 111.379 150.984C111.371 149.962 111.909 149.04 113.068 148.671C114.623 148.177 116.202 147.786 117.699 147.085C123.055 144.575 127.785 141.114 132.294 137.372C141.068 130.09 149.063 122.002 156.508 113.371C161.371 107.735 165.912 101.839 170.196 95.7608C172.999 91.7838 175.52 87.6066 178.001 83.4093C180.151 79.7722 182 76.0003 183.748 72.1673C183.784 72.0896 183.787 71.997 183.826 71.9215C184.32 70.9509 184.909 69.9389 186.1 69.9326C187.355 69.9261 187.667 71.0639 187.994 72.051C185.981 79.0063 182.576 85.2937 178.682 91.3379C174.057 98.5178 168.984 105.364 163.501 111.919C154.095 123.165 144.086 133.789 132.526 142.878C129.425 145.316 126.208 147.573 122.838 149.619C122.691 149.708 122.516 149.738 122.553 150.069C123.17 150.275 123.768 150.618 124.497 150.734C127.934 151.279 131.297 152.076 134.627 153.152C139.901 154.857 144.871 157.207 149.622 159.972C157.437 164.522 164.428 170.13 170.355 177.018C171.974 178.899 173.595 180.771 175.099 182.747C175.868 183.757 176.419 184.815 176.214 186.134C175.607 188.01 173.42 188.276 171.975 186.589C170.085 184.382 168.215 182.166 166.246 180.021C162.735 176.195 158.934 172.727 154.851 169.545C153.864 168.775 145.855 163.748 145.459 163.525Z" fill="#090909"/>
<path d="M232.606 192.624C233.841 187.171 236.481 182.393 239.716 177.909C247.383 167.283 256.424 157.938 266.502 149.603C270.538 146.266 274.639 142.982 279.21 140.354C279.931 139.939 280.785 139.733 281.361 139.073C281.968 138.881 282.612 138.764 283.173 138.482C284.239 137.946 285.067 138.163 285.702 139.119C286.315 140.042 285.638 140.767 285.143 141.376C284.061 142.708 282.503 143.455 281.098 144.395C273.968 149.165 267.436 154.673 261.464 160.814C255.491 166.957 249.677 173.256 244.533 180.132C241.67 183.959 239.097 187.968 236.823 192.175C236.368 193.018 235.752 193.801 235.094 194.503C234.308 195.343 233.382 195.044 233.065 193.949C232.935 193.5 232.76 193.065 232.606 192.624Z" fill="#090909"/>
<path d="M236.671 147.983C235.72 159.41 231.597 169.4 222.92 177.193C219.67 180.112 215.902 182.259 211.633 183.236C208.174 184.027 204.717 183.829 201.284 182.557C193.959 179.845 189.982 174.212 187.357 167.27C186.912 166.091 186.893 164.841 186.499 163.656C186.104 162.466 186.886 161.732 187.894 161.47C189.738 160.99 191.6 160.571 193.451 160.111C198.854 158.767 204.151 157.186 209.242 154.857C214.942 152.249 220.353 149.096 225.974 146.341C227.856 145.419 229.469 143.951 231.214 142.745C232.04 142.175 232.811 141.547 233.943 141.594C236.164 141.685 236.693 142.093 236.812 144.371C236.875 145.57 236.725 146.778 236.671 147.983Z" fill="#090909"/>
<path d="M199.841 135.281C198.956 142.84 196.226 149.378 189.289 153.387C183.257 156.872 176.134 155.462 171.97 150.244C169.831 147.566 168.521 144.548 168.196 141.081C168.097 140.02 167.885 138.967 167.954 137.894C168.043 136.52 168.875 135.503 170.059 135.48C171.242 135.456 171.839 136.071 172.23 137.284C172.603 138.445 172.566 139.625 172.854 140.783C173.759 144.437 175.396 147.494 178.811 149.321C181.42 150.717 184.121 150.413 186.64 149.169C190.886 147.072 193.418 143.478 194.954 139.079C195.949 136.227 196.132 133.276 196.256 130.305C196.28 129.746 196.299 129.184 196.362 128.628C196.415 128.163 196.453 127.661 197.051 127.514C197.699 127.355 198.107 127.676 198.467 128.162C199.018 128.903 199.335 129.807 199.421 130.64C199.579 132.173 200.07 133.691 199.841 135.281Z" fill="#090909"/>
<path d="M232.573 121.671C232.77 120.337 232.326 119.043 232.002 117.715C231.432 115.389 232.097 113.627 234.405 113.996C235.716 114.205 236.174 115.315 236.462 116.357C238.366 123.243 236.112 130.121 230.406 134.394C227.433 136.621 224.008 137.562 220.281 136.895C215.617 136.061 211.221 132.246 209.972 127.521C209.687 126.445 209.646 125.426 209.676 124.36C209.693 123.8 209.978 123.434 210.508 123.385C211.005 123.339 211.483 123.357 211.809 123.949C212.851 125.844 213.634 127.886 215.171 129.499C220.036 134.606 228.497 133.194 231.457 126.433C232.116 124.929 232.539 123.38 232.573 121.671Z" fill="#090909"/>
<path d="M223.02 306.3C216.032 306.3 209.042 306.394 202.056 306.274C195.072 306.154 188.107 305.593 181.144 305.026C174.656 304.497 168.217 303.585 161.763 302.784C156.403 302.119 151.339 300.423 146.411 298.291C142.359 296.54 138.453 294.517 134.954 291.789C130.458 288.285 128.601 283.65 129.711 278.113C130.563 273.869 133.336 270.901 137.188 268.908C140.984 266.943 145.122 266.685 149.238 266.425C156.477 265.966 163.722 266.27 170.965 266.463C180.626 266.72 190.286 266.757 199.94 266.201C200.669 266.159 201.391 266.012 202.117 265.92C204.216 265.651 205.887 266.535 206.113 268.03C206.377 269.781 205.024 271.314 202.813 271.506C200.11 271.742 197.417 272.128 194.692 272.116C186.109 272.081 177.522 272.277 168.943 271.977C164.675 271.828 160.413 271.654 156.142 271.688C151.916 271.722 147.685 271.813 143.532 272.632C139.724 273.382 136.175 275.22 135.18 279.646C134.48 282.76 135.81 285.134 138.05 287.107C140.88 289.6 144.25 291.213 147.629 292.785C150.669 294.198 153.804 295.394 157.028 296.299C160.13 297.17 163.334 297.563 166.529 297.961C170.07 298.401 173.613 298.822 177.147 299.302C179.284 299.592 181.44 299.753 183.579 299.883C191.318 300.351 199.043 301.133 206.812 301.08C212.764 301.04 218.718 301.065 224.67 301.083C236.871 301.12 249.062 301.057 261.245 300.146C267.215 299.701 273.184 299.248 279.102 298.41C284.351 297.666 289.617 296.795 294.614 294.886C296.735 294.076 298.696 292.86 299.782 290.816C301.207 288.137 300.205 285.651 298.494 283.482C295.829 280.105 292.217 278.1 288.205 276.704C285.643 275.813 283.094 274.888 280.527 274.007C277.778 273.063 274.954 272.407 272.169 271.608C268.035 270.421 263.791 269.779 259.512 269.356C252.433 268.655 245.349 268.056 238.226 268.067C237.367 268.069 236.504 267.992 235.651 267.885C234.924 267.795 234.348 267.438 234.213 266.639C234.068 265.782 234.35 265.155 235.178 264.759C237.048 263.866 239.048 263.637 241.075 263.569C249.851 263.273 258.558 264.082 267.221 265.376C271.003 265.941 274.661 267.123 278.361 268.08C282.594 269.173 286.731 270.594 290.827 272.102C296.058 274.027 300.639 276.928 303.735 281.727C305.486 284.439 306.039 287.481 305.49 290.634C305.094 292.906 303.858 294.806 302.187 296.413C299.254 299.233 295.589 300.613 291.761 301.572C286.619 302.859 281.405 303.886 276.122 304.321C264.696 305.261 253.26 306.126 241.783 306.126C235.529 306.126 229.274 306.126 223.02 306.126C223.02 306.184 223.02 306.242 223.02 306.3Z" fill="#090909"/>
<path d="M256.222 325.215C253.398 321.048 254.925 315.965 259.675 313.572C263.964 311.412 270.615 313.398 272.921 317.265C275.524 321.627 273.592 327.466 268.635 329.084C264.402 330.466 260.803 329.467 257.471 326.855C256.947 326.445 256.633 325.768 256.222 325.215Z" fill="#090909"/>
<path d="M167.113 323.28C165.141 320.409 164.934 317.441 167.094 314.679C168.74 312.575 171.081 311.361 173.816 311.195C177.817 310.952 181.189 312.18 183.431 315.686C185.958 319.638 184.422 324.53 180.225 326.627C176.145 328.666 171.808 327.852 168.36 324.924C167.848 324.49 167.524 323.834 167.113 323.28Z" fill="#090909"/>
<path d="M217.909 265.814C214.428 274.13 209.088 280.358 202.499 285.574C195.509 291.109 187.868 295.597 179.828 299.425C179.041 299.8 178.232 300.049 177.366 300.154C175.938 300.327 174.914 299.827 174.494 298.707C173.999 297.388 174.359 296.218 175.676 295.486C178.032 294.177 180.45 292.977 182.826 291.7C189.572 288.076 196.031 284.021 201.78 278.917C204.621 276.394 207.092 273.556 209.178 270.364C211.189 267.285 212.791 264.06 213.963 260.552C215.861 254.869 215.469 249.388 213.388 243.869C211.001 237.537 206.89 232.381 202.531 227.355C199.991 224.426 196.933 221.996 194.565 218.91C193.949 218.107 193.411 217.262 193.086 216.296C192.966 215.941 192.711 215.531 193.109 215.247C193.498 214.969 193.898 214.73 194.49 214.914C195.85 215.337 196.818 216.359 197.928 217.124C199.839 218.443 201.662 219.933 203.341 221.541C211.147 229.02 217.697 237.283 220.063 248.215C221.436 254.563 220.196 260.485 217.909 265.814Z" fill="#090909"/>
<path d="M169.815 311.778C169.815 311.778 172.022 313.901 173.59 311.606C175.159 309.311 175.708 307.323 172.955 302.303C170.202 297.283 166.593 293.232 164.36 294.652C162.127 296.072 162.942 299.381 162.942 299.381C162.942 299.381 158.96 296.208 157.47 300.757C155.979 305.307 158.277 313.835 162.036 320.32C165.796 326.804 172.825 337.787 175.256 336.599C177.686 335.411 177.552 332.244 175.896 329.171C174.241 326.098 169.815 311.778 169.815 311.778Z" fill="#8236FE"/>
<path d="M314.375 174.991L296.682 199.937L295.156 217.059L305.578 220.618L316.92 223.373L320.997 219.737L330.198 214.811L331.546 205.885L323.373 205.172L324.972 189.153L327.509 186.133L321.093 182.299L320.613 175.391L314.375 174.991Z" fill="white"/>
<path d="M285.673 131.302C293.56 130.325 301.232 130.099 308.729 132.458C313.959 134.104 318.345 137.168 322.297 140.946C325.708 144.207 328.708 147.749 330.625 152.086C331.792 154.727 332.618 157.504 332.967 160.382C333.57 165.358 333.485 170.301 332.071 175.165C331.404 177.461 330.377 179.593 329.219 181.662C328.805 182.401 328.874 182.81 329.452 183.433C331.038 185.14 331.086 186.809 329.766 188.749C329.188 189.598 328.617 190.451 328.01 191.279C327.716 191.682 327.388 192.299 327.006 192.358C325.276 192.622 325.716 193.631 326.051 194.682C326.847 197.174 326.629 199.695 325.837 202.095C325.41 203.391 325.946 203.192 326.7 203.041C328.111 202.758 329.557 202.782 330.904 203.12C332.845 203.606 333.911 205.294 334.022 207.553C334.244 212.086 332.4 215.656 328.864 218.391C327.428 219.502 325.789 220.207 323.975 220.477C323.392 220.563 322.919 220.707 322.532 221.321C319.287 226.471 311.844 227.541 307.154 223.528C306.422 222.901 305.816 222.691 304.861 222.939C300.235 224.142 295.064 221.089 293.001 217.054C291.21 213.552 291.203 209.869 292.293 206.178C293.408 202.403 295.078 198.89 297.754 195.94C298.741 194.851 299.889 194.038 301.487 194.068C302.288 194.083 302.487 194.283 302.18 195.044C301.373 197.041 300.142 198.816 299.232 200.754C297.602 204.222 296.103 207.712 296.259 211.7C296.387 214.972 299.285 218.033 302.107 218.357C303.538 218.521 303.746 218.355 303.435 216.99C302.925 214.745 302.8 212.489 303.439 210.248C303.617 209.626 303.819 208.803 304.664 208.933C305.348 209.038 305.572 209.702 305.776 210.402C306.624 213.312 307.267 216.3 309.088 218.851C311.03 221.57 314.551 221.808 317.198 220.214C317.825 219.837 317.658 219.712 317.197 219.383C316.046 218.56 315.023 217.617 314.252 216.393C313.717 215.543 313.581 214.631 313.587 213.701C313.594 212.704 314.324 212.465 315.219 213.011C316.401 213.731 317.19 214.906 318.475 215.54C320.987 216.778 323.388 216.537 325.647 215.128C328.047 213.631 329.308 211.358 329.383 208.498C329.406 207.634 328.709 207.603 328.106 207.613C326.679 207.636 325.285 207.95 323.876 208.143C322.407 208.344 321.253 208.954 320.242 210.033C319.871 210.429 319.183 210.618 318.608 210.713C317.26 210.937 316.538 209.871 317.207 208.535C317.787 207.377 318.509 206.272 319.29 205.235C321.605 202.167 322.872 198.876 321.848 194.979C321.526 193.755 322.07 192.894 323.253 192.513C323.83 192.327 323.769 192.065 323.532 191.679C322.607 190.174 321.493 188.86 319.945 187.943C319.334 187.581 319.091 188.004 318.786 188.35C317.308 190.026 315.697 191.57 313.683 192.562C311.826 193.477 309.871 194.06 307.767 193.271C305.331 192.357 304.379 189.671 304.687 187.49C305.59 181.094 309.131 176.395 314.447 172.965C315.808 172.087 317.371 171.526 319.083 171.684C322.805 172.028 324.152 175.155 323.869 178.168C323.802 178.887 323.769 179.358 324.455 179.788C325.365 180.359 325.858 180.127 326.276 179.206C329.442 172.234 329.759 165.01 327.775 157.742C326.549 153.25 323.968 149.475 320.531 146.215C316.519 142.411 312.289 139.032 306.929 137.397C303.054 136.215 299.042 135.778 294.997 135.754C288.483 135.715 282.125 136.794 275.88 138.587C274.808 138.895 273.76 139.3 272.723 139.717C271.918 140.041 271.109 140.322 270.242 140.394C269.077 140.49 268.047 139.815 267.785 138.811C267.397 137.321 267.822 136.314 269.059 135.728C272.394 134.148 275.982 133.388 279.543 132.576C281.639 132.098 283.711 131.459 285.673 131.302ZM308.738 188.115C308.908 189.404 309.54 189.811 310.744 189.35C311.338 189.122 311.932 188.859 312.464 188.516C316.198 186.115 318.298 182.605 319.259 178.35C319.633 176.698 318.799 175.941 317.181 176.437C316.776 176.561 316.394 176.729 316.013 176.942C313.224 178.498 311.333 180.898 309.883 183.631C309.165 184.986 308.54 186.475 308.738 188.115Z" fill="#090909"/>
<path d="M200.653 204.806L191.771 213.954L179.039 217.076L174.316 211.561L165.223 217.26L164.535 228.434L170.814 229.353L171.11 233.078L178.47 241.659L184.911 254.944L188.554 251.221L189.262 241.494L196.075 240.795L196.378 233.495L201.467 230.539L196.255 224.811L204.629 212.428L200.653 204.806Z" fill="white"/>
<path d="M193.568 206.992C194.337 206.586 194.619 205.748 195.192 205.162C196.583 203.737 198.291 202.846 200.226 202.853C202.715 202.862 204.2 204.55 205.131 206.673C207.3 211.622 206.318 216.152 203.14 220.344C202.993 220.537 202.704 220.656 202.795 220.979C201.47 222.038 200.305 223.285 198.862 224.209C198.381 224.518 198.352 224.844 199.006 225.225C200.611 226.159 202.083 227.194 202.597 229.233C202.962 230.683 202.422 231.626 201.518 232.528C200.717 233.328 199.723 233.865 198.637 234.149C197.525 234.44 197.585 235.086 197.794 235.995C198.212 237.817 197.955 239.634 196.948 241.185C195.803 242.949 193.971 243.346 191.962 243.129C190.384 242.958 190.33 243.034 190.631 244.598C191.289 248.015 190.601 251.17 188.666 254.027C187.504 255.742 185.96 256.232 184.34 255.482C183.398 255.046 182.878 254.149 182.316 253.313C180.816 251.083 180.037 248.522 179.115 246.05C178.299 243.861 177.026 242.163 175.133 240.889C171.427 238.395 169.206 234.87 168.66 230.527C168.352 228.075 168.81 225.5 170.865 223.633C171.157 223.368 171.543 223.014 171.969 223.331C172.314 223.587 172.664 223.913 172.619 224.441C172.512 225.672 172.719 226.902 172.501 228.144C171.896 231.6 173.517 234.263 175.792 236.587C177.606 238.44 179.902 239.835 181.1 242.263C182.132 244.352 182.509 246.655 183.235 248.844C183.739 250.36 184.344 251.803 185.508 252.952C187.603 250.086 187.842 245.183 186.345 242.503C185.986 241.859 185.234 241.74 184.661 241.431C183.857 240.998 183.164 240.448 182.474 239.881C181.732 239.27 181.457 238.427 181.958 237.618C182.426 236.863 183.304 237.027 184.032 237.253C186.619 238.057 189.151 239.059 191.874 239.351C192.87 239.457 193.971 239.97 194.73 238.878C195.478 237.801 195.307 236.599 195.02 235.405C194.883 234.833 194.387 234.915 193.999 234.795C192.527 234.339 190.99 234.097 189.638 233.266C188.728 232.707 188.417 231.943 188.748 231C189.067 230.092 189.879 229.909 190.747 230.07C191.717 230.25 192.676 230.433 193.58 230.909C195.377 231.855 197.096 231.284 198.715 230.389C199.619 229.889 198.95 229.276 198.537 228.978C196.968 227.846 195.348 226.788 193.639 225.864C192.352 225.168 191.109 224.382 189.891 223.569C189.287 223.165 188.982 222.494 189.381 221.803C189.767 221.132 190.447 221.036 191.154 221.3C191.388 221.387 191.591 221.556 191.82 221.666C192.888 222.181 193.789 222.467 194.908 221.433C196.564 219.902 198.596 218.794 199.922 216.873C201.606 214.434 202.156 211.804 201.383 208.939C201.215 208.316 201.092 207.567 200.207 207.432C199.375 207.305 198.823 207.745 198.349 208.306C197.437 209.384 196.851 210.672 196.117 211.866C193.88 215.509 190.306 217.201 186.401 218.304C184.243 218.914 181.992 218.904 179.752 218.877C178.658 218.864 177.598 219.195 176.558 219.572C175.708 219.881 174.842 220.011 174.334 218.95C173.952 218.152 174.748 217.423 174.991 217.261C176.569 216.21 175.337 215.426 174.832 214.66C174.21 213.716 173.138 213.865 172.331 214.211C169.633 215.367 167.815 217.411 167.003 220.242C166.698 221.304 166.392 222.375 166.301 223.513C166.198 224.797 166.129 225.846 167.4 226.725C168.329 227.366 168.009 228.765 167.005 229.379C164.841 230.703 162.72 229.852 162.068 227.358C161.57 225.454 161.565 223.525 162.028 221.611C162.202 220.896 162.143 220.542 161.261 220.431C157.41 219.943 153.578 219.323 149.902 218.023C143.96 215.922 138.128 213.635 133.205 209.489C127.985 205.092 126.251 197.485 128.653 191.209C130.038 187.589 132.717 184.948 135.939 182.844C140.754 179.7 146.076 177.83 151.644 176.595C153.935 176.087 156.26 175.756 158.596 175.505C159.004 175.461 167.599 174.189 168.545 176.544C169.896 179.907 165.784 179.795 164.337 179.969C159.588 180.539 154.814 180.929 150.226 182.375C145.25 183.943 140.416 185.822 136.498 189.455C132.722 192.957 131.926 197.874 134.403 202.317C136.794 206.605 141.138 208.37 145.247 210.382C146.876 211.18 148.617 211.754 150.29 212.454C152.646 213.44 155.093 214.142 157.47 215.053C159.095 215.676 160.8 216.086 162.379 216.854C162.897 217.107 163.434 217.345 163.895 216.547C165.605 213.58 167.848 211.159 171.276 210.204C173.212 209.664 175.146 209.601 176.892 210.909C177.787 211.579 178.029 212.514 178.154 213.545C178.246 214.316 178.254 215.323 179.468 214.996C181.056 214.568 182.693 214.66 184.296 214.371C188.738 213.569 191.912 211.255 193.568 206.992Z" fill="#090909"/>
</svg>
