<svg width="551" height="557" viewBox="0 0 551 557" fill="none" xmlns="http://www.w3.org/2000/svg">
<path d="M490.368 375.546C486.49 373.624 482.403 372.944 478.026 373.119C470.45 373.423 463.153 375.072 455.938 377.095C448.685 379.129 441.681 381.815 434.692 384.554C430.227 386.303 425.939 388.363 421.653 390.441C421.631 390.438 421.606 390.441 421.573 390.457C413.7 394.177 397.604 405.026 391.433 408.084C390.381 408.605 385.14 413.689 384.104 413.483C382.836 414.107 381.997 415.127 380.877 415.916C378.724 417.431 376.668 419.067 374.7 420.789C372.807 422.446 370.839 424.154 369.302 426.096C368.754 426.789 368.023 427.399 367.417 428.051C366.768 428.75 366.169 429.493 365.536 430.199C364.953 430.851 364.632 431.483 364.241 432.251C363.634 433.443 363.763 435.003 364.453 435.38C365.458 435.928 366.642 435.673 367.778 434.657C368.017 434.443 368.253 434.223 368.469 433.989C374.807 427.156 381.919 421.129 389.793 415.886C391.02 415.068 391.964 413.914 393.338 413.243C393.796 413.019 417.961 398.701 420.129 397.015C421.082 396.55 422.036 396.086 422.983 395.611C435.509 389.333 448.528 384.216 462.251 380.777C467.366 379.495 472.546 378.535 477.852 378.27C481.385 378.093 484.787 378.416 487.886 380.122C489.161 380.823 490.211 381.679 490.919 383.018C492.115 385.281 491.921 387.408 490.946 389.655C489.83 392.227 488.289 394.719 486.771 397.086C485.693 398.765 484.598 400.432 483.478 402.087C481.529 404.968 479.269 407.666 476.775 410.152C475.543 411.38 474.294 412.593 473.026 413.788C472.303 414.469 471.671 415.166 471.076 415.933C470.416 416.785 469.316 417.461 468.455 418.13C463.405 422.054 458.078 425.633 452.797 429.291C447.184 433.18 441.424 436.864 435.757 440.675C433.824 441.975 431.881 443.262 429.936 444.546C428.953 445.194 427.969 445.843 426.986 446.492C425.663 447.366 424.267 448.14 422.968 449.043C420.374 450.848 417.8 452.678 415.213 454.492C414.167 455.225 413.615 456.976 414.129 457.999C414.74 459.217 416.055 459.675 417.694 459.23C418.884 458.907 420.055 458.51 421.259 458.251C430.624 456.238 440.093 455.906 449.612 456.62C451.834 456.786 454.046 457.13 456.184 457.717C459.222 458.552 462.141 459.655 464.054 462.202C464.6 462.929 465.095 463.71 465.384 464.563C465.697 465.487 465.716 469.571 462.598 474.085C460.626 476.94 458.629 479.752 455.834 482.108C453.524 484.055 451.236 486.032 448.766 487.799C446.295 489.567 443.611 491.21 440.852 492.551C438.119 493.878 435.484 495.441 432.639 496.556C427.893 498.415 423.448 500.892 418.584 502.528C417.443 502.911 416.223 503.601 415.389 504.601C414.67 505.463 414.39 506.402 415.024 507.4C415.628 508.351 416.568 508.795 417.737 508.625C418.378 508.532 419.003 508.281 419.61 508.042C421.441 507.322 423.26 506.57 425.085 505.836C433.934 502.279 442.497 498.209 450.511 493.168C454.94 490.382 458.99 487.17 462.422 483.326C466.185 479.11 469.2 474.51 470.598 469.094C471.684 464.885 470.495 461.296 467.48 458.161C464.913 455.491 461.607 453.94 457.997 452.992C450.843 451.114 443.497 450.993 436.123 451.327C433.892 451.428 431.665 451.623 429.436 451.775C430.154 450.916 430.938 450.36 431.742 449.833C440.304 444.218 448.893 438.637 457.429 432.987C469.297 425.131 479.978 416.13 488.345 404.865C491.781 400.239 494.73 395.403 496.663 390.076C498.794 384.202 496.186 378.429 490.368 375.546Z" fill="#0B0A0A"/>
<path d="M232.069 363.755C236.4 365.402 240.559 367.522 244.532 369.823C249.091 372.465 253.412 375.469 257.415 378.814C257.455 378.847 257.495 378.882 257.535 378.916C267.936 387.638 277.672 396.986 286.1 407.437C291.592 414.249 297.1 421.086 300.753 429.003C301.179 429.925 301.618 430.852 301.916 431.812C302.124 432.481 302.138 433.246 301.304 433.635C300.606 433.961 300.034 433.646 299.539 433.173C298.197 431.889 297.042 430.511 296.052 428.933C294.372 426.253 292.626 423.598 290.639 421.083C285.32 414.35 279.975 407.637 274.022 401.379C272.148 399.409 270.306 397.409 268.338 395.52C266.301 393.567 264.121 391.757 262.035 389.841C260.892 388.789 259.608 387.785 258.562 386.648C257.719 385.732 256.657 385.001 255.687 384.188C252.664 381.654 249.64 379.181 246.336 376.967C244.543 375.765 242.713 374.613 240.838 373.527C236.342 370.925 231.58 368.717 226.571 367.14C221.94 365.682 217.184 365.147 212.406 366.15C207.028 367.279 203.74 371.408 203.837 376.612C203.918 380.944 205.032 385.1 207.107 388.939C212.706 399.3 219.138 409.142 227.9 417.521C238.068 427.243 248.399 436.799 259.346 445.756C259.904 446.212 260.417 446.734 260.868 447.284C261.536 448.097 261.588 449.011 261.082 449.907C260.561 450.828 259.653 451.194 258.597 451.09C257.783 451.011 256.982 450.773 256.185 450.57C248.838 448.697 241.457 446.978 233.886 446.133C230.016 445.701 226.151 445.476 222.28 446.102C219.098 446.617 216.344 447.834 214.02 449.956C212.59 451.262 212.361 452.723 213.008 454.407C213.29 455.144 213.698 455.825 214.25 456.413C217.786 460.189 221.774 463.392 226.859 465.216C227.704 465.519 228.548 465.878 229.301 466.342C230.186 466.886 230.652 467.687 230.346 468.737C230.014 469.874 229.117 470.371 227.97 470.43C227.061 470.476 226.196 470.129 225.333 469.844C220.636 468.294 216.598 465.773 213.076 462.498C211.856 461.364 210.611 460.252 209.602 458.931C208.117 456.988 207.24 454.713 207.182 452.325C207.126 450.024 208.291 448.106 209.956 446.479C211.318 445.147 212.819 443.914 214.577 443.062C217.115 441.83 219.892 441.165 222.772 440.9C230.446 440.197 237.917 441.45 245.366 443.013C246.4 443.23 247.404 443.673 248.52 443.57C248.468 443.392 248.476 443.199 248.378 443.112C244.209 439.449 240.016 435.811 235.864 432.131C234.85 431.232 233.984 430.186 233.02 429.233C229.227 425.481 225.361 421.793 221.639 417.981C216.778 413.002 212.702 407.479 208.942 401.728C207.425 399.408 205.78 397.11 204.427 394.744C202.299 391.026 200.447 387.127 199.441 383.006C198.802 380.392 198.695 377.835 198.663 375.188C198.633 372.747 199.262 370.183 200.755 368.165C202.023 366.452 203.449 364.773 205.289 363.565C207.125 362.36 209.251 361.598 211.439 361.162C216.556 360.141 221.6 360.651 226.605 361.912C228.436 362.374 230.303 363.084 232.069 363.755Z" fill="#0B0A0A"/>
<path d="M288.938 450.216C288.938 450.216 318.577 476.625 368.394 447.868C368.394 447.868 378.46 452.11 386.524 459.019C399.409 470.059 407.455 518.77 407.455 518.77L376.614 520.903L379.331 537.136L299.516 537.543L279.567 476.563L270.966 476.625C270.966 476.625 268.443 455.057 288.938 450.216Z" fill="#E6A7E6"/>
<path d="M417.003 400.113C416.702 402.124 416.289 404.112 415.668 406.013C414.3 410.201 412.873 414.306 411.316 418.446C410.963 419.384 410.283 420.213 409.791 421.111C409.135 422.309 408.079 422.409 406.855 422.174C405.727 421.958 405.22 421.252 405.069 420.25C404.92 419.258 404.783 418.265 404.608 417.041C403.715 418.172 402.994 419.184 402.615 420.448C401.876 422.917 400.851 425.288 399.332 427.446C398.462 428.683 397.505 429.935 395.891 430.268C393.278 430.806 390.731 428.633 390.747 426.058C390.761 423.912 390.946 421.731 390.937 419.612C390.936 419.29 391.086 414.357 391.009 414.343C389.908 414.154 389.364 414.754 388.778 415.474C388.176 416.214 387.327 416.781 386.381 417.055C385.1 417.426 383.66 417.255 382.528 416.598C382.109 416.354 381.731 416.047 381.433 415.679C380.902 415.021 380.649 414.188 380.611 413.36C380.583 412.737 380.638 412.043 380.836 411.442C380.968 411.046 381.241 410.725 381.397 410.337C381.879 409.144 382.354 407.994 383.044 406.886C385.845 402.382 387.069 397.451 387.162 392.314C387.226 388.763 386.066 385.615 382.625 383.647C381.714 383.127 381.127 382.219 380.092 381.866C380.101 381.56 380.084 381.25 380.124 380.948C380.603 377.385 380.454 373.853 379.638 370.357C379.33 369.037 378.88 367.803 377.201 367.518C378.02 366.297 379.351 365.623 380.493 364.738C384.299 361.789 388.792 360.128 393.363 358.715C399.359 356.861 404.825 358.281 409.886 361.473C411.677 362.602 413.151 364.048 414.507 365.583C417.753 369.256 421.629 372.125 426.287 374.056C426.437 374.118 426.592 374.169 426.735 374.242C428.803 375.305 429.68 376.705 429.263 378.271C428.858 379.793 426.671 381.318 424.741 381.337C422.333 381.359 420.074 380.933 418.186 378.67C418.231 380.443 418.192 381.716 418.309 382.974C418.642 386.571 418.028 389.981 417.716 393.559C417.527 395.717 417.331 397.928 417.003 400.113Z" fill="#FFDB5D"/>
<path d="M309.329 368.688C306.74 366.679 308.284 362.577 309.832 360.342C322.422 342.158 337.157 344.673 346.537 344.812C351.347 344.884 355.478 346.621 359.358 348.983C362.315 350.783 365.022 352.911 367.666 355.107C371.394 358.205 374.204 361.795 374.915 366.576C375 367.143 375.179 367.619 375.674 367.964C375.398 368.783 375.346 369.614 375.443 370.46C375.748 373.114 376.06 375.766 375.896 378.452C375.831 379.519 375.996 380.582 376.364 381.602C375.538 382.147 375.332 382.953 375.212 383.83C374.549 388.694 372.072 392.578 367.912 395.547C367.32 395.969 366.759 396.429 366.183 396.871C364.269 395.862 362.358 394.912 360.075 394.748C357.073 394.534 354.485 395.554 351.975 396.921C351.934 396.854 351.908 396.743 351.85 396.726C348.758 395.806 347.754 393.416 347.124 390.768C344.192 378.439 349.122 369.259 350.453 366.48C351.146 365.034 349.918 363.813 348.285 364.193C347.484 364.378 346.704 364.664 345.934 364.95C340.794 366.86 335.386 368.004 329.939 368.754C324.405 369.516 318.719 370.194 313.103 369.791C312.069 369.716 311.009 369.604 310.091 369.157C309.805 369.018 309.552 368.861 309.329 368.688Z" fill="#FFDB5D"/>
<path d="M376.545 381.708C376.181 380.691 376.018 379.633 376.083 378.57C376.244 375.896 375.936 373.255 375.634 370.613C375.537 369.77 375.588 368.942 375.861 368.128C376.213 367.911 376.565 367.695 376.915 367.48C378.58 367.765 379.027 368.996 379.333 370.314C380.143 373.804 380.292 377.33 379.817 380.887C379.777 381.189 379.794 381.498 379.785 381.803C378.686 382.231 377.587 382.623 376.545 381.708Z" fill="#0B0A0A"/>
<path d="M309.214 368.858C309.289 368.77 309.364 368.682 309.441 368.596C310.092 367.86 310.652 367.045 311.295 366.295C311.725 365.792 312.323 365.465 313.02 365.674C313.88 365.932 313.576 366.665 313.563 367.234C313.541 367.71 313.442 368.167 313.285 368.62C313.139 369.043 313.033 369.466 312.88 369.89C312.188 371.803 311.334 373.658 310.588 375.555C309.833 377.474 309.136 379.414 308.496 381.37C307.857 383.317 307.274 385.28 306.744 387.255C306.562 387.934 306.345 388.61 306.239 389.299C306.137 389.953 305.572 390.786 306.316 391.233C306.926 391.599 307.746 391.17 308.413 390.897C310.078 390.216 311.686 389.428 313.181 388.437C314.135 387.805 315.153 387.139 316.35 387.721C316.915 387.995 316.483 389.79 315.665 390.954C314.183 393.062 311.968 394.25 309.633 395.281C308.066 395.973 306.472 396.611 304.924 397.34C304.38 397.596 303.594 397.834 303.76 398.644C303.905 399.352 304.635 399.533 305.239 399.69C306.355 399.98 307.513 399.922 308.653 399.723C311.333 399.257 313.907 398.484 316.351 397.305C318.56 396.239 319.829 396.401 320.634 397.764C321.384 399.034 320.785 400.343 318.646 401.455C314.844 403.433 310.819 404.713 306.428 404.652C304.529 404.626 304.484 404.678 304.631 406.427C304.885 409.447 305.406 412.419 306.477 415.276C306.722 415.929 306.977 416.584 307.297 417.205C311.626 425.586 317.037 426.651 324.348 425.838C328.345 425.394 332.2 424.201 335.776 422.312C336.419 421.973 337.104 421.665 337.808 421.478C338.873 421.195 339.799 421.55 340.324 422.44C340.857 423.342 340.635 424.272 339.83 424.983C339.357 425.402 338.767 425.715 338.199 426.025C333.779 428.436 329.006 429.856 323.993 430.437C322.342 430.627 317.64 431.212 315.158 430.448C308.867 428.511 305.154 424.281 302.508 418.811C300.454 414.566 300.073 410.067 299.863 405.519C299.796 404.074 299.797 402.662 299.106 401.348C299.141 401.308 299.21 401.235 299.203 401.229C299.136 401.163 299.057 401.106 298.982 401.048C297.795 398.889 298.234 396.908 299.727 394.988C300.294 394.26 300.792 393.49 300.919 392.519C301.334 389.362 302.438 386.334 303.143 383.235C304.091 379.075 305.915 375.234 307.603 371.332C307.987 370.446 308.574 369.612 309.214 368.858Z" fill="#0B0A0A"/>
<path d="M352.31 396.818C354.812 395.446 357.39 394.422 360.378 394.631C362.649 394.79 364.549 395.736 366.451 396.741C373.218 402.779 368.992 413.905 359.387 416.545C356.775 417.263 354.184 417.223 351.661 416.292C351.062 416.07 350.469 415.763 349.973 415.381C348.931 414.579 348.674 413.466 349.2 412.491C349.742 411.486 350.826 411.014 352.13 411.297C352.763 411.434 353.352 411.733 353.978 411.91C358.668 413.232 364.417 409.63 364.988 405.023C365.419 401.541 363.112 398.992 359.391 398.881C357.727 398.831 356.129 399.188 354.587 399.797C353.83 400.096 353.091 400.461 352.242 400.472C350.908 400.49 350.47 399.91 350.88 398.7C351.144 397.922 351.746 397.386 352.31 396.818Z" fill="#0B0A0A"/>
<path d="M337.723 370.226C340.856 370.336 343.13 371.548 344.752 373.809C345.403 374.717 345.798 375.735 345.814 376.863C345.836 378.395 345.109 379.516 343.892 379.811C342.63 380.118 341.542 379.538 340.739 378.133C339.151 375.352 338.005 374.893 334.803 375.826C333.936 376.078 333.122 376.494 332.258 376.757C330.684 377.236 329.627 376.415 329.847 374.888C330.04 373.551 330.965 372.64 332.07 371.899C333.824 370.723 335.835 370.331 337.723 370.226Z" fill="#0B0A0A"/>
<path d="M324.359 410.763C323.974 410.703 323.537 410.713 323.174 410.565C322.486 410.283 321.895 409.873 321.819 409.064C321.752 408.345 322.177 407.886 322.755 407.534C323.17 407.281 323.63 407.094 324.067 406.874C327.042 405.376 329.524 403.376 331.339 400.654C332.51 398.897 333.672 398.434 334.924 399.095C336.321 399.832 336.614 401.239 335.569 402.937C333.46 406.363 330.418 408.811 326.544 410.326C326.164 410.474 325.765 410.59 325.364 410.674C325.046 410.741 324.711 410.734 324.359 410.763Z" fill="#0B0A0A"/>
<path d="M316.134 374.227C315.715 374.329 315.276 374.314 314.849 374.26C314.558 374.223 314.263 374.165 314.012 374.024C313.597 373.789 313.35 373.342 313.289 372.887C313.227 372.432 313.33 371.967 313.49 371.531C313.661 371.066 313.936 370.741 314.265 370.37C314.602 369.989 314.95 369.613 315.356 369.296C316.534 368.376 317.957 367.682 319.509 367.725C320.328 367.747 321.123 367.968 321.855 368.299C322.242 368.474 322.581 368.7 322.939 368.911C323.302 369.125 323.655 369.388 323.824 369.774C324.038 370.261 324.302 370.728 324.434 371.246C324.648 372.086 324.586 372.918 323.753 373.556C322.776 374.304 322.094 373.643 321.363 373.198C321.162 373.075 321.005 372.889 320.829 372.735C320.686 372.612 320.598 372.421 320.453 372.292C320.342 372.192 320.215 372.105 320.071 372.05C319.813 371.953 319.539 371.989 319.293 372.108C319.017 372.243 318.724 372.387 318.49 372.58C318.149 372.862 317.816 373.151 317.49 373.448C317.115 373.791 316.647 374.103 316.134 374.227Z" fill="#0B0A0A"/>
<path d="M337.898 381.09C337.647 382.526 337.357 383.727 336.452 384.707C335.507 385.729 334.239 386.124 333.178 385.731C331.998 385.294 331.161 384.078 331.278 382.792C331.4 381.457 331.948 380.254 332.899 379.229C333.976 378.071 335.253 377.683 336.365 378.171C337.469 378.655 338.046 379.853 337.898 381.09Z" fill="#0B0A0A"/>
<path d="M319.179 380.27C318.848 381.547 318.35 382.871 317.07 383.749C315.51 384.818 313.463 384.046 313.071 382.284C312.731 380.76 313.73 378.606 315.142 377.828C316.072 377.315 316.996 377.23 317.921 377.814C318.808 378.372 319.246 379.139 319.179 380.27Z" fill="#0B0A0A"/>
<path d="M374.314 523.251C372.265 515.985 370.569 508.61 368.769 501.257C367.627 496.591 366.547 491.911 365.448 487.236C365.324 486.711 365.162 486.171 365.18 485.642C365.217 484.55 365.723 483.707 366.957 483.414C368.181 483.123 369.185 483.595 369.761 484.767C369.966 485.184 370.099 485.639 370.21 486.088C373.001 497.38 375.824 508.665 378.264 520.029C378.508 521.162 378.778 522.328 378.929 523.469C379.168 525.275 379.29 527.258 377.546 527.359C375.491 527.479 374.157 523.345 374.314 523.251Z" fill="#0B0A0A"/>
<path d="M316.703 521.104L303.011 530.059L300.41 538.187L302.162 541.551L306.77 540.036L308.774 545.024L314.129 542.928L320.365 545.474L328.327 538.035L372.222 550.862C372.222 550.862 387.562 556.182 398.319 553.511C411.219 550.309 410.722 540.214 410.722 540.214L384.139 527.169L349.853 520.481L316.703 521.104Z" fill="white"/>
<path d="M300.486 530.752C301.664 529.08 302.669 527.341 304.122 525.865C308.003 521.924 312.833 519.868 318.429 519.03C326.432 517.833 334.494 518.106 342.53 518.184C351.59 518.271 360.525 519.596 369.357 521.494C370.885 521.822 383.404 524.723 384.731 525.383C385.238 525.634 385.729 525.93 386.18 526.263C386.688 526.637 386.8 527.168 386.583 527.726C386.384 528.238 385.892 528.321 385.376 528.367C382.943 528.588 380.553 528.18 378.219 527.701C371.417 526.301 364.589 525.013 357.719 523.983C351.579 523.062 345.357 522.707 339.124 522.742C336.053 522.759 332.981 522.828 329.91 522.798C325.912 522.76 321.948 523.033 318.033 523.78C310.486 525.221 305.817 529.623 303.426 536.285C303.188 536.948 302.9 537.578 302.606 538.213C302.464 538.519 302.483 538.833 302.742 539.068C303.028 539.327 303.396 539.241 303.604 539.004C304.687 537.764 306.37 537.074 307.053 535.425C307.455 534.454 308.321 533.635 309.054 532.805C309.414 532.397 309.906 532.052 310.409 531.804C310.926 531.549 311.551 531.479 312.035 531.917C312.583 532.413 312.269 532.905 311.917 533.359C310.632 535.022 309.94 536.913 309.498 538.89C309.228 540.1 309.025 541.323 309.471 542.592C310.53 542.752 310.861 541.961 311.302 541.353C312.788 539.305 314.137 537.182 315.352 534.983C316.363 533.152 317.501 532.548 318.778 533.109C320.041 533.663 320.286 534.883 319.523 536.777C318.971 538.147 318.132 539.424 317.906 540.898C317.791 541.651 317.534 542.565 318.299 543.07C319.209 543.671 320.266 543.358 321.085 542.786C322.28 541.952 323.173 540.825 324.015 539.682C325.658 537.452 327.073 535.096 328.426 532.704C329.429 530.932 330.459 530.404 331.655 530.931C333.007 531.525 333.309 532.829 332.315 534.529C330.216 538.121 328.224 541.781 324.976 544.664C323.816 545.694 322.635 546.647 321.046 546.995C318.328 547.591 315.906 547.235 314.223 544.774C312.543 545.851 311.098 547.227 309.021 546.835C306.915 546.438 306.093 544.719 305.203 543.137C304.429 543.541 299.051 544.229 298.385 539.999C298.106 538.23 299.091 532.797 300.486 530.752Z" fill="#0B0A0A"/>
<path d="M401.6 555.379C396.635 557.081 391.643 556.645 386.616 555.959C384.735 555.702 382.883 555.255 381.019 554.888C377.871 554.271 358.86 549.264 358.399 549.092C353.17 547.146 347.771 545.632 342.568 543.606C340.133 542.658 337.531 542.089 335.029 541.282C333.974 540.942 332.635 540.737 332.691 539.279C332.722 538.467 333.804 537.989 335.608 538.169C338.155 538.423 340.748 538.601 343.145 539.53C349.806 542.111 356.71 544.036 363.575 546.047C370.686 548.129 377.908 549.879 385.225 551.228C388.482 551.829 391.803 552.096 395.13 551.871C401.933 551.411 406.546 547.687 407.523 541.302C408.403 535.547 408.244 529.931 406.336 524.366C405.177 520.986 404.167 517.563 403.099 514.157C402.798 513.196 402.418 512.239 402.538 511.214C402.681 510.004 403.516 509.056 404.613 508.877C405.84 508.677 406.676 509.268 407.303 510.171C407.526 510.493 407.728 510.843 407.853 511.205C409.964 517.307 412.112 523.412 413.186 529.756C414.007 534.601 413.673 539.469 412.486 544.262C412.071 545.938 411.298 547.487 410.257 548.894C407.123 553.132 404.757 554.296 401.6 555.379Z" fill="#0B0A0A"/>
<path d="M322.869 431.761C322.262 434.401 321.658 437.044 321.115 439.697C320.833 441.073 320.333 442.362 319.846 443.677C319.325 445.084 318.362 445.664 316.894 445.692C307.766 445.865 299.395 448.894 290.968 451.681C288.946 452.35 286.994 453.24 285.082 454.159C279.627 456.78 275.578 460.57 273.813 466.204C273.442 467.39 272.98 468.549 272.254 469.602C271.935 470.065 271.595 470.506 271.04 470.727C270.226 471.051 269.214 470.599 269.196 469.793C269.12 466.285 268.937 462.696 271.149 459.62C272.806 457.315 274.567 455.081 277.007 453.327C280.357 450.918 284.001 449.121 287.899 447.624C292.164 445.984 296.629 444.877 301.054 443.683C301.931 443.447 302.744 443.184 303.644 443.01C307.152 442.332 310.573 441.527 314.181 441.345C315.194 441.297 315.676 440.986 315.815 440.06C316.271 437.012 317.08 434.022 317.495 430.967C318.269 425.284 324.251 425.748 322.869 431.761Z" fill="#0B0A0A"/>
<path d="M375.219 448.871C375.449 449.005 375.681 449.136 375.915 449.264C377.967 450.384 379.938 451.632 381.807 453C383.641 454.344 385.377 455.803 387 457.364C388.623 458.924 390.132 460.585 391.525 462.326C392.939 464.096 394.233 465.948 395.411 467.862C395.662 468.27 395.907 468.681 396.148 469.094C396.499 469.697 396.791 470.348 396.836 471.063C396.892 471.956 396.787 472.827 395.821 473.243C394.748 473.705 393.884 473.194 393.207 472.44C392.839 472.031 392.573 471.539 392.288 471.07C387.049 462.457 379.802 455.76 370.397 451.095C366.952 449.387 363.433 447.859 359.702 446.764C357.723 446.183 355.884 445.294 354.033 444.423C349.188 442.142 347.313 438.159 346.984 433.472C346.658 428.82 347.716 424.256 348.698 419.714C348.879 418.88 349.221 418.093 349.755 417.385C350.182 416.818 350.758 416.554 351.471 416.717C352.171 416.877 352.595 417.359 352.757 418.006C352.911 418.621 352.737 419.229 352.664 419.843C352.204 423.753 351.739 427.663 351.347 431.579C351.239 432.647 351.237 433.758 351.431 434.81C351.82 436.925 352.762 438.774 354.922 439.875C357.004 440.937 358.986 442.123 361.324 442.768C363.986 443.502 366.513 444.589 368.993 445.738C370.189 446.292 371.401 446.814 372.583 447.393C373.495 447.84 374.35 448.369 375.219 448.871Z" fill="#0B0A0A"/>
<path d="M156.134 476.305L181.057 554.595L236.256 554.989L305.027 553.625L278.986 476.151L156.134 476.305Z" fill="white"/>
<path d="M304.797 547.123C304.893 548.144 304.878 549.294 303.583 549.617C302.464 549.896 301.733 549.083 301.272 548.224C299.824 545.524 278.292 480.147 278.181 478.386C278.122 477.44 277.476 477.197 276.457 477.204C237.947 477.463 159.45 477.174 158.619 477.564C159.524 480.234 184.167 553.706 183.772 554.694C183.383 555.669 181.378 556.51 179.968 555.342C178.557 554.172 154.339 479.591 153.961 478.141C152.993 474.428 153.94 473.281 158.149 473.24C167.444 473.151 276.172 473.115 278.658 473.092C280.875 473.073 281.981 474.095 282.564 475.952C283.612 479.291 304.71 546.201 304.797 547.123Z" fill="#0B0A0A"/>
<path d="M225.5 551.924C229.488 551.892 239.259 552.357 240.091 552.784C240.785 553.14 241.338 553.567 241.291 554.375C241.246 555.165 240.629 555.53 239.973 555.908C237.752 557.19 225.266 556.827 219.87 556.841C192.885 556.911 165.899 556.931 138.914 556.968C138.748 556.968 138.581 556.981 138.416 556.975C136.572 556.904 135.509 556.061 135.584 554.733C135.652 553.511 136.669 552.736 138.396 552.708C146.365 552.578 154.334 552.446 162.304 552.369C167.613 552.318 212.88 552.027 225.5 551.924Z" fill="#0B0A0A"/>
<path d="M497.894 548.955C504.286 549.13 510.674 548.914 517.063 548.805C526.775 548.639 536.487 548.501 546.2 548.369C546.939 548.359 547.708 548.401 548.413 548.585C549.454 548.858 550.152 549.562 550.16 550.6C550.168 551.717 549.522 552.544 548.337 552.795C547.375 552.998 546.367 553.067 545.377 553.086C532.262 553.33 519.146 553.511 506.033 553.793C474.908 554.463 443.781 554.987 412.651 555.374C409.745 555.41 312.683 555.188 283.223 555.864C279.489 555.95 275.753 555.944 272.017 555.969C271.103 555.976 270.191 555.929 269.313 555.644C268.385 555.342 267.663 554.854 267.687 553.847C267.711 552.847 268.557 552.335 269.37 552.016C270.023 551.759 270.836 551.835 271.581 551.798C283.022 551.224 294.477 551.082 305.93 550.847C323.91 550.478 412.862 550.563 414.571 550.533C425.777 550.336 436.983 550.124 448.188 549.923C453.248 549.832 458.312 549.85 463.361 549.46C466.507 549.465 469.653 549.521 472.797 549.466C481.163 549.321 489.528 549.128 497.894 548.955Z" fill="#0B0A0A"/>
<path d="M497.894 548.954C489.528 549.128 481.163 549.321 472.797 549.466C469.653 549.521 466.507 549.465 463.361 549.46C463.241 547.914 463.29 546.376 463.545 544.842C463.633 544.31 463.708 543.766 463.688 543.231C463.306 533.506 463.948 523.789 463.934 514.066C463.934 513.68 463.92 513.29 463.973 512.909C464.204 511.244 464.857 510.635 466.701 510.5C469.263 510.312 471.833 510.34 474.402 510.144C478.695 509.816 483.011 509.706 487.319 509.583C490.303 509.498 493.26 509.014 496.26 509.156C498.617 509.268 499.01 509.552 499.038 511.741C499.057 513.208 499 514.676 498.948 516.143C498.916 517.07 499.307 517.382 500.31 517.186C501.114 517.028 501.955 516.959 502.778 516.967C506.284 517 508.674 518.795 509.74 521.863C511.231 526.159 510.51 530.115 507.825 533.771C505.959 536.311 503.243 537.734 500.033 538.359C498.058 538.745 497.987 538.735 497.997 540.506C498.008 542.341 498.246 547.998 497.894 548.954ZM498.436 529.986C498.436 531.228 498.416 531.922 498.441 532.615C498.497 534.158 498.855 534.368 500.39 533.652C503.354 532.27 504.959 530.043 505.38 526.951C505.934 522.891 504.393 521.57 500.238 522.69C499.299 522.943 498.895 523.399 498.85 524.315C498.749 526.389 498.553 528.459 498.436 529.986Z" fill="#AAC164"/>
<path d="M471.239 502.244C471.894 498.297 474.04 495.839 477.251 494.139C480.736 492.293 484.189 490.371 487.275 487.967C489.042 486.589 490.209 484.711 491.084 482.578C491.823 480.775 492.31 478.926 492.99 477.121C493.519 475.718 494.291 475.142 495.445 475.231C496.661 475.325 497.465 476.174 497.524 477.669C497.631 480.381 496.772 482.925 495.455 485.313C492.984 489.793 489.107 492.909 484.468 495.227C483.373 495.774 482.207 496.194 481.137 496.781C478.132 498.429 475.649 500.56 474.357 503.73C474.239 504.021 474.07 504.298 473.896 504.564C473.507 505.157 473.016 505.458 472.254 505.185C470.484 504.801 471.229 502.52 471.239 502.244Z" fill="#0B0A0A"/>
<path d="M485.765 505.024C485.66 504.705 485.61 504.362 485.59 504.118C485.484 502.875 485.917 501.621 486.375 500.466C486.739 499.548 487.687 498.392 488.84 497.783C490.288 497.018 491.701 496.039 493.26 495.664C494.901 495.269 495.892 494.289 496.607 493.144C497.869 491.121 499.666 489.409 500.407 487.06C500.828 485.726 502.123 485.268 503.373 485.572C504.523 485.851 505.088 486.648 505.077 488.052C505.065 489.567 504.582 490.977 503.695 492.231C501.05 495.971 498.194 499.479 493.325 500.857C491.391 501.404 490.251 502.805 489.315 504.457C488.963 505.078 488.491 505.928 487.667 506.038C487.261 506.093 486.597 505.978 486.257 505.769C486.024 505.626 485.868 505.337 485.765 505.024Z" fill="#0B0A0A"/>
<path d="M159.478 416.488C80.2074 418.344 28.1635 363.328 20.6298 291.213C17.1399 257.807 28.6067 207.233 40.9774 182.657C55.8604 153.089 71.5928 124.604 82.2016 93.0934C93.9177 58.2948 91.0401 28.1059 66.2478 25.1201C64.6619 24.929 63.1348 24.8636 61.6725 24.9104" stroke="black" stroke-width="11" stroke-linecap="round"/>
<path d="M81.2553 72.9953C81.2553 72.9953 83.2806 69.7116 79.3308 65.3006C61.8842 45.8169 24.5812 9.27717 24.5812 9.27717L32.4427 43.8254L6.85297 52.8409L81.2553 72.9953Z" fill="white"/>
<path d="M27.8691 14.9195C29.4149 20.4538 30.9744 25.9846 32.5024 31.5239C33.4529 34.9699 34.387 38.4206 35.271 41.8837C36.1136 45.186 35.6891 45.8407 32.3295 46.8189C26.2488 48.5895 20.1699 50.3677 14.0919 52.1423C13.5514 52.1108 13.0192 52.0986 12.6009 52.8734C31.287 57.663 49.7191 62.8024 68.306 67.5643C67.3837 66.7656 66.5998 65.8702 65.3984 65.5096C59.6244 61.614 53.8347 57.7387 48.0875 53.8081C46.638 52.8167 45.3128 51.6628 43.9585 50.5528C43.5324 50.2032 43.1604 49.7795 42.829 49.3451C42.3669 48.7393 42.2405 48.0102 42.6693 47.3689C43.0884 46.7415 43.8513 46.9261 44.48 47.0136C45.8945 47.2106 47.058 47.9558 48.241 48.6304C52.9255 51.3029 57.3193 54.3766 61.7599 57.3808C68.3245 61.8219 74.8302 66.3401 81.3679 70.8157C82.5065 71.5952 83.7735 72.3073 83.2576 73.9521C82.9024 75.0845 81.9424 75.337 79.6723 75.2415C76.8427 75.1228 74.2255 74.1876 71.5115 73.6298C71.5129 73.6299 71.3722 73.4668 71.3722 73.4668L71.1663 73.5416C70.4802 73.358 69.7946 73.1745 69.1099 72.9909C69.0393 72.7969 68.9346 72.6919 68.7268 72.8727C68.1943 72.7281 67.6619 72.583 67.131 72.4384C66.9176 72.1995 66.6864 72.006 66.3191 72.1912C65.7933 72.0611 65.2675 71.9309 64.7432 71.8013C64.6776 71.6062 64.5708 71.5297 64.3811 71.6975C58.5314 70.1199 52.6817 68.5422 46.833 66.9646C46.7702 66.7715 46.6639 66.7068 46.4841 66.8682C45.94 66.7153 45.3954 66.5624 44.8527 66.4101C44.6404 66.1816 44.4055 66.0184 44.0609 66.1938C41.2768 65.4414 38.4928 64.6886 35.7097 63.9364C35.645 63.7432 35.538 63.6751 35.3546 63.8373C34.8124 63.6854 34.2707 63.5336 33.7299 63.3819C33.5166 63.1543 33.2831 62.9808 32.9338 63.1592C32.3998 63.0201 31.8659 62.881 31.3335 62.7419C31.1308 62.4826 30.9 62.29 30.5225 62.4676C30.1552 62.3781 29.7874 62.2881 29.4216 62.1986C29.173 61.9661 28.9 61.8024 28.5243 61.9425C28.0104 61.807 27.4959 61.6714 26.9835 61.5364C26.774 61.287 26.5425 61.0906 26.1677 61.2721C25.6451 61.145 25.1229 61.0183 24.6018 60.8917C24.5335 60.6936 24.4312 60.584 24.2172 60.7678C23.69 60.6253 23.1628 60.4824 22.6371 60.34C22.6386 60.3401 22.5078 60.1772 22.5078 60.1772L22.3084 60.2515C20.9722 59.8742 19.636 59.497 18.3008 59.1203C18.2371 58.9267 18.1293 58.8563 17.9435 59.0178C17.406 58.8639 16.8684 58.7095 16.3323 58.5557C16.1271 58.3084 15.8998 58.1156 15.5298 58.2922C14.3581 57.972 13.1859 57.6522 12.0156 57.3325C11.9529 57.1394 11.8468 57.0724 11.6645 57.2332C11.124 57.0786 10.5835 56.9241 10.0445 56.7701C9.83655 56.5315 9.60908 56.3402 9.24466 56.5157C7.50049 55.9201 5.75586 55.3241 4.01169 54.7285C2.89929 54.3485 2.27009 53.6433 2.31563 52.47C2.35897 51.3497 2.91149 50.5477 3.98212 50.0531C5.03158 49.5679 6.15744 49.3293 7.26651 49.0168C14.7087 46.9209 22.1335 44.7643 29.5784 42.6771C30.7854 42.3387 30.8341 41.8311 30.5306 40.8052C27.2196 29.6219 23.9636 18.4222 20.7019 7.22503C20.4634 6.40691 20.2193 5.57811 20.12 4.73653C20.0138 3.83958 20.3035 3.00007 21.2633 2.57661C22.2669 2.13375 23.1972 2.3078 23.9651 3.04777C25.2547 4.2901 26.5689 5.51185 27.8069 6.79942C32.4526 11.63 37.0962 16.4628 41.6937 21.3341C47.0554 27.0151 52.3733 32.7329 57.7002 38.4438C63.834 45.0196 69.9571 51.6046 76.0828 58.1874C76.4595 58.5921 76.8698 58.9811 77.1749 59.4322C77.8721 60.4624 77.7818 61.4808 76.9983 62.2033C76.27 62.8748 74.9537 63.0191 74.0346 62.386C73.3851 61.9388 72.8524 61.3305 72.3139 60.7548C58.0995 45.5624 43.8911 30.3643 29.6773 15.1714C29.358 14.8303 28.9781 14.5399 28.6262 14.2259C28.5003 13.8608 28.2138 13.4399 27.8503 13.6268C27.1401 13.9917 27.7271 14.484 27.8691 14.9195Z" fill="#0B0A0A"/>
</svg>
