<svg width="1095" height="342" viewBox="0 0 1095 342" fill="none" xmlns="http://www.w3.org/2000/svg">
<path d="M222.458 305.783C222.457 306.795 222.089 307.6 221.092 307.967C220.125 308.325 219.219 308.11 218.603 307.3C218.103 306.641 217.72 305.875 217.381 305.114C215.4 300.663 213.903 296.029 212.249 291.455C209.796 284.672 207.385 277.873 204.991 271.069C204.575 269.888 204.275 268.658 204.028 267.429C203.888 266.733 204.148 266.062 204.917 265.827C205.555 265.632 206.063 265.974 206.448 266.458C207.243 267.454 207.671 268.65 208.196 269.791C212.334 278.794 215.632 288.134 219.211 297.361C220.091 299.627 220.833 301.95 221.989 304.103C222.272 304.631 222.436 305.186 222.458 305.783Z" fill="black"/>
<path d="M122.336 258.561C121.099 269.269 120.026 279.863 117.877 290.311C117.354 292.856 117.001 295.436 116.543 297.995C116.441 298.564 116.303 299.153 116.047 299.666C115.54 300.678 114.592 300.694 113.645 300.501C112.738 300.317 112.847 299.533 112.846 298.888C112.839 294.934 113.346 291.022 113.99 287.134C115.43 278.451 116.966 269.783 118.402 261.099C118.669 259.486 119.41 258.09 119.988 256.615C120.248 255.955 120.648 255.362 121.461 255.55C122.292 255.742 122.272 256.525 122.328 257.183C122.371 257.682 122.336 258.187 122.336 258.561Z" fill="black"/>
<path d="M207.83 131.981C207.876 130.881 207.4 130.155 207.082 129.392C204.831 123.996 203.612 118.356 203.087 112.556C202.989 111.473 203.03 110.375 203.059 109.285C203.1 107.718 203.374 106.246 205.051 105.543C206.661 104.869 207.996 105.529 209.261 106.449C210.759 107.539 211.877 109.013 212.98 110.394C213.947 110.097 213.689 109.394 213.762 108.875C213.949 107.546 214.04 106.204 214.628 104.962C216.185 101.677 219.685 101.049 222.263 103.591C222.664 103.986 222.856 104.612 223.508 104.739C224.104 104.33 224.23 103.621 224.588 103.064C226.764 99.6807 230.729 99.5298 233.162 102.769C234.386 104.4 235.175 106.271 235.737 108.206C237.03 112.657 237.845 117.187 237.586 121.854C237.539 122.696 237.441 123.535 237.005 124.28C236.439 125.245 235.736 125.307 235.025 124.46C234.295 123.592 234.027 122.513 233.843 121.444C233.36 118.633 232.954 115.809 232.513 112.99C232.147 110.65 231.482 108.404 230.3 106.339C229.979 105.779 229.696 105.019 228.853 105.192C228.188 105.328 228.062 106.025 227.901 106.573C227.15 109.119 227.408 111.729 227.451 114.326C227.47 115.498 227.552 116.681 227.438 117.842C227.291 119.332 226.488 120.17 225.344 120.292C224.199 120.416 223.306 119.797 222.724 118.375C222.085 116.814 221.838 115.143 221.442 113.513C220.932 111.418 220.494 109.288 219.257 107.264C218.144 108.084 218.307 109.144 218.268 110.06C218.15 112.83 218.345 115.594 218.594 118.355C218.677 119.27 218.73 120.203 218.652 121.115C218.522 122.646 217.81 123.531 216.694 123.691C215.431 123.871 214.609 123.208 214.059 122.166C213.628 121.351 213.256 120.504 212.879 119.661C211.951 117.591 210.941 115.564 209.703 113.658C209.211 112.901 208.726 112.131 207.835 111.424C207.228 112.468 207.503 113.377 207.598 114.219C207.993 117.725 208.622 121.19 209.584 124.592C210.086 126.368 210.426 128.199 211.049 129.929C211.847 132.141 211.002 134 210.1 135.879C209.617 136.887 208.695 137.047 207.737 136.737C207.028 136.507 206.371 136.105 205.705 135.753C204.667 135.205 203.668 134.576 202.601 134.093C201.85 133.754 200.869 133.377 200.261 134.109C199.7 134.786 200.474 135.5 200.813 136.13C201.691 137.755 202.659 139.327 203.775 140.805C207.151 145.277 209.63 150.175 210.989 155.639C211.664 158.35 212.078 161.08 211.933 163.86C211.585 170.577 210.902 177.249 208.848 183.705C208.671 184.263 208.522 184.831 208.396 185.402C208.366 185.538 208.483 185.706 208.542 185.89C209.303 186.255 209.977 185.714 210.692 185.618C213.175 185.283 215.155 186.079 216.613 188.118C217.754 189.713 218.471 191.494 218.853 193.412C219.038 194.336 219.425 194.703 220.421 194.244C225.101 192.088 226.402 193.844 227.661 198.29C227.999 199.482 228.055 200.753 228.289 202.307C229.477 200.509 229.991 198.747 230.48 197.01C233.758 185.368 236.45 173.593 238.092 161.6C238.878 155.86 239.172 150.071 239.638 144.299C239.739 143.048 239.936 141.803 240.144 140.564C240.213 140.16 240.458 139.762 240.968 139.76C241.448 139.759 241.742 140.084 241.882 140.492C242.489 142.263 242.518 144.115 242.588 145.958C242.966 155.91 241.88 165.741 239.984 175.488C237.48 188.362 234.272 201.045 228.911 213.076C224.365 223.279 219.3 233.21 213.281 242.65C209.716 248.24 206.266 253.902 202.426 259.312C201.553 260.543 200.644 261.75 199.723 262.946C199.313 263.477 198.824 263.951 198.19 264.224C196.677 264.877 195.434 263.964 195.605 262.337C195.689 261.547 196.151 260.946 196.59 260.329C201.451 253.486 206.281 246.62 210.775 239.53C213.648 234.999 216.42 230.403 218.432 225.385C219.553 222.586 220.946 219.898 222.213 217.157C222.749 215.997 222.948 214.845 222.769 213.512C222.488 211.423 223.18 209.36 223.419 207.284C223.689 204.94 223.73 202.597 223.743 200.249C223.746 199.662 223.759 198.966 223.115 198.725C222.484 198.488 222.024 199.022 221.596 199.415C220.468 200.446 219.561 201.645 218.937 203.046C218.698 203.582 218.521 204.15 218.242 204.664C217.668 205.722 216.771 206.318 215.55 206.06C214.333 205.803 213.708 204.912 213.646 203.704C213.612 203.046 213.759 202.376 213.839 201.713C214.172 198.961 214.539 196.204 213.828 193.459C212.893 189.853 211.444 189.288 208.518 191.505C205.626 193.695 203.139 196.186 201.491 199.573C198.691 205.325 195.029 210.56 190.936 215.483C190.722 215.741 190.515 216.006 190.286 216.251C189.622 216.962 188.837 217.607 187.886 216.933C186.768 216.142 187.624 215.264 188.065 214.525C190.558 210.347 193.351 206.351 195.592 202.017C196.674 199.926 201.15 190.182 201.329 189.813C205.75 180.73 207.945 171.149 207.203 161.057C206.731 154.64 204.155 148.889 200.351 143.717C198.852 141.677 197.551 139.531 196.478 137.248C196.126 136.497 195.859 135.68 195.709 134.865C195.234 132.294 196.231 130.852 198.764 130.296C201.245 129.752 203.593 130.041 205.816 131.326C206.369 131.646 206.932 132.062 207.83 131.981Z" fill="black"/>
<path d="M130.388 103.397C131.138 103.447 131.458 103.147 131.807 102.93C133.141 102.103 134.546 101.443 136.038 102.404C137.541 103.372 137.442 104.968 137.286 106.493C137.149 107.827 136.926 109.151 136.741 110.479C136.661 111.049 136.366 111.6 136.663 112.394C137.498 112.442 138.072 111.737 138.772 111.417C140.634 110.566 142.57 109.607 144.449 111.097C146.285 112.553 145.644 114.628 145.234 116.493C144.669 119.062 143.375 121.335 142.063 123.591C141.491 124.574 140.668 125.459 140.51 126.676C141.466 127.241 142.237 126.701 143.01 126.553C145.881 126.005 148.515 126.362 150.815 128.331C153.149 130.328 153.232 133.037 150.916 135.027C149.446 136.291 147.773 137.272 146.03 138.115C141.553 140.281 137.285 142.764 133.565 146.109C132.926 146.683 132.194 147.252 131.338 146.583C130.37 145.827 130.85 144.896 131.286 144.085C132.213 142.357 133.555 140.97 135.093 139.773C137.619 137.806 140.336 136.147 143.208 134.731C144.411 134.138 145.559 133.435 146.727 132.773C147.095 132.565 147.513 132.298 147.455 131.845C147.381 131.264 146.815 131.12 146.337 130.975C145.503 130.721 144.671 130.884 143.849 131.066C142.701 131.32 141.568 131.652 140.41 131.842C137.584 132.307 135.384 129.866 136.133 127.059C136.567 125.436 137.344 123.936 138.088 122.427C138.904 120.772 139.649 119.081 140.399 117.395C140.563 117.025 140.621 116.607 140.76 116.092C139.878 115.846 139.435 116.416 138.973 116.812C136.542 118.894 134.432 121.288 132.341 123.698C131.956 124.141 131.607 124.626 131.172 125.013C130.358 125.738 129.428 126.05 128.414 125.407C127.425 124.781 127.202 123.812 127.482 122.762C127.675 122.042 128.02 121.355 128.355 120.682C129.968 117.434 131.184 114.045 131.992 110.511C132.12 109.953 132.404 109.394 132.07 108.797C131.344 108.539 131.033 109.169 130.633 109.514C128.843 111.059 127.31 112.832 126.026 114.821C125.526 115.596 125.048 116.414 124.224 116.893C123.28 117.442 122.294 117.519 121.415 116.764C120.627 116.088 120.446 115.198 120.857 114.253C121.158 113.565 121.556 112.918 121.924 112.26C123.827 108.858 125.191 105.27 125.692 101.386C125.754 100.909 125.948 100.321 125.389 100.035C124.839 99.7547 124.433 100.227 124.081 100.55C120.651 103.694 117.752 107.275 115.48 111.332C114.334 113.38 113.214 115.468 112.353 117.646C108.399 127.649 105.004 137.831 102.94 148.415C102.828 148.989 102.731 149.576 102.73 150.158C102.691 161.17 103.779 171.959 109.106 181.897C109.45 182.539 111.993 185.944 111.518 186.734C110.876 187.801 110.322 188.984 109.318 189.752C108.739 190.194 106.64 186.725 106.43 186.289C104.571 182.43 102.872 178.514 101.704 174.373C99.6535 167.102 99.3754 159.717 99.4652 152.196C99.6426 137.367 104.498 123.898 110.664 110.757C112.967 105.85 116.352 101.661 120.252 97.9019C121.405 96.7909 122.648 95.7828 124.177 95.2198C127.595 93.9618 130.247 95.7399 130.475 99.3728C130.559 100.701 130.007 102.019 130.388 103.397Z" fill="black"/>
<path d="M129.628 159.867C129.51 158.6 129.589 157.348 129.936 156.128C130.104 155.535 130.493 155.077 131.193 155.112C131.76 155.14 132.095 155.544 132.298 156.013C132.462 156.392 132.563 156.812 132.615 157.224C132.998 160.267 134.21 163.02 135.556 165.73C136.474 167.579 137.478 170.355 135.573 171.234C135.344 171.339 135.108 171.428 134.886 171.546C133.966 172.033 132.316 169.099 131.904 168.066C130.845 165.413 129.91 162.731 129.628 159.867Z" fill="black"/>
<path d="M134.526 169.52C135.411 169.078 141.813 166.886 143.8 166.643C145.998 166.375 149.702 166.071 151.456 167.595C154.629 170.354 160.111 180.959 161.951 210.561C162.022 211.703 162.641 214.187 160.539 216.744C158.98 218.643 156.369 222.863 157.003 228.888C154.628 229.416 152.759 229.449 151.527 227.22C150.842 225.979 150.097 224.77 149.331 223.577C149.105 223.226 148.65 222.975 148.249 223.263C147.862 223.542 147.951 224.001 148.162 224.398C149.422 226.762 150.292 229.27 151.053 231.835C151.893 234.663 151.034 236.93 149.032 238.895C147.883 240.021 147.697 239.99 146.677 238.781C144.574 236.289 142.527 233.754 139.782 231.89C138.404 230.954 137.478 230.764 136.961 231.569C136.462 232.347 136.799 233.584 138 234.324C142.615 237.168 144.792 241.782 146.937 246.418C147.654 247.966 147.101 250.142 145.611 251.41C141.15 255.204 135.686 257.453 130.435 254.619C99.3567 237.847 99.1672 213.717 98.8063 211.068C98.1339 206.132 100.122 201.756 101.632 197.284C108.06 178.253 133.843 169.861 134.526 169.52Z" fill="#ABC264"/>
<path d="M198.333 191.792C197.771 193.226 195.372 192.462 194.169 192.133C191.466 191.394 190.272 188.981 191.175 186.2C192.136 183.239 192.879 180.232 193.5 177.19C193.927 175.099 193.869 173.01 193.211 170.972C192.746 169.527 192.265 169.398 191.075 170.4C189.432 171.784 188.355 173.572 187.568 175.552C187.166 176.565 186.841 177.626 186.304 178.564C185.186 180.515 183.232 180.666 181.762 178.967C181.271 178.398 180.906 177.723 180.45 177.121C179.743 176.186 179.057 175.227 178.272 174.359C177.035 172.99 175.807 171.583 173.697 171.577C172.961 171.574 172.447 171.052 172.299 170.33C172.149 169.604 172.501 169.007 173.079 168.592C174.168 167.811 175.373 167.618 176.668 167.991C177.906 168.348 178.984 168.997 179.903 169.875C180.93 170.856 181.891 171.907 182.775 172.818C183.99 172.547 184.126 171.702 184.49 171.103C185.502 169.442 186.637 167.895 188.164 166.665C192.244 163.377 196.076 164.525 197.644 169.539C198.484 172.224 197.273 183.212 196.515 185.88C196.269 186.744 195.844 187.605 196.351 188.482C196.987 188.627 199.045 189.976 198.333 191.792Z" fill="black"/>
<path d="M165.04 159.139C165.815 159.499 166.514 159.009 167.248 158.949C169.996 158.723 172.147 160.451 172.531 163.199C172.85 165.48 172.105 167.499 171.041 169.446C169.549 172.176 167.52 174.338 164.571 175.513C163.617 175.893 162.58 176.284 161.844 175.216C161.133 174.183 161.775 173.287 162.44 172.507C163.092 171.742 163.831 171.052 164.514 170.313C165.95 168.759 167.129 167.034 167.856 165.034C168.027 164.565 168.187 163.968 167.708 163.641C167.215 163.305 166.753 163.717 166.398 164.063C165.054 165.374 164.255 167.051 163.371 168.668C163.05 169.256 162.815 169.895 162.454 170.456C161.903 171.315 161.071 171.664 160.064 171.441C159.021 171.21 158.559 170.458 158.439 169.453C158.337 168.603 158.564 167.793 158.718 166.968C159.258 164.087 160.098 161.254 160.221 158.305C160.261 157.349 160.661 155.904 159.655 155.616C158.581 155.308 158.223 156.783 157.794 157.623C156.202 160.737 155.5 164.085 155.41 167.568C155.393 168.238 155.431 168.911 155.388 169.58C155.342 170.288 155.1 170.932 154.294 171.059C153.522 171.181 153.011 170.71 152.699 170.076C152.06 168.775 151.773 167.353 151.788 165.931C151.832 161.763 152.658 157.769 154.833 154.14C155.484 153.054 156.268 152.07 157.31 151.325C160.095 149.333 163.014 150.249 164.117 153.482C164.497 154.595 164.702 155.75 164.752 156.935C164.783 157.673 164.618 158.446 165.04 159.139Z" fill="black"/>
<path d="M155.255 228.232C155.035 223.836 156.809 220.106 159.234 216.602C159.463 216.27 159.817 215.982 160.175 215.79C160.897 215.402 161.708 214.801 162.476 215.529C163.251 216.263 162.472 216.907 162.092 217.506C160.397 220.171 159.389 223.079 158.929 226.189C158.466 229.323 159.151 232.052 161.845 233.984C164.723 236.048 167.835 236.981 171.327 235.672C172.551 235.213 173.48 234.392 174.182 233.302C176.317 229.984 176.959 226.514 175.272 222.796C174.96 222.11 174.644 221.414 174.452 220.691C174.244 219.908 174.457 219.156 175.178 218.705C175.97 218.208 176.804 218.293 177.512 218.893C177.886 219.21 178.2 219.629 178.454 220.055C181.646 225.42 180.459 233.182 175.82 237.409C174.612 238.51 173.187 239.223 171.623 239.605C169.131 240.212 166.632 240.167 164.166 239.403C158.656 237.697 155.732 234.012 155.255 228.232Z" fill="black"/>
<path d="M183.322 192.947C183.358 194.887 181.54 196.04 179.896 194.981C178.049 193.791 176.73 192.044 175.779 190.076C175.371 189.232 175.506 188.272 175.981 187.429C176.49 186.525 177.228 186.16 178.281 186.482C180.145 187.052 183.287 191.052 183.322 192.947Z" fill="black"/>
<path d="M167.061 222.433C167.64 222.479 167.863 222.765 167.942 223.076C168.49 225.253 168.723 227.507 169.793 229.553C170.112 230.161 169.714 230.859 169.116 231.296C168.511 231.738 167.878 231.727 167.229 231.383C164.927 230.159 164.341 224.516 166.352 222.814C166.592 222.611 166.917 222.508 167.061 222.433Z" fill="black"/>
<path d="M399.196 301.461C399.233 301.213 399.277 300.795 399.358 300.385C402.585 284.213 407.077 268.414 413.599 253.247C416.32 246.917 419.622 240.869 424.026 235.501C424.822 234.53 425.611 233.535 426.729 232.893C427.181 232.633 427.685 232.456 428.145 232.784C428.757 233.22 428.557 233.819 428.301 234.367C428.124 234.745 427.905 235.108 427.673 235.456C420.62 246.046 416.063 257.756 412.361 269.827C409.31 279.774 406.384 289.761 404.516 300.02C404.351 300.923 404.121 301.834 403.77 302.679C403.222 303.999 402.103 304.603 401.005 304.327C399.875 304.042 399.202 303.039 399.196 301.461Z" fill="black"/>
<path d="M498.085 302.66C498.067 304.35 497.39 305.337 496.136 305.618C494.807 305.916 493.557 305.226 493.028 303.702C492.618 302.522 492.371 301.277 492.147 300.043C491.083 294.19 490.046 288.333 489.014 282.474C488.766 281.065 488.727 279.641 488.873 278.215C488.936 277.599 489.162 277.062 489.804 276.853C490.554 276.608 491.133 276.945 491.524 277.547C491.84 278.034 492.11 278.571 492.294 279.121C494.774 286.527 496.224 294.193 497.996 301.778C498.072 302.101 498.065 302.444 498.085 302.66Z" fill="black"/>
<path d="M476.394 289.334C476.433 290.802 475.282 292.049 473.797 292.146C472.365 292.239 471.214 291.192 471.173 289.759C471.131 288.302 472.307 287.034 473.775 286.954C475.234 286.874 476.354 287.892 476.394 289.334Z" fill="black"/>
<path d="M476.999 300.155C476.99 301.598 476.076 302.617 474.741 302.668C473.271 302.726 472.194 301.632 472.261 300.15C472.323 298.795 473.344 297.782 474.678 297.755C476.046 297.726 477.007 298.72 476.999 300.155Z" fill="black"/>
<path d="M537.222 161.474C548.57 128.949 569.386 104.295 588.499 92.9874C625.532 71.0777 655.434 70.0187 674.408 69.6039C687.322 69.3217 700.569 71.3881 713.178 74.1663C725.228 76.8215 736.37 80.2934 747.336 85.874C749.204 86.8245 750.75 88.2909 752.181 89.832C752.699 90.3888 753.101 91.0449 753.29 91.7867C753.482 92.5446 753.464 93.2965 752.809 93.8735C752.225 94.3886 751.584 94.3286 750.932 94.0212C749.795 93.486 748.568 93.0829 747.54 92.3864C742.843 89.203 737.619 87.0729 732.417 84.971C716.687 78.6148 680.972 69.8179 645.48 76.6911C625.433 80.5734 606.708 87.7001 589.469 98.4637C573.609 108.367 555.567 130.649 548.082 147.947C546.216 152.258 543.605 158.3 541.693 162.592C541.41 163.227 540.37 166.883 538.693 166.652C537.378 166.47 536.653 163.106 537.222 161.474Z" fill="black"/>
<path d="M532.86 163.857C530.815 162.918 533.154 156.137 533.503 154.345C534.818 147.593 536.744 140.962 537.717 134.147C539.032 124.925 540.576 104.556 528.448 80.5338C522.298 68.3551 512.939 55.4579 500.784 49.2907C489.19 43.4088 472.713 39.43 451.29 40.9514C440.736 41.7007 426.869 45.2148 417.446 49.8651C390.691 63.0695 367.159 82.0019 353.896 92.029C346.458 97.652 340.257 101.86 331.901 106.169C323.006 110.757 313.557 112.437 303.611 111.692C299.587 111.39 283.036 110.367 260.325 96.8773C258.662 95.8896 257.206 94.5995 255.85 93.2131C255.26 92.6099 254.707 91.976 254.533 91.1107C254.378 90.3352 254.388 89.5697 255.078 89.0491C255.773 88.524 256.354 89.0627 256.9 89.4114C258.527 90.4506 260.129 91.529 261.748 92.5822C267.965 96.6293 274.533 100.05 281.516 102.504C292.749 106.451 304.407 108.608 316.213 106.409C334.193 103.06 348.522 90.3008 355.112 85.2223C367.221 75.891 376.011 70.2098 388.585 61.5153C397.95 55.0409 406.166 50.0163 415.444 46.1657C443.275 34.6155 467.83 35.952 476.586 37.1896C501.483 40.7067 520.141 54.4963 530.335 72.9133C542.106 94.2077 544.534 115.271 543.795 123.979C542.873 134.834 540.37 150.404 536.269 160.123C535.809 161.214 534.345 164.539 532.86 163.857Z" fill="black"/>
<path d="M520.239 154.622L511.817 175.394L547.97 183.573L548.988 175.653L543.648 163.717L520.239 154.622Z" fill="white"/>
<path d="M537.927 157.892C538.919 158.205 542.173 159.725 543.312 160.541C549.27 164.805 551.245 170.915 550.932 177.931C550.843 179.928 550.612 181.951 549.962 183.88C549.42 185.488 548.68 186.991 547.424 188.166C546.915 188.642 546.276 188.913 545.594 188.449C544.884 187.967 544.998 187.329 545.317 186.671C547.094 183.009 546.941 179.146 546.274 175.314C545.359 170.061 542.881 165.878 537.596 163.86C532.656 161.973 527.74 160.022 522.793 158.156C520.947 157.46 520.892 157.556 520.467 159.439C519.409 164.126 517.855 168.63 515.517 172.847C514.675 174.366 514.701 174.421 516.347 174.799C517.329 175.025 518.338 175.171 519.204 175.723C519.858 176.141 520.466 176.679 520.236 177.556C519.987 178.508 519.141 178.292 518.4 178.433C513.983 179.274 509.56 178.595 505.147 178.54C499.205 178.465 493.452 179.479 487.75 180.991C486.78 181.249 485.785 181.485 484.789 181.56C483.679 181.644 482.823 181.124 482.528 179.974C482.26 178.923 482.772 178.152 483.635 177.668C484.285 177.303 485.012 177.027 485.739 176.862C490.076 175.879 494.332 174.54 498.748 173.916C499.826 173.763 500.443 173.465 500.738 172.163C501.405 169.217 502.868 166.528 504.142 163.797C504.514 162.999 505.307 162.384 505.953 161.731C506.383 161.298 506.93 161.049 507.548 161.371C508.147 161.682 508.315 162.244 508.264 162.862C508.119 164.619 507.949 166.371 507.28 168.033C506.749 169.357 506.271 170.702 505.741 172.026C505.379 172.928 505.538 173.43 506.606 173.58C508.13 173.793 509.424 173.634 510.278 172.134C510.775 171.263 511.481 170.509 511.961 169.63C513.816 166.234 515.248 162.644 516.544 159.009C517.361 156.715 517.149 156.536 514.786 155.999C507.88 154.428 500.818 154.117 493.807 153.395C492.553 153.266 491.288 153.189 490.095 152.75C489.004 152.349 488.117 151.656 488.208 150.378C488.298 149.101 489.27 148.496 490.413 148.304C491.483 148.125 492.59 148.013 493.67 148.069C501.89 148.496 510.089 149.084 518.155 150.919C522.852 151.986 536.299 157.378 537.927 157.892Z" fill="black"/>
<path d="M532.307 184.886C532.429 183.903 531.971 183.036 530.968 182.329C530.236 181.814 529.994 180.975 530.352 180.076C530.752 179.074 531.582 178.689 532.571 178.791C533.82 178.919 535.067 179.133 536.29 179.417C537.49 179.696 538.016 180.717 538.369 181.762C538.693 182.722 537.954 183.04 537.221 183.376C535.373 184.227 535.349 184.376 536.177 187.15C536.568 188.46 537.076 188.653 538.928 188.36C539.971 188.194 540.77 187.639 541.604 187.055C542.919 186.135 543.998 186.166 544.786 186.996C545.628 187.883 545.522 189.183 544.493 190.4C544.277 190.655 544.051 190.931 543.769 191.095C542.544 191.805 541.82 192.631 542.766 194.085C542.921 194.324 542.923 194.792 542.798 195.062C542.247 196.248 542.639 196.795 543.752 197.487C545.184 198.377 544.953 200.367 543.301 201.155C541.962 201.794 541.521 202.513 541.469 203.979C541.406 205.714 539.782 206.266 538.355 205.171C537.767 204.719 537.34 204.062 536.8 203.539C535.68 202.455 534.214 202.766 533.623 204.198C533.528 204.429 533.502 204.687 533.421 204.925C533.069 205.97 532.444 206.739 531.239 206.622C530.124 206.512 529.635 205.658 529.643 204.676C529.655 203.273 528.961 202.893 527.701 202.636C524.915 202.068 523.955 200.758 524.343 197.998C524.668 195.688 525.026 193.307 526.947 191.626C527.837 190.847 527.591 190.254 526.815 189.586C526.311 189.153 525.869 188.632 525.468 188.1C524.884 187.324 524.684 186.431 524.943 185.479C525.311 184.133 526.521 183.775 527.35 184.9C528.286 186.172 529.468 187.045 530.82 187.726C532.262 188.453 532.59 188.207 532.496 186.6C532.467 186.098 532.388 185.599 532.307 184.886ZM539.078 196.972C536.912 195.832 534.464 195.351 531.973 195.021C531.297 194.931 530.619 194.972 530.01 195.288C529.024 195.799 528.467 196.726 528.575 197.751C528.7 198.954 529.842 198.499 530.605 198.599C530.852 198.631 531.107 198.607 531.358 198.606C534.015 198.593 536.681 198.632 539.078 196.972Z" fill="black"/>
<path d="M532.59 198.718L525.086 200.602L523.611 207.554L519.47 209.862L543.561 213.217L543.363 200.73L532.59 198.718Z" fill="white"/>
<path d="M541.029 205.369C541.384 204.931 541.31 204.412 541.318 203.919C541.362 201.393 540.808 200.754 538.324 200.62C535.296 200.458 532.286 200.793 529.279 201.081C528.702 201.136 528.129 201.328 527.578 201.521C526.879 201.767 526.398 202.294 526.553 203.045C526.724 203.875 527.443 203.556 527.996 203.525C528.58 203.493 529.169 203.416 529.748 203.457C530.683 203.524 531.329 204.036 531.518 204.971C531.704 205.895 531.322 206.643 530.53 207.104C530.032 207.394 529.461 207.589 528.899 207.732C522.223 209.43 516.011 212.044 510.827 216.739C510.273 217.24 509.601 217.622 508.951 218.003C508.326 218.37 507.653 218.448 507.122 217.837C506.596 217.231 506.786 216.573 507.17 215.98C507.443 215.559 507.78 215.179 508.104 214.795C511.072 211.273 514.59 208.481 518.873 206.709C519.881 206.292 520.881 205.85 521.908 205.485C522.842 205.153 523.141 204.612 523.088 203.588C522.883 199.64 523.879 198.286 527.691 197.364C531.645 196.408 535.696 196.366 539.71 196.688C543.493 196.991 545.448 199.188 545.561 202.979C545.62 204.939 546.131 207.024 544.664 208.79C544.195 209.355 544.671 209.901 544.884 210.426C545.58 212.135 546.336 213.822 546.976 215.551C547.86 217.942 548.191 220.418 547.972 222.975C547.545 227.984 545.009 231.6 540.746 234.109C539.399 234.902 537.942 235.262 536.396 235.051C535.111 234.876 534.811 235.473 534.809 236.616C534.778 251.587 538.135 266.747 543.56 281.937C546.341 289.722 552.932 299.759 557.673 306.508C557.721 306.577 557.774 306.642 557.821 306.711C559.032 308.476 559.027 310.063 557.808 310.97C556.676 311.813 555.205 311.473 553.834 309.995C553.265 309.381 552.737 308.72 552.256 308.035C542.022 293.466 533.403 272.577 530.788 254.868C529.877 248.701 529.833 242.492 530.109 236.277C530.12 236.026 530.157 235.775 530.167 235.524C530.24 233.635 530.149 233.557 528.424 234.101C527.063 234.529 525.72 235.021 524.346 235.398C523.217 235.706 522.059 235.938 520.901 236.106C520.074 236.227 519.096 236.309 518.868 235.19C518.655 234.146 519.497 233.733 520.282 233.39C520.896 233.122 521.537 232.915 522.167 232.679C525.469 231.44 528.725 230.097 531.893 228.537C533.256 227.865 534.624 227.274 535.424 225.85C535.833 225.121 536.565 224.868 537.383 225.121C538.234 225.384 538.485 226.078 538.52 226.889C538.57 228.057 538.179 229.006 537.238 229.749C536.835 230.066 536.061 230.36 536.705 231.103C537.204 231.68 537.783 231.437 538.294 231.114C539.865 230.119 541.35 228.987 542.33 227.387C543.171 226.015 543.613 224.446 543.622 222.831C543.648 218.376 541.834 214.527 539.46 210.905C538.905 210.059 537.945 209.602 537.059 209.109C536.475 208.785 535.896 208.432 535.382 208.01C534.667 207.423 534.451 206.621 534.732 205.739C535.029 204.804 535.807 204.502 536.688 204.421C537.542 204.343 538.346 204.597 539.15 204.855C539.769 205.053 540.296 205.606 541.029 205.369Z" fill="black"/>
<path d="M491.969 238.438C491.606 237.343 490.644 236.268 492.172 234.563C493.912 232.621 496.597 229.386 498.116 227.322C499.338 225.661 500.603 225.954 501.793 226.328C503.582 226.89 503.886 228.101 504.302 229.421C506.156 235.306 509.947 239.842 514.342 243.963C514.862 244.45 515.926 244.969 515.924 245.958C515.921 246.884 515.824 247.371 515.332 248.21C515.289 248.283 515.251 248.362 515.194 248.42C513.827 249.827 513.117 251.664 512.031 253.255C510.378 255.677 508.765 258.025 506.621 260.17C499.602 267.192 491.917 273.181 482.973 277.498C471.681 282.947 459.855 285.495 447.29 283.778C442.841 283.171 438.626 281.806 434.603 279.83C433.849 279.459 433.084 279.097 432.506 278.463C431.75 277.635 431.554 276.677 432.072 275.677C432.603 274.651 433.538 274.33 434.631 274.565C435.199 274.686 435.761 274.899 436.287 275.151C446.121 279.875 456.354 280.216 466.793 277.821C480.32 274.718 491.883 268.026 501.797 258.394C502.218 257.985 502.62 257.555 503.032 257.137C503.532 256.628 503.543 256.128 503.039 255.606C500.632 253.116 498.745 250.235 496.888 247.338C495.081 244.52 493.377 241.638 491.969 238.438ZM500.206 228.933C500.046 228.993 499.823 229.003 499.752 229.113C498.347 231.295 496.995 233.515 495.067 235.304C494.386 235.937 494.843 236.506 495.198 237.079C497.403 240.648 499.718 244.143 502.483 247.307C503.694 248.693 505.061 249.941 506.337 251.271C507.088 252.054 507.709 252.011 508.4 251.163C511.453 247.412 511.476 248.375 508.439 244.983C508.327 244.858 508.211 244.738 508.094 244.618C504.318 240.724 501.871 236.135 500.822 230.803C500.697 230.165 500.692 229.462 500.206 228.933Z" fill="black"/>
<path d="M464.392 255.289C459.106 255.073 453.737 254.198 448.48 252.669C446.483 252.088 445.641 251.053 445.955 249.804C446.299 248.435 447.606 247.853 449.706 248.314C452.984 249.032 456.269 249.696 459.576 250.27C465.949 251.378 472.098 250.62 478.127 248.396C478.915 248.106 479.968 247.123 480.593 248.061C481.295 249.114 480.067 249.847 479.341 250.458C475.079 254.045 469.995 255.178 464.392 255.289Z" fill="black"/>
<path d="M449.15 172.511C445.478 175.65 441.541 178.518 438.122 181.909C433.271 186.721 428.33 191.484 424.324 197.093C422.9 199.087 422.297 201.342 419.865 202.35C418.628 202.864 417.324 203.488 415.989 203.386C411.583 203.048 406.344 204.111 404.386 208.844C402.897 212.442 404.475 217.471 406.98 218.489C408.165 218.97 408.783 220.927 408.329 221.308C407.237 222.226 407.458 225.039 407.378 226.353C407.252 228.43 406.312 230.206 405.212 231.869C404.056 233.617 401.898 234.054 400.416 232.501C388.621 220.129 389.5 206.44 389.341 204.326C388.966 199.34 389.79 194.521 391.051 189.734C391.346 188.613 391.288 187.396 391.574 186.286C400.189 152.856 428.195 151.311 434.172 150.502C441.13 149.561 447.844 150.793 454.318 153.425C459.041 155.599 462.593 158.522 461.94 161.298C461.163 164.597 449.699 172.041 449.15 172.511Z" fill="#8236FE"/>
<path d="M470.67 140.785L462.098 145.068L454.676 156.485L452.458 172.516L462.782 165.603L471.385 148.694L470.67 140.785Z" fill="white"/>
<path d="M488.494 241.491C480.285 248.224 471.328 249.87 461.397 247.807C451.907 245.835 444.02 240.856 437.31 233.951C436.43 233.046 435.66 232.033 435.223 230.833C434.884 229.903 434.312 229.58 433.32 229.61C428.295 229.757 424.536 227.162 421.249 223.761C419.503 221.954 419.752 218.745 421.653 216.357C422.592 217.2 423.336 218.169 423.997 219.238C425.827 222.198 428.686 223.71 431.904 224.644C432.973 224.954 434.063 224.689 435.146 224.505C437.851 224.047 438.678 224.615 439.344 227.433C439.585 228.452 440.002 229.337 440.727 230.065C448.326 237.686 457.145 242.756 468.18 243.265C474.223 243.544 479.628 241.99 484.315 238.073C486.503 236.244 488.812 234.56 490.743 232.434C492.808 230.159 494.236 227.518 495.326 224.677C495.658 223.814 495.873 222.918 495.862 221.977C495.789 215.611 494.81 209.438 491.874 203.703C491.372 202.723 491.043 201.75 491.317 200.5C488.713 200.766 486.35 201.366 483.923 201.449C482.483 201.498 481.068 201.489 479.694 201.019C478.669 200.668 477.375 200.422 477.374 199.074C477.372 197.783 478.612 197.426 479.608 196.976C480.937 196.376 482.356 196.222 483.78 196.113C487.307 195.843 490.774 195.234 494.186 194.311C498.043 193.267 500.762 190.729 503.006 187.579C503.512 186.868 503.69 186.056 503.559 185.186C503.417 184.23 502.958 183.671 501.891 183.727C500.793 183.784 499.729 183.975 498.669 184.256C490.853 186.325 482.901 186.361 474.915 185.79C473.232 185.669 471.584 185.309 470.054 184.577C469.38 184.255 468.729 183.842 468.16 183.36C467.556 182.848 467.215 182.141 467.611 181.338C468.038 180.473 468.817 180.515 469.571 180.768C471.674 181.476 473.854 181.558 476.037 181.627C476.448 181.641 476.862 181.585 477.252 181.562C477.658 180.787 477.012 180.458 476.688 180.04C475.507 178.513 474.292 177.012 473.097 175.496C472.786 175.101 472.477 174.699 472.21 174.274C471.309 172.834 471.315 171.762 472.201 171.128C473.113 170.475 474.216 170.772 475.195 172.067C476.106 173.27 476.922 174.546 477.768 175.797C478.756 177.257 479.786 178.692 480.695 180.199C481.291 181.188 482.028 181.547 483.173 181.475C488.116 181.163 493.079 181.056 497.876 179.596C499.331 179.153 500.842 179.002 502.357 178.993C505.221 178.975 507.085 180.396 507.892 183.17C508.691 185.914 508.329 188.421 506.637 190.809C503.564 195.144 499.697 198.293 494.435 199.542C493.951 199.656 493.491 199.875 493.025 200.059C492.978 200.078 492.967 200.192 492.899 200.365C495.577 202.617 497.169 205.633 498.184 208.939C499.916 214.58 501.464 220.305 499.771 226.233C498.307 231.359 496.074 235.275 488.494 241.491Z" fill="black"/>
<path d="M470.62 155.81C471.487 156.204 472.257 155.631 473.074 155.592C476.502 155.427 478.393 158.04 477.112 161.233C476.987 161.543 476.849 161.855 476.667 162.134C473.943 166.313 470.777 170.082 466.579 172.878C465.885 173.34 465.173 173.803 464.278 173.793C463.013 173.778 462.448 172.983 462.887 171.786C463.182 170.979 463.79 170.387 464.35 169.762C466.589 167.263 468.825 164.762 471.035 162.239C471.563 161.635 472.198 161.068 472.397 160.219C471.639 159.844 471.17 160.304 470.696 160.582C468.504 161.868 466.586 163.474 465.051 165.518C464.549 166.185 464.106 166.912 463.373 167.371C462.604 167.854 461.793 167.987 461.007 167.469C460.137 166.897 459.896 166.039 460.123 165.047C460.317 164.203 460.89 163.568 461.353 162.872C464.758 157.75 467.511 152.311 469.324 146.418C469.545 145.699 469.715 144.961 469.865 144.223C469.909 144.005 469.801 143.755 469.747 143.42C468.606 143.386 467.861 144.102 467.089 144.665C462.633 147.912 459.597 152.3 457.233 157.188C455.157 161.48 454.287 166.078 453.993 170.804C453.947 171.557 453.911 172.313 453.81 173.059C453.719 173.725 453.592 174.46 452.745 174.555C451.938 174.646 451.491 174.068 451.311 173.398C450.619 170.822 450.448 168.05 450.826 165.294C451.262 162.123 451.859 159.569 452.927 156.562C453.29 155.538 455.842 151.077 456.689 149.834C459.318 145.979 462.369 142.573 466.509 140.27C467.695 139.61 468.903 139.066 470.285 138.995C472.391 138.888 473.597 139.786 474.08 141.847C474.375 143.109 474.185 144.348 473.912 145.583C473.312 148.296 472.312 150.874 471.281 153.446C470.981 154.194 470.39 154.887 470.62 155.81Z" fill="black"/>
<path d="M401.801 213.706C401.389 207.499 405.996 201.858 411.675 201.078C412.511 200.964 413.35 200.945 414.166 201.224C415.383 201.64 415.914 202.473 415.844 203.697C415.77 204.97 414.829 204.728 414.026 204.86C410.07 205.512 407.163 208.888 407.221 212.711C407.259 215.222 408.564 216.599 411.077 216.737C413.039 216.845 414.693 216.146 416.033 214.718C416.549 214.168 416.999 213.551 417.543 213.032C418.183 212.422 418.958 212.086 419.84 212.496C420.836 212.959 420.996 213.851 420.916 214.828C420.846 215.687 420.531 216.462 420.03 217.152C417.731 220.319 414.638 221.816 410.711 221.555C409.374 221.466 408.112 220.938 406.742 220.974C405.856 220.997 405.213 220.337 404.617 219.743C402.809 217.939 401.998 215.692 401.801 213.706Z" fill="black"/>
<path d="M456.175 213.349C458.654 210.451 461.239 207.954 464.298 205.987C466.143 204.801 468.038 203.742 470.193 203.227C471.265 202.971 472.345 202.84 473.43 203.13C473.915 203.26 474.421 203.427 474.533 204.015C474.651 204.631 474.22 204.914 473.753 205.143C473.377 205.328 472.988 205.485 472.608 205.66C467.397 208.071 463.161 211.682 459.612 216.154C458.918 217.029 458.53 218.031 458.12 219.043C457.617 220.285 457.056 221.506 456.491 222.723C456.079 223.611 455.462 224.307 454.38 224.202C453.158 224.083 452.69 223.148 452.542 222.112C452.364 220.872 452.341 219.609 452.273 218.355C452.222 217.435 452.276 216.504 452.156 215.594C451.997 214.383 451.548 214.132 450.461 214.702C449.502 215.205 448.626 215.87 447.733 216.492C447.114 216.923 446.531 217.406 445.926 217.858C445.647 218.066 445.324 218.191 445.007 217.98C444.575 217.694 444.612 217.248 444.803 216.865C445.063 216.345 445.342 215.809 445.726 215.382C446.566 214.447 447.425 213.518 448.368 212.691C451.464 209.977 453.273 210.092 456.175 213.349Z" fill="black"/>
<path d="M459.707 191.473C459.928 196.35 455.312 203.002 450.772 204.456C447.235 205.589 443.995 204.366 442.158 201.239C441.65 200.375 441.375 199.513 442.143 198.715C442.96 197.865 443.998 197.863 444.867 198.554C446.018 199.469 447.165 200.258 448.715 199.992C450.462 199.691 451.717 198.579 452.856 197.331C454.573 195.451 455.975 193.397 456.248 190.768C456.355 189.74 456.483 188.683 457.776 188.512C458.672 188.394 459.398 189.358 459.638 190.829C459.678 191.076 459.691 191.327 459.707 191.473Z" fill="black"/>
<path d="M476.724 224.889C473.948 225.003 471.488 224.634 469.293 223.205C467.99 222.357 466.989 221.253 466.763 219.632C466.653 218.844 466.771 218.073 467.523 217.653C468.335 217.2 468.942 217.645 469.464 218.28C471.362 220.59 473.958 220.757 476.577 220.314C479.25 219.862 481.684 218.712 483.718 216.845C483.78 216.788 483.837 216.726 483.901 216.672C485.406 215.4 486.534 215.253 487.404 216.214C488.236 217.133 488.107 218.461 486.861 219.816C484.081 222.838 480.612 224.526 476.724 224.889Z" fill="black"/>
<path d="M446.229 181.391C448.234 181.301 449.331 181.918 449.725 183.081C450.177 184.414 449.722 185.67 448.109 186.306C443.877 187.976 441.516 191.347 439.692 195.209C439.246 196.151 438.737 196.558 437.792 196.348C436.845 196.137 436.373 195.418 436.407 194.495C436.464 192.967 436.953 191.528 437.614 190.162C438.984 187.323 441.043 185 443.284 182.836C444.213 181.938 445.379 181.464 446.229 181.391Z" fill="black"/>
<path d="M992.674 301.08C992.644 302.249 992.17 303.175 991.039 303.657C989.889 304.146 988.873 303.803 988.074 302.937C987.628 302.455 987.286 301.849 987 301.251C980.094 286.807 973.163 272.375 966.739 257.708C966.202 256.481 965.745 255.217 965.32 253.946C964.939 252.808 965.118 251.767 966.228 251.094C967.122 250.553 968.203 250.849 969.095 251.928C970.171 253.229 970.905 254.75 971.638 256.257C975.71 264.623 979.785 272.986 983.812 281.374C986.497 286.966 989.108 292.592 991.741 298.208C992.167 299.116 992.628 300.021 992.674 301.08Z" fill="black"/>
<path d="M905.93 302.738C906.34 299.003 907.121 295.149 907.833 291.285C908.166 289.476 908.52 287.671 908.896 285.871C909.049 285.136 909.241 284.397 909.913 283.917C911.092 283.072 912.718 283.577 913.179 284.969C913.475 285.862 913.377 286.787 913.256 287.706C912.678 292.101 912.045 296.49 911.563 300.896C911.388 302.505 910.514 303.672 909.712 304.934C909.163 305.798 908.423 306.279 907.396 306.021C906.342 305.756 906.014 304.897 905.934 303.918C905.907 303.586 905.93 303.25 905.93 302.738Z" fill="black"/>
<path d="M964.453 229.62C965.362 229.635 966.034 229.614 966.701 229.664C968.901 229.829 969.834 230.986 969.477 233.176C969.343 233.997 969.055 234.793 968.829 235.597C968.054 238.347 967.545 241.123 967.699 244.007C967.8 245.896 967.035 246.997 965.647 247.245C964.362 247.475 963.296 246.756 962.573 245.202C961.984 243.936 961.856 242.643 962.233 241.293C962.773 239.362 962.861 237.327 963.567 235.432C963.981 234.321 963.5 233.845 962.406 233.881C960.735 233.936 959.065 234.032 957.395 234.096C956.561 234.129 955.724 234.173 954.893 234.131C954.165 234.094 953.606 233.72 953.468 232.952C953.331 232.187 953.746 231.628 954.379 231.324C955.126 230.965 955.918 230.657 956.724 230.468C959.34 229.852 962.01 229.665 964.453 229.62Z" fill="black"/>
<path d="M969.841 201.415C969.697 200.948 968.762 199.248 968.513 198.818C964.816 192.422 962.084 185.622 960.609 178.399C960.255 176.664 960.131 174.848 959.632 173.11C959.176 171.521 958.545 169.998 957.974 168.457C956.836 165.385 955.997 162.241 955.738 158.847C955.486 155.529 954.877 152.081 953.5 148.924C953.248 148.349 953.199 147.813 953.197 147.235C953.191 145.726 953.16 144.216 953.202 142.708C953.291 139.571 954.349 138.485 957.532 138.562C1006.76 139.761 1017.33 166.292 1021.15 172.078C1025.61 178.84 1030.74 200.668 1029.92 203.986C1029.07 207.426 1026.55 208.745 1023.76 209.478C1019.76 210.529 1015.67 210.267 1011.63 209.051C1009.27 208.339 1000.82 209.717 995.734 203.474C995.36 203.123 995.612 202.592 995.257 202.141C993.374 199.747 994.426 189.328 992.62 191.013C991.521 193.904 991.042 196.739 990.61 199.557C990.371 201.117 990.008 202.659 989.892 204.256C989.766 206 988.661 206.818 986.894 207.012C986.398 207.067 983.775 207.622 983.523 207.195C980.212 201.583 976.647 200.011 969.841 201.415Z" fill="#E6A7E6"/>
<path d="M952.514 176.723C951.248 176.622 950.393 177.213 949.473 177.509C947.866 178.027 946.255 178.488 944.542 178.329C941.962 178.091 940.433 176.445 940.393 173.848C940.359 171.663 941.322 169.784 942.318 167.935C942.909 166.839 943.598 165.796 944.247 164.723C943.548 164.04 942.927 164.453 942.335 164.616C939.416 165.419 936.468 166.061 933.436 166.246C931.409 166.369 929.396 166.252 927.463 165.611C924.462 164.615 923.453 162.451 924.538 159.489C925.035 158.134 925.802 156.934 926.723 155.833C930.123 151.768 934.42 148.882 939.101 146.517C939.922 146.103 940.808 145.774 941.759 145.893C942.377 145.97 942.911 146.292 943.018 146.949C943.115 147.546 942.626 147.802 942.161 148.035C937.747 150.248 934.177 153.534 930.784 157.032C930.147 157.689 929.6 158.454 929.117 159.234C927.844 161.292 928.11 161.842 930.439 162.11C932.287 162.322 934.121 162.207 935.956 161.912C940.201 161.232 944.238 159.775 948.356 158.622C949.082 158.419 949.809 158.153 950.551 158.09C952.35 157.939 953.377 159.323 952.793 161.03C952.543 161.762 952.014 162.315 951.518 162.883C949.745 164.912 948.194 167.101 946.848 169.43C946.346 170.298 945.896 171.21 945.546 172.147C945.147 173.213 945.471 173.629 946.534 173.445C947.354 173.302 948.16 173.024 948.943 172.732C950.672 172.085 952.374 171.368 954.104 170.724C955.472 170.215 956.887 169.814 958.092 171.059C959.194 172.198 958.88 173.528 958.442 174.839C957.911 176.43 957.302 177.998 956.85 179.611C955.641 183.924 957.151 186.561 961.458 187.778C961.696 187.845 961.966 187.808 962.205 187.877C963.181 188.157 963.325 188.695 962.617 189.471C961.394 190.81 959.81 190.903 958.194 190.589C954.591 189.888 951.681 186.391 951.542 182.704C951.504 181.689 951.65 180.702 951.892 179.717C952.125 178.767 952.293 177.8 952.514 176.723Z" fill="black"/>
<path d="M898.207 196.081C888.858 195.633 880.785 191.514 873.205 186.16C872.104 185.382 871.112 184.474 870.386 183.314C869.221 181.452 868.801 179.501 869.353 177.305C869.887 175.178 871.166 173.965 873.261 173.54C875.175 173.153 877.116 173.206 879.033 173.42C883.616 173.931 888.196 174.482 892.763 175.116C898.976 175.978 904.984 175.172 910.863 173.122C912.29 172.625 913.697 172.071 915.123 171.573C915.755 171.352 916.404 171.149 917.062 171.037C917.803 170.911 918.653 170.776 919.028 171.671C919.404 172.566 918.77 173.054 918.093 173.475C910.668 178.086 902.682 180.394 893.873 179.517C888.693 179.001 883.554 178.199 878.4 177.496C877.227 177.336 876.056 177.238 874.886 177.402C873.303 177.623 872.75 178.606 873.326 180.085C873.574 180.722 873.981 181.261 874.498 181.701C875.008 182.135 875.529 182.569 876.091 182.929C885.847 189.182 896.224 192.909 908.047 190.756C908.951 190.592 909.88 190.482 910.797 190.486C912.236 190.491 912.529 190.973 912.131 192.393C911.729 193.831 910.774 194.677 909.345 195C905.734 195.817 902.11 196.53 898.207 196.081Z" fill="black"/>
<path d="M925.364 129.434C932.449 129.56 939.156 131.257 945.561 134.207C946.624 134.696 947.735 135.142 948.439 136.159C948.851 136.753 948.949 137.425 948.576 138.058C948.174 138.74 947.585 138.408 947.018 138.258C944.424 137.568 941.811 136.948 939.227 136.224C932.68 134.389 926.044 133.824 919.297 134.729C917.882 134.919 916.483 135.233 915.186 135.853C914.49 136.185 914.362 136.722 915.078 137.16C915.788 137.595 916.549 137.969 917.326 138.271C920.807 139.623 924.425 140.247 928.161 140.227C929.248 140.221 930.349 140.144 931.415 140.445C932.585 140.776 933.338 141.521 933.338 142.776C933.338 144.047 932.544 144.744 931.375 145.061C931.133 145.127 930.884 145.19 930.635 145.205C924.415 145.597 918.401 144.869 912.818 141.871C911.779 141.312 910.815 140.636 910.029 139.743C908.078 137.525 908.24 134.788 910.452 132.837C911.87 131.585 913.587 130.925 915.386 130.438C918.661 129.55 922.023 129.538 925.364 129.434Z" fill="black"/>
<path d="M967.437 225.969C964.887 226.061 961.821 225.083 959.033 223.185C958.618 222.902 958.17 222.649 957.814 222.303C956.952 221.464 956.639 220.446 957.213 219.334C957.798 218.203 958.825 217.944 960.003 218.19C961.09 218.417 961.998 219.047 962.959 219.558C968.051 222.268 975.408 220.987 979.135 216.687C981.575 213.871 982.495 210.736 980.838 207.157C979.529 204.331 977.04 202.925 973.91 203.271C971.943 203.489 970.177 204.244 968.579 205.368C967.208 206.331 965.882 207.36 964.568 208.401C963.943 208.896 963.313 209.393 962.564 208.803C961.869 208.255 962 207.46 962.28 206.72C962.397 206.41 962.544 206.096 962.744 205.835C966.118 201.436 970.247 198.408 976.108 198.64C980.313 198.806 983.248 201.005 984.937 204.709C988.234 211.938 985.404 219.792 978.235 223.818C975.13 225.561 971.761 226.025 967.437 225.969Z" fill="black"/>
<path d="M900.732 210.285C900.768 208.107 900.793 205.929 900.846 203.751C900.885 202.137 901.289 200.6 901.987 199.15C902.398 198.298 902.945 197.414 904.05 197.698C905.09 197.965 905.019 198.982 904.926 199.801C904.539 203.225 904.617 206.663 904.511 210.096C904.193 220.398 906.483 230.034 911.808 238.906C911.937 239.121 912.08 239.33 912.195 239.552C912.644 240.42 912.891 241.307 912.078 242.092C911.418 242.729 910.359 242.54 909.436 241.53C907.728 239.661 906.359 237.542 905.355 235.223C901.909 227.268 900.015 219.009 900.732 210.285Z" fill="black"/>
<path d="M925.577 185.408C925.752 182.079 926.846 179.212 928.521 176.542C928.697 176.261 928.928 176.007 929.163 175.772C929.602 175.332 930.124 175.041 930.741 175.349C931.388 175.673 931.379 176.242 931.202 176.864C930.881 177.992 930.594 179.13 930.287 180.262C929.845 181.891 929.569 183.534 929.748 185.232C929.857 186.257 930.166 187.19 930.846 187.988C932.009 189.353 933.219 189.657 934.881 188.955C935.98 188.492 936.888 187.758 937.741 186.937C938.526 186.182 939.324 185.431 940.181 184.763C940.982 184.139 941.931 184.041 942.732 184.722C943.565 185.43 943.521 186.404 942.947 187.23C941.518 189.287 940.163 191.389 937.885 192.718C932.584 195.811 926.681 193.076 925.741 187.01C925.651 186.432 925.62 185.845 925.577 185.408Z" fill="black"/>
<path d="M919.559 219.49C918.722 219.518 917.878 219.628 917.071 219.291C916.219 218.935 915.722 218.32 915.714 217.368C915.706 216.355 916.28 215.847 917.218 215.661C917.876 215.531 918.535 215.401 919.192 215.264C923.171 214.435 926.609 212.646 929.326 209.571C929.602 209.258 929.857 208.904 930.192 208.671C930.863 208.203 931.611 208.171 932.338 208.559C933.012 208.919 933.183 209.585 933.205 210.27C933.24 211.34 932.667 212.183 932.069 213.006C929.187 216.972 924.646 219.326 919.559 219.49Z" fill="black"/>
<path d="M972.566 209.062C974.085 209.116 975.674 210.146 976.129 211.413C976.43 212.249 976.409 213.075 975.708 213.72C974.984 214.386 974.062 214.386 973.433 213.766C972.199 212.549 971.029 212.441 969.685 213.49C969.215 213.858 968.688 214.168 968.128 213.626C967.571 213.085 967.614 212.431 967.851 211.771C968.399 210.243 970.588 208.992 972.566 209.062Z" fill="black"/>
<path d="M882.715 264.921C881.789 259.775 883.392 257.438 888.411 256.337C889.569 256.083 890.733 256.022 891.914 256.029C892.545 256.033 893.249 256.342 893.807 255.761C893.836 254.946 893.131 254.644 892.721 254.156C891.688 252.926 890.772 251.636 890.257 250.092C889.114 246.67 890.249 244.355 893.654 243.204C894.2 243.02 894.757 242.869 895.43 242.666C894.929 241.63 894.009 241.346 893.274 240.886C886.043 236.361 879.399 231.128 873.838 224.625C869.103 219.088 865.439 212.927 863.139 205.966C861.982 202.463 860.581 199.039 859.234 195.603C858.907 194.77 858.676 193.84 857.77 193.136C856.803 193.74 856.737 194.776 856.711 195.708C856.674 197.043 856.84 198.384 856.909 199.723C857.004 201.59 856.676 202.072 855.298 202.75C853.956 203.41 853.276 202.518 852.503 201.759C850.091 199.393 848.026 196.768 846.408 193.789C845.287 191.723 844.092 189.696 842.625 187.848C842.262 187.389 841.886 186.921 841.437 186.552C840.728 185.97 840.191 186.227 840.091 187.15C839.999 188.006 840.194 188.832 840.484 189.618C841.181 191.506 841.93 193.375 842.654 195.253C842.895 195.878 843.194 196.492 843.335 197.14C843.509 197.94 843.208 198.66 842.506 199.095C841.78 199.546 840.971 199.399 840.405 198.853C839.749 198.222 839.269 197.411 838.697 196.691C837.364 195.01 836.277 193.059 834.083 192.305C833.519 192.917 833.781 193.487 833.98 194.025C834.734 196.072 835.516 198.109 836.279 200.152C836.483 200.7 836.716 201.248 836.822 201.817C836.934 202.416 836.761 202.985 836.232 203.378C835.62 203.833 834.973 203.803 834.344 203.443C833.374 202.89 832.745 201.971 831.997 201.182C830.74 199.856 829.537 198.463 827.426 197.658C827.028 200.477 828.952 202.834 828.262 205.524C826.854 205.169 825.752 204.414 825.013 203.312C823.668 201.305 823.036 199.035 823.35 196.613C823.733 193.65 825.365 192.613 828.268 193.347C828.581 193.426 828.897 193.497 829.137 193.554C829.695 193.197 829.467 192.751 829.498 192.36C829.722 189.475 831.335 187.873 834.246 188.043C835.612 188.123 836.115 187.807 836.066 186.499C836.057 186.253 836.135 186.001 836.193 185.757C837.147 181.722 840.645 180.555 843.831 183.27C845.641 184.812 846.888 186.834 848.065 188.87C849.157 190.758 850.13 192.715 851.204 194.614C851.557 195.238 851.765 196.028 852.693 196.345C852.952 195.183 853.189 194.06 853.456 192.945C853.732 191.79 854.2 190.71 854.935 189.775C856.608 187.647 859.048 187.66 860.648 189.824C861.092 190.425 861.414 191.124 861.749 191.798C863.769 195.865 865.438 200.084 866.903 204.371C869.701 212.559 874.245 219.637 880.423 225.629C892.242 237.091 906.401 244.242 922.391 247.845C927.073 248.9 931.838 249.364 936.653 248.793C937.315 248.715 937.995 248.752 938.663 248.792C939.276 248.829 939.884 249.043 940.01 249.713C940.159 250.506 939.602 250.94 938.942 251.214C938.478 251.407 938.002 251.582 937.515 251.707C934.15 252.567 930.737 252.853 927.275 252.511C920.721 251.865 914.402 250.231 908.231 247.981C907.208 247.608 906.229 247.211 905.069 247.468C904.146 247.673 903.273 247.155 902.39 246.897C900.196 246.256 897.972 245.832 895.684 246.223C893.555 246.587 893.128 247.428 893.981 249.373C894.573 250.724 895.598 251.706 896.714 252.611C899.199 254.628 901.948 256.255 904.649 257.951C905.288 258.351 905.943 258.746 906.512 259.233C907.188 259.811 907.557 260.577 907.212 261.481C906.841 262.453 906.054 262.929 905.044 262.88C904.386 262.848 903.727 262.654 903.087 262.466C899.774 261.489 896.407 260.817 892.954 260.609C891.437 260.518 889.925 260.544 888.485 261.116C887.019 261.699 886.812 262.201 887.634 263.599C888.794 265.57 890.253 267.29 892.197 268.561C893.461 269.387 894.731 270.201 895.531 271.565C896.038 272.431 897.026 272.609 897.872 272.942C906.903 276.5 916.277 277.26 925.845 276.256C928.684 275.958 931.517 275.624 934.372 275.524C935.127 275.498 935.886 275.432 936.62 275.677C937.465 275.959 938.165 276.418 938.215 277.402C938.267 278.443 937.739 279.16 936.776 279.532C936.387 279.681 935.974 279.804 935.562 279.852C931.394 280.333 927.235 281.007 923.053 281.218C915.635 281.594 908.315 280.852 901.151 278.704C895.004 276.86 889.205 274.24 883.587 271.199C871.665 264.746 861.329 256.283 851.882 246.595C845.438 239.986 840.188 232.558 835.34 224.782C834.142 222.86 832.62 221.153 831.578 219.124C831.078 218.149 830.601 217.168 830.483 216.062C830.42 215.461 830.443 214.819 831.07 214.528C831.832 214.175 832.052 214.877 832.386 215.336C836.338 220.761 840.315 226.165 844.243 231.607C848.149 237.02 853.04 241.522 857.78 246.145C864.648 252.842 872.128 258.802 880.305 263.856C880.877 264.209 881.456 264.55 882.045 264.872C882.17 264.94 882.355 264.899 882.715 264.921Z" fill="black"/>
<path d="M871.461 195.873C870.888 196.922 871.19 197.875 871.016 198.765C870.805 199.844 870.297 200.693 869.098 200.75C867.914 200.807 867.215 200.062 866.973 198.986C866.414 196.5 866.792 194.136 868.272 192.04C869.245 190.662 870.494 190.394 872.03 191.051C874.539 192.123 876.79 193.435 877.545 196.366C877.749 197.159 878.3 197.856 878.638 198.622C882.208 206.7 887.641 213.272 894.696 218.545C895.432 219.095 896.135 219.7 896.792 220.341C897.302 220.84 897.508 221.483 897.12 222.17C896.749 222.828 896.13 223.075 895.415 222.983C893.706 222.765 892.262 221.907 890.839 221.011C884.149 216.798 879.022 211.185 875.619 204.031C874.576 201.838 873.564 199.631 872.53 197.434C872.292 196.929 872.216 196.312 871.461 195.873Z" fill="black"/>
<g clip-path="url(#clip0_1_2535)" filter="url(#filter0_d_1_2535)">
<path d="M665 134C665 99.7583 692.758 72 727 72C761.242 72 789 99.7583 789 134C789 168.242 761.242 196 727 196C692.758 196 665 168.242 665 134Z" fill="white"/>
<path d="M725.785 120.262V137.649H711.223L725.785 120.262ZM725.785 114.025C725.785 117.999 722.53 121.217 718.512 121.217C714.494 121.217 711.223 117.999 711.223 114.025H725.785ZM728.184 137.649C728.184 133.676 731.439 130.457 735.457 130.457C739.475 130.457 742.73 133.676 742.73 137.649H728.184ZM728.184 131.412V114.025H742.746L728.184 131.412ZM736.329 152.51C737.077 152.526 737.809 152.249 738.354 151.74L739.351 152.803C738.697 153.481 737.778 153.973 736.345 153.973C733.9 153.973 732.327 152.372 732.327 150.2C732.28 148.152 733.931 146.474 735.986 146.427H736.111C738.541 146.427 739.911 148.245 739.787 150.786H734.071C734.273 151.848 735.021 152.526 736.329 152.51ZM738.074 149.6C737.918 148.614 737.326 147.89 736.142 147.89C735.037 147.89 734.273 148.506 734.071 149.6H738.074ZM698.716 152.433L703.124 147.998H698.825V146.612H705.164V148.029L700.757 152.464H705.227V153.85H698.716V152.433ZM710.179 152.51C710.927 152.526 711.659 152.249 712.189 151.74L713.185 152.803C712.531 153.481 711.612 153.973 710.179 153.973C707.734 153.973 706.161 152.372 706.161 150.2C706.114 148.152 707.765 146.474 709.821 146.427H709.946C712.376 146.427 713.746 148.245 713.621 150.786H707.921C708.124 151.848 708.871 152.526 710.179 152.51ZM711.924 149.6C711.768 148.614 711.176 147.89 709.993 147.89C708.887 147.89 708.124 148.506 707.921 149.6H711.924ZM723.169 150.216C723.169 147.906 724.913 146.458 726.844 146.458C727.779 146.443 728.666 146.843 729.29 147.536V143.27H730.847V153.835H729.29V152.834C728.682 153.558 727.779 153.989 726.829 153.973C724.96 153.973 723.169 152.51 723.169 150.216ZM729.367 150.2C729.336 148.938 728.262 147.936 726.985 147.967C725.707 147.998 724.695 149.061 724.726 150.324C724.757 151.571 725.785 152.557 727.047 152.557C728.386 152.557 729.367 151.509 729.367 150.2ZM740.815 152.295L742.232 151.571C742.606 152.249 743.338 152.649 744.116 152.634C745.004 152.634 745.456 152.187 745.456 151.679C745.456 151.094 744.599 150.97 743.68 150.786C742.434 150.524 741.142 150.123 741.142 148.63C741.142 147.49 742.248 146.427 743.976 146.443C745.347 146.443 746.359 146.982 746.936 147.844L745.627 148.552C745.253 148.014 744.631 147.706 743.976 147.721C743.135 147.721 742.715 148.121 742.715 148.583C742.715 149.107 743.384 149.246 744.444 149.477C745.643 149.738 747.013 150.123 747.013 151.633C747.013 152.634 746.126 153.973 744.039 153.958C742.512 153.973 741.438 153.373 740.815 152.295ZM751.234 150.616L750.004 151.956V153.835H748.446V143.27H750.004V150.185L753.306 146.597H755.206L752.34 149.692L755.284 153.835H753.524L751.234 150.616ZM718.465 146.443C716.612 146.443 715.054 147.629 715.054 149.6V153.835H716.643V149.8C716.643 148.614 717.328 147.906 718.512 147.906C719.696 147.906 720.272 148.614 720.272 149.8V153.835H721.845V149.6C721.86 147.629 720.303 146.443 718.465 146.443Z" fill="#03363D"/>
</g>
<g clip-path="url(#clip1_1_2535)" filter="url(#filter1_d_1_2535)">
<path d="M207 62C207 27.7583 234.758 -1.98279e-06 269 -1.27734e-06C303.242 -5.71883e-07 331 27.7583 331 62C331 96.2417 303.242 124 269 124C234.758 124 207 96.2417 207 62Z" fill="white"/>
<path d="M263.817 45.1461C265.81 43.0691 268.585 41.781 271.654 41.781C275.735 41.781 279.294 44.0562 281.19 47.4336C282.837 46.6974 284.66 46.288 286.579 46.288C293.938 46.288 299.904 52.306 299.904 59.7291C299.904 67.1531 293.938 73.1711 286.579 73.1711C285.681 73.1711 284.803 73.0813 283.954 72.9095C282.285 75.8873 279.104 77.8991 275.453 77.8991C273.924 77.8991 272.479 77.5461 271.191 76.9183C269.499 80.8989 265.556 83.6898 260.961 83.6898C256.176 83.6898 252.098 80.6619 250.532 76.4155C249.848 76.5608 249.139 76.6365 248.412 76.6365C242.715 76.6365 238.096 71.9701 238.096 66.2129C238.096 62.3546 240.171 58.986 243.254 57.1837C242.62 55.723 242.267 54.1109 242.267 52.4161C242.267 45.795 247.642 40.4277 254.271 40.4277C258.164 40.4277 261.623 42.2785 263.817 45.1461Z" fill="#00A1E0"/>
<path d="M247.048 62.8624C247.01 62.9637 247.063 62.9848 247.075 63.0024C247.191 63.0869 247.309 63.1476 247.428 63.2154C248.058 63.55 248.654 63.6478 249.276 63.6478C250.544 63.6478 251.331 62.9733 251.331 61.8876V61.8666C251.331 60.8629 250.443 60.4984 249.609 60.2351L249.501 60.1999C248.872 59.9955 248.33 59.8194 248.33 59.4057V59.3837C248.33 59.0297 248.647 58.7691 249.138 58.7691C249.684 58.7691 250.332 58.9505 250.749 59.1812C250.749 59.1812 250.872 59.2605 250.916 59.1416C250.941 59.0782 251.152 58.5094 251.174 58.4478C251.198 58.3808 251.156 58.3316 251.113 58.3051C250.636 58.0155 249.978 57.8174 249.296 57.8174L249.17 57.8182C248.009 57.8182 247.199 58.519 247.199 59.5237V59.5448C247.199 60.604 248.093 60.9474 248.93 61.1868L249.065 61.2282C249.675 61.4158 250.201 61.5768 250.201 62.0065V62.0276C250.201 62.4204 249.859 62.7127 249.308 62.7127C249.094 62.7127 248.412 62.7084 247.675 62.2426C247.586 62.1906 247.534 62.1527 247.465 62.1114C247.429 62.0885 247.338 62.0489 247.299 62.1686L247.048 62.8624Z" fill="white"/>
<path d="M265.609 62.8624C265.57 62.9637 265.623 62.9848 265.636 63.0024C265.752 63.0869 265.87 63.1476 265.989 63.2154C266.619 63.55 267.214 63.6478 267.837 63.6478C269.105 63.6478 269.892 62.9733 269.892 61.8876V61.8666C269.892 60.8629 269.003 60.4984 268.17 60.2351L268.061 60.1999C267.433 59.9955 266.89 59.8194 266.89 59.4057V59.3837C266.89 59.0297 267.207 58.7691 267.698 58.7691C268.244 58.7691 268.892 58.9505 269.31 59.1812C269.31 59.1812 269.432 59.2605 269.477 59.1416C269.502 59.0782 269.713 58.5094 269.735 58.4478C269.759 58.3808 269.717 58.3316 269.673 58.3051C269.197 58.0155 268.538 57.8174 267.857 57.8174L267.73 57.8182C266.57 57.8182 265.76 58.519 265.76 59.5237V59.5448C265.76 60.604 266.653 60.9474 267.491 61.1868L267.625 61.2282C268.236 61.4158 268.762 61.5768 268.762 62.0065V62.0276C268.762 62.4204 268.42 62.7127 267.868 62.7127C267.654 62.7127 266.972 62.7084 266.235 62.2426C266.146 62.1906 266.093 62.1545 266.027 62.1114C266.004 62.0963 265.896 62.055 265.859 62.1686L265.609 62.8624Z" fill="white"/>
<path d="M278.28 60.7358C278.28 61.3496 278.165 61.833 277.94 62.1746C277.717 62.5126 277.38 62.6773 276.91 62.6773C276.439 62.6773 276.103 62.5135 275.884 62.1746C275.662 61.8338 275.55 61.3496 275.55 60.7358C275.55 60.123 275.662 59.6406 275.884 59.3025C276.103 58.9679 276.439 58.8051 276.91 58.8051C277.38 58.8051 277.717 58.9679 277.941 59.3025C278.165 59.6406 278.28 60.123 278.28 60.7358ZM279.338 59.5984C279.234 59.247 279.072 58.9372 278.857 58.6791C278.641 58.4203 278.368 58.2125 278.044 58.0611C277.721 57.9105 277.339 57.834 276.91 57.834C276.48 57.834 276.098 57.9105 275.775 58.0611C275.451 58.2125 275.178 58.4203 274.961 58.6791C274.747 58.938 274.585 59.248 274.48 59.5984C274.377 59.9479 274.325 60.33 274.325 60.7358C274.325 61.1417 274.377 61.5247 274.48 61.8734C274.585 62.2238 274.746 62.5338 274.962 62.7927C275.178 63.0516 275.452 63.2583 275.775 63.4055C276.099 63.5525 276.48 63.6273 276.91 63.6273C277.339 63.6273 277.72 63.5525 278.044 63.4055C278.367 63.2583 278.641 63.0516 278.857 62.7927C279.072 62.5346 279.234 62.2248 279.338 61.8734C279.442 61.5239 279.494 61.1409 279.494 60.7358C279.494 60.3309 279.442 59.9479 279.338 59.5984Z" fill="white"/>
<path d="M288.029 62.5129C287.994 62.4099 287.894 62.4487 287.894 62.4487C287.74 62.5077 287.577 62.5623 287.402 62.5895C287.225 62.6168 287.031 62.6309 286.822 62.6309C286.31 62.6309 285.903 62.4786 285.611 62.1775C285.319 61.8763 285.155 61.3894 285.157 60.7309C285.159 60.1314 285.303 59.6804 285.563 59.3372C285.821 58.9956 286.213 58.8203 286.737 58.8203C287.174 58.8203 287.507 58.8705 287.856 58.9806C287.856 58.9806 287.939 59.0167 287.979 58.9075C288.071 58.6504 288.14 58.4663 288.239 58.1838C288.267 58.1036 288.198 58.0693 288.173 58.0597C288.036 58.006 287.712 57.9187 287.467 57.8818C287.238 57.8465 286.971 57.8281 286.673 57.8281C286.228 57.8281 285.832 57.9037 285.493 58.0552C285.155 58.2057 284.868 58.4136 284.641 58.6725C284.414 58.9312 284.241 59.2412 284.126 59.5916C284.012 59.9411 283.953 60.3251 283.953 60.7309C283.953 61.6087 284.19 62.3183 284.658 62.8378C285.126 63.359 285.83 63.6241 286.747 63.6241C287.289 63.6241 287.846 63.514 288.246 63.3563C288.246 63.3563 288.322 63.3194 288.289 63.2306L288.029 62.5129Z" fill="white"/>
<path d="M289.88 60.1478C289.931 59.807 290.025 59.5235 290.17 59.3025C290.389 58.9671 290.724 58.783 291.194 58.783C291.664 58.783 291.975 58.9679 292.198 59.3025C292.346 59.5235 292.41 59.8194 292.436 60.1478H289.88ZM293.444 59.3985C293.354 59.0594 293.131 58.717 292.985 58.5602C292.754 58.3121 292.529 58.1385 292.305 58.0417C292.013 57.9168 291.662 57.834 291.279 57.834C290.831 57.834 290.425 57.9088 290.096 58.0638C289.766 58.2186 289.489 58.43 289.271 58.6932C289.054 58.9556 288.89 59.2681 288.786 59.623C288.681 59.976 288.628 60.3608 288.628 60.7667C288.628 61.1796 288.683 61.5644 288.791 61.9105C288.901 62.2591 289.075 62.5664 289.311 62.8208C289.546 63.077 289.849 63.2778 290.212 63.4178C290.572 63.5568 291.009 63.629 291.512 63.6282C292.546 63.6247 293.091 63.394 293.316 63.2698C293.356 63.2478 293.393 63.2091 293.346 63.0982L293.112 62.4423C293.076 62.3445 292.977 62.3806 292.977 62.3806C292.721 62.4757 292.356 62.6465 291.507 62.6447C290.951 62.6438 290.539 62.4801 290.281 62.2238C290.016 61.9614 289.887 61.5759 289.864 61.0318L293.446 61.0353C293.446 61.0353 293.54 61.0335 293.55 60.942C293.554 60.9031 293.673 60.2058 293.444 59.3985Z" fill="white"/>
<path d="M261.19 60.1478C261.241 59.807 261.334 59.5235 261.479 59.3025C261.699 58.9671 262.033 58.783 262.503 58.783C262.974 58.783 263.284 58.9679 263.508 59.3025C263.655 59.5235 263.719 59.8194 263.745 60.1478H261.19ZM264.752 59.3985C264.662 59.0594 264.44 58.717 264.294 58.5602C264.064 58.3121 263.838 58.1385 263.615 58.0417C263.322 57.9168 262.972 57.834 262.588 57.834C262.141 57.834 261.735 57.9088 261.405 58.0638C261.075 58.2186 260.798 58.43 260.58 58.6932C260.363 58.9556 260.199 59.2681 260.095 59.623C259.991 59.976 259.938 60.3608 259.938 60.7667C259.938 61.1796 259.992 61.5644 260.101 61.9105C260.21 62.2591 260.384 62.5664 260.62 62.8208C260.855 63.077 261.158 63.2778 261.521 63.4178C261.881 63.5568 262.319 63.629 262.821 63.6282C263.856 63.6247 264.401 63.394 264.625 63.2698C264.665 63.2478 264.703 63.2091 264.655 63.0982L264.422 62.4423C264.386 62.3445 264.286 62.3806 264.286 62.3806C264.03 62.4757 263.667 62.6465 262.815 62.6447C262.26 62.6438 261.848 62.4801 261.59 62.2238C261.325 61.9614 261.196 61.5759 261.173 61.0318L264.756 61.0353C264.756 61.0353 264.85 61.0335 264.86 60.942C264.863 60.9031 264.983 60.2058 264.752 59.3985Z" fill="white"/>
<path d="M253.446 62.4938C253.306 62.3819 253.286 62.3538 253.239 62.2816C253.168 62.1715 253.132 62.0147 253.132 61.8158C253.132 61.5005 253.236 61.2743 253.452 61.122C253.449 61.1229 253.76 60.8535 254.491 60.8631C255.004 60.8701 255.463 60.9459 255.463 60.9459V62.5748H255.464C255.464 62.5748 255.008 62.6725 254.496 62.7033C253.767 62.7474 253.443 62.4928 253.446 62.4938ZM254.871 59.9766C254.726 59.966 254.537 59.9598 254.312 59.9598C254.005 59.9598 253.708 59.9985 253.43 60.0734C253.15 60.1482 252.898 60.2653 252.681 60.4203C252.464 60.5761 252.289 60.7751 252.162 61.0111C252.035 61.2471 251.971 61.5253 251.971 61.8369C251.971 62.1539 252.025 62.4294 252.135 62.6549C252.244 62.8811 252.401 63.0695 252.602 63.2148C252.801 63.36 253.047 63.4666 253.332 63.5309C253.613 63.5953 253.932 63.6279 254.28 63.6279C254.647 63.6279 255.014 63.5978 255.369 63.5371C255.72 63.4772 256.151 63.3901 256.271 63.3628C256.39 63.3346 256.522 63.2985 256.522 63.2985C256.611 63.2765 256.604 63.1814 256.604 63.1814L256.602 59.9051C256.602 59.1867 256.41 58.6541 256.032 58.324C255.656 57.9946 255.103 57.8281 254.387 57.8281C254.118 57.8281 253.686 57.8652 253.427 57.9171C253.427 57.9171 252.644 58.0686 252.322 58.3205C252.322 58.3205 252.252 58.3644 252.291 58.463L252.544 59.1445C252.576 59.2326 252.661 59.2027 252.661 59.2027C252.661 59.2027 252.688 59.192 252.72 59.1736C253.41 58.7984 254.281 58.8099 254.281 58.8099C254.669 58.8099 254.966 58.8874 255.167 59.0414C255.362 59.1912 255.462 59.4174 255.462 59.8946V60.0461C255.154 60.0021 254.871 59.9766 254.871 59.9766Z" fill="white"/>
<path d="M283.766 58.1307C283.793 58.0497 283.736 58.011 283.712 58.0021C283.651 57.9784 283.347 57.914 283.112 57.8992C282.662 57.8719 282.412 57.9476 282.188 58.048C281.966 58.1483 281.72 58.3103 281.582 58.4944V58.0585C281.582 57.9978 281.539 57.9494 281.479 57.9494H280.561C280.501 57.9494 280.458 57.9978 280.458 58.0585V63.402C280.458 63.4619 280.507 63.5111 280.567 63.5111H281.508C281.568 63.5111 281.617 63.4619 281.617 63.402V60.7325C281.617 60.3741 281.656 60.0166 281.736 59.7921C281.813 59.5703 281.919 59.3925 282.049 59.2648C282.18 59.1379 282.329 59.0491 282.492 58.9989C282.658 58.9477 282.842 58.931 282.973 58.931C283.16 58.931 283.366 58.9795 283.366 58.9795C283.435 58.9874 283.474 58.9452 283.496 58.8826C283.558 58.7189 283.733 58.2285 283.766 58.1307Z" fill="white"/>
<path d="M274.932 55.6538C274.817 55.6185 274.714 55.5949 274.578 55.5693C274.441 55.5447 274.277 55.5322 274.091 55.5322C273.443 55.5322 272.932 55.7155 272.574 56.0765C272.217 56.4357 271.975 56.9824 271.854 57.7017L271.81 57.9438H270.996C270.996 57.9438 270.898 57.9403 270.876 58.0477L270.744 58.7935C270.734 58.8639 270.765 58.9088 270.86 58.9088H271.651L270.848 63.3921C270.786 63.7531 270.714 64.0499 270.634 64.2752C270.555 64.4971 270.479 64.6635 270.383 64.7851C270.292 64.9012 270.206 64.9875 270.056 65.0377C269.933 65.0791 269.79 65.0984 269.634 65.0984C269.548 65.0984 269.433 65.0844 269.347 65.0668C269.263 65.05 269.218 65.0315 269.153 65.0043C269.153 65.0043 269.061 64.969 269.024 65.0615C268.995 65.1381 268.784 65.7183 268.758 65.7895C268.733 65.861 268.769 65.9164 268.814 65.9332C268.919 65.9701 268.998 65.9947 269.141 66.0291C269.34 66.0757 269.508 66.0784 269.666 66.0784C269.995 66.0784 270.296 66.0318 270.546 65.942C270.795 65.8512 271.014 65.6937 271.208 65.4805C271.416 65.2499 271.547 65.0086 271.672 64.6785C271.797 64.3527 271.903 63.9477 271.988 63.4757L272.795 58.9088H273.975C273.975 58.9088 274.074 58.9123 274.095 58.804L274.228 58.0592C274.237 57.9879 274.207 57.9438 274.111 57.9438H272.966C272.972 57.9183 273.024 57.5151 273.155 57.1356C273.212 56.9745 273.317 56.8433 273.406 56.7535C273.494 56.6655 273.595 56.603 273.706 56.5669C273.82 56.5298 273.949 56.5122 274.091 56.5122C274.198 56.5122 274.305 56.5245 274.385 56.5413C274.496 56.5651 274.539 56.5774 274.568 56.5862C274.685 56.6214 274.701 56.587 274.724 56.5308L274.998 55.7788C275.026 55.6978 274.956 55.6634 274.932 55.6538Z" fill="white"/>
<path d="M258.927 63.4026C258.927 63.4625 258.884 63.5109 258.824 63.5109H257.874C257.814 63.5109 257.772 63.4625 257.772 63.4026V55.7568C257.772 55.6969 257.814 55.6484 257.874 55.6484H258.824C258.884 55.6484 258.927 55.6969 258.927 55.7568V63.4026Z" fill="white"/>
</g>
<defs>
<filter id="filter0_d_1_2535" x="631" y="72" width="192" height="192" filterUnits="userSpaceOnUse" color-interpolation-filters="sRGB">
<feFlood flood-opacity="0" result="BackgroundImageFix"/>
<feColorMatrix in="SourceAlpha" type="matrix" values="0 0 0 0 0 0 0 0 0 0 0 0 0 0 0 0 0 0 127 0" result="hardAlpha"/>
<feOffset dy="34"/>
<feGaussianBlur stdDeviation="17"/>
<feColorMatrix type="matrix" values="0 0 0 0 0 0 0 0 0 0 0 0 0 0 0 0 0 0 0.05 0"/>
<feBlend mode="normal" in2="BackgroundImageFix" result="effect1_dropShadow_1_2535"/>
<feBlend mode="normal" in="SourceGraphic" in2="effect1_dropShadow_1_2535" result="shape"/>
</filter>
<filter id="filter1_d_1_2535" x="173" y="0" width="192" height="192" filterUnits="userSpaceOnUse" color-interpolation-filters="sRGB">
<feFlood flood-opacity="0" result="BackgroundImageFix"/>
<feColorMatrix in="SourceAlpha" type="matrix" values="0 0 0 0 0 0 0 0 0 0 0 0 0 0 0 0 0 0 127 0" result="hardAlpha"/>
<feOffset dy="34"/>
<feGaussianBlur stdDeviation="17"/>
<feColorMatrix type="matrix" values="0 0 0 0 0 0 0 0 0 0 0 0 0 0 0 0 0 0 0.05 0"/>
<feBlend mode="normal" in2="BackgroundImageFix" result="effect1_dropShadow_1_2535"/>
<feBlend mode="normal" in="SourceGraphic" in2="effect1_dropShadow_1_2535" result="shape"/>
</filter>
<clipPath id="clip0_1_2535">
<rect width="124" height="124" fill="white" transform="translate(665 72)"/>
</clipPath>
<clipPath id="clip1_1_2535">
<rect width="124" height="124" fill="white" transform="translate(207)"/>
</clipPath>
</defs>
</svg>
